<svg xmlns="http://www.w3.org/2000/svg" width="351.091" height="59.675" viewBox="0 0 351.091 59.675">
  <g id="logo_17" data-name="logo 17" transform="translate(-445.532 -450.462)">
    <g id="Group_23" data-name="Group 23">
      <path id="Path_297" data-name="Path 297" d="M453.3,489.218c-5.01,0-7.77-2.756-7.77-7.768v-7.459a1.277,1.277,0,0,1,1.277-1.274h3.958a1.277,1.277,0,0,1,1.277,1.274v7.614c0,1.119.291,1.409,1.412,1.409h.815c1.12,0,1.408-.29,1.408-1.409v-5.329a2.4,2.4,0,0,0-1.259-2.372l-4.961-3.6a8.3,8.3,0,0,1-3.927-7.63v-4.263c0-5.148,2.724-7.87,7.874-7.87h1.014c5.011,0,7.771,2.762,7.771,7.77v6.393a1.278,1.278,0,0,1-1.278,1.277h-3.956a1.277,1.277,0,0,1-1.278-1.277v-6.542c0-1.124-.288-1.414-1.408-1.414h-.714c-1.123,0-1.412.29-1.412,1.414v4.466A2.424,2.424,0,0,0,453.454,465l4.909,3.538a8.3,8.3,0,0,1,3.928,7.629v5.177c0,5.153-2.722,7.87-7.871,7.87Z" fill="#0a0406"/>
      <path id="Path_298" data-name="Path 298" d="M494.543,488.915a1.271,1.271,0,0,1-1.274-1.273V452.131a1.276,1.276,0,0,1,1.274-1.281H498.6a1.281,1.281,0,0,1,1.279,1.281v35.511a1.276,1.276,0,0,1-1.279,1.273Z" fill="#0a0406"/>
      <path id="Path_299" data-name="Path 299" d="M505.116,488.915a1.274,1.274,0,0,1-1.276-1.273V452.131a1.279,1.279,0,0,1,1.276-1.281h4.057a1.282,1.282,0,0,1,1.279,1.281v30.481h5.42a1.273,1.273,0,0,1,1.275,1.271v3.759a1.274,1.274,0,0,1-1.275,1.273Z" fill="#0a0406"/>
      <path id="Path_300" data-name="Path 300" d="M521.017,488.915a1.274,1.274,0,0,1-1.278-1.273V452.131a1.28,1.28,0,0,1,1.278-1.281h11.159a1.281,1.281,0,0,1,1.277,1.281v3.751a1.276,1.276,0,0,1-1.277,1.276h-5.827v9.216h5.574a1.279,1.279,0,0,1,1.277,1.277v3.7a1.277,1.277,0,0,1-1.277,1.277h-5.574v9.98h5.926a1.274,1.274,0,0,1,1.281,1.271v3.759a1.275,1.275,0,0,1-1.281,1.273Z" fill="#0a0406"/>
      <path id="Path_301" data-name="Path 301" d="M553.072,451.344a1.271,1.271,0,0,0-1.006-.493h-4.008a1.276,1.276,0,0,0-1.247,1.008l-2.478,11.5-2.382-11.486a1.274,1.274,0,0,0-1.249-1.02h-4.159a1.286,1.286,0,0,0-1.241,1.583l5.7,23.184v12.025a1.277,1.277,0,0,0,1.279,1.272h4.058a1.274,1.274,0,0,0,1.276-1.272V475.569l5.7-23.135a1.265,1.265,0,0,0-.236-1.09" fill="#0a0406"/>
      <path id="Path_302" data-name="Path 302" d="M488,450.851H482.4a1.333,1.333,0,0,0-1.322,1.125l-3.676,22.8-3.676-22.8a1.335,1.335,0,0,0-1.322-1.123h-5.7a1.34,1.34,0,0,0-1.339,1.339v35.386a1.34,1.34,0,0,0,1.339,1.339h3.037a1.341,1.341,0,0,0,1.34-1.339V468.8l3.149,19a1.333,1.333,0,0,0,1.321,1.121h3.486a1.336,1.336,0,0,0,1.321-1.12l3.15-19v18.781a1.341,1.341,0,0,0,1.34,1.339H488a1.34,1.34,0,0,0,1.339-1.339V452.19A1.34,1.34,0,0,0,488,450.851" fill="#0a0406"/>
      <path id="Path_303" data-name="Path 303" d="M596.716,469.889a18.207,18.207,0,1,1-18.207-18.207,18.21,18.21,0,0,1,18.207,18.207" fill="#fe0"/>
      <path id="Path_304" data-name="Path 304" d="M578.509,450.561a19.329,19.329,0,1,0,19.33,19.329,19.352,19.352,0,0,0-19.33-19.329m0,37.517a18.208,18.208,0,1,1,18.208-18.208,18.209,18.209,0,0,1-18.208,18.208" fill="#0a0406"/>
      <path id="Path_305" data-name="Path 305" d="M574.522,461.553c0,1.468-.484,2.659-1.083,2.659s-1.081-1.191-1.081-2.659.485-2.655,1.081-2.655,1.083,1.189,1.083,2.655" fill="#0a0406"/>
      <path id="Path_306" data-name="Path 306" d="M584.217,461.553c0,1.468-.484,2.659-1.083,2.659s-1.081-1.191-1.081-2.659.484-2.655,1.081-2.655,1.083,1.189,1.083,2.655" fill="#0a0406"/>
      <path id="Path_307" data-name="Path 307" d="M578.9,482.793c-6.777,0-11.112-6.115-12.921-9.539-.973-1.849-.712-2.322-.371-2.893.238-.395.269-.517.211-.633-.067-.144-.331-.014-.636.2a3.707,3.707,0,0,0-1.145,1.137,5.564,5.564,0,0,0-.412,1.53c-.069.48-.046.724.107.753.1.02.206-.112.347-.434.335-.761.686-.683,1.242.291,1.994,3.5,6.168,10.588,13.571,10.588,6.989,0,10.792-6.6,12.075-8.884.749-1.332,1-.731,1.338-.059.25.5.61.427.541-.112a10.43,10.43,0,0,0-1.395-4.08c-.4-.589-.64-.381-.542.208a6.955,6.955,0,0,1,.256,1.594,4.744,4.744,0,0,1-.625,2.021c-1.673,3.3-5.638,8.31-11.641,8.31" fill="#0a0406"/>
      <path id="Path_308" data-name="Path 308" d="M550.711,487.116V487.1a2.1,2.1,0,1,1,4.205-.012v.012a2.1,2.1,0,1,1-4.205.012m3.965-.012v-.012a1.861,1.861,0,1,0-3.722.012v.012a1.849,1.849,0,0,0,1.86,1.873,1.867,1.867,0,0,0,1.862-1.885m-2.683-1.111h.966c.471,0,.822.228.822.677a.643.643,0,0,1-.5.651l.569.81h-.5l-.507-.738H552.4v.738h-.41Zm.93,1.062c.278,0,.435-.145.435-.35,0-.229-.157-.35-.435-.35h-.52v.7Z" fill="#0a0406"/>
      <path id="Path_309" data-name="Path 309" d="M594.927,485.093v-.013a2.22,2.22,0,1,1,4.439-.013v.013a2.22,2.22,0,1,1-4.439.013m4.184-.013v-.013a1.964,1.964,0,1,0-3.928.013v.013a1.95,1.95,0,0,0,1.963,1.976,1.97,1.97,0,0,0,1.965-1.989m-2.832-1.174h1.02c.5,0,.868.243.868.715a.679.679,0,0,1-.523.688l.6.855h-.524l-.536-.778h-.471v.778h-.434Zm.982,1.122c.294,0,.459-.152.459-.369,0-.241-.165-.37-.459-.37h-.548v.739Z" fill="#0a0406"/>
    </g>
    <g id="Group_24" data-name="Group 24">
      <path id="Path_310" data-name="Path 310" d="M495.573,504.651c-.1-1.679-.21-3.7-.19-5.2h-.058c-.435,1.412-.969,2.913-1.615,4.574l-2.265,5.843H490.19l-2.074-5.735c-.609-1.7-1.121-3.253-1.483-4.682H486.6c-.038,1.5-.134,3.521-.248,5.325l-.342,5.164h-1.579l.894-12.043h2.111l2.189,5.825c.532,1.483.969,2.805,1.293,4.055h.056c.324-1.214.78-2.536,1.352-4.055L494.6,497.9h2.111l.8,12.043H495.9Z" fill="#1a1818"/>
      <path id="Path_311" data-name="Path 311" d="M505.813,506.151l-1.331,3.789H502.77l4.356-12.043h2L513.5,509.94h-1.77l-1.369-3.789Zm4.2-1.214-1.255-3.467c-.284-.786-.476-1.5-.666-2.2h-.038c-.19.715-.4,1.446-.646,2.179l-1.255,3.485Z" fill="#1a1818"/>
      <path id="Path_312" data-name="Path 312" d="M520.215,499.219h-3.9V497.9h9.494v1.322H521.89V509.94h-1.675Z" fill="#1a1818"/>
      <path id="Path_313" data-name="Path 313" d="M539.419,509.547a8.671,8.671,0,0,1-3.387.572c-3.614,0-6.333-2.145-6.333-6.094,0-3.769,2.719-6.324,6.7-6.324a7.279,7.279,0,0,1,3.045.535l-.4,1.269a6.362,6.362,0,0,0-2.587-.5,4.616,4.616,0,0,0-5,4.968c0,2.948,1.807,4.842,4.928,4.842a6.99,6.99,0,0,0,2.7-.5Z" fill="#1a1818"/>
      <path id="Path_314" data-name="Path 314" d="M546.58,497.9v5.039h6.2V497.9h1.676V509.94h-1.676v-5.646h-6.2v5.646h-1.655V497.9Z" fill="#1a1818"/>
      <path id="Path_315" data-name="Path 315" d="M571.809,504.651c-.1-1.679-.21-3.7-.19-5.2h-.058c-.435,1.412-.969,2.913-1.615,4.574l-2.265,5.843h-1.255l-2.074-5.735c-.609-1.7-1.121-3.253-1.483-4.682h-.038c-.038,1.5-.134,3.521-.248,5.325l-.342,5.164h-1.579l.894-12.043h2.111l2.189,5.825c.532,1.483.969,2.805,1.293,4.055h.056c.324-1.214.78-2.536,1.352-4.055l2.283-5.825h2.111l.8,12.043h-1.617Z" fill="#1a1818"/>
      <path id="Path_316" data-name="Path 316" d="M582.045,506.151l-1.331,3.789H579l4.356-12.043h2l4.376,12.043h-1.769l-1.37-3.789Zm4.2-1.214-1.255-3.467c-.284-.786-.476-1.5-.666-2.2h-.038c-.19.715-.4,1.446-.646,2.179l-1.255,3.485Z" fill="#1a1818"/>
      <path id="Path_317" data-name="Path 317" d="M595.136,497.9h1.655V503.7h.058c.342-.465.684-.893,1.007-1.286l3.919-4.521h2.055l-4.642,5.109,5,6.934h-1.959l-4.225-5.915-1.217,1.323v4.592h-1.655Z" fill="#1a1818"/>
      <path id="Path_318" data-name="Path 318" d="M615.9,504.294h-4.984v4.341h5.556v1.3H609.26V497.9h6.925v1.3h-5.27v3.805H615.9Z" fill="#1a1818"/>
      <path id="Path_319" data-name="Path 319" d="M622.1,498.058a18.311,18.311,0,0,1,3.177-.25,5.489,5.489,0,0,1,3.71.982,2.916,2.916,0,0,1,1.008,2.287,3.2,3.2,0,0,1-2.415,3.073v.054a3.036,3.036,0,0,1,1.883,2.43,18.12,18.12,0,0,0,.99,3.306h-1.714a14.993,14.993,0,0,1-.855-2.877c-.38-1.662-1.066-2.287-2.569-2.341h-1.559v5.218H622.1Zm1.656,5.485h1.693c1.769,0,2.891-.911,2.891-2.287,0-1.554-1.2-2.234-2.949-2.252a7.166,7.166,0,0,0-1.635.144Z" fill="#1a1818"/>
      <path id="Path_320" data-name="Path 320" d="M643.479,497.9h6.9v1.3h-5.249v4h4.852v1.287h-4.852v5.45h-1.656Z" fill="#1a1818"/>
      <path id="Path_321" data-name="Path 321" d="M667.151,503.793c0,4.145-2.683,6.344-5.953,6.344-3.387,0-5.764-2.466-5.764-6.112,0-3.823,2.529-6.324,5.954-6.324C664.888,497.7,667.151,500.22,667.151,503.793Zm-9.948.2c0,2.573,1.484,4.878,4.089,4.878,2.627,0,4.11-2.27,4.11-5,0-2.394-1.331-4.9-4.09-4.9C658.573,498.969,657.2,501.345,657.2,503.99Z" fill="#1a1818"/>
      <path id="Path_322" data-name="Path 322" d="M673.017,498.058a18.31,18.31,0,0,1,3.177-.25,5.49,5.49,0,0,1,3.71.982,2.916,2.916,0,0,1,1.008,2.287,3.2,3.2,0,0,1-2.415,3.073v.054a3.038,3.038,0,0,1,1.883,2.43,18.141,18.141,0,0,0,.989,3.306h-1.713a14.886,14.886,0,0,1-.856-2.877c-.379-1.662-1.065-2.287-2.568-2.341h-1.56v5.218h-1.655Zm1.655,5.485h1.693c1.77,0,2.891-.911,2.891-2.287,0-1.554-1.2-2.234-2.949-2.252a7.181,7.181,0,0,0-1.635.144Z" fill="#1a1818"/>
      <path id="Path_323" data-name="Path 323" d="M704.158,509.4a12.64,12.64,0,0,1-3.939.661,6.85,6.85,0,0,1-4.794-1.591,5.991,5.991,0,0,1-1.787-4.484c.018-3.591,2.643-6.218,6.943-6.218a8.394,8.394,0,0,1,3.2.553l-.4,1.269a7.02,7.02,0,0,0-2.835-.518c-3.12,0-5.156,1.822-5.156,4.842,0,3.056,1.96,4.86,4.946,4.86a5.7,5.7,0,0,0,2.207-.322v-3.59h-2.606v-1.252h4.224Z" fill="#1a1818"/>
      <path id="Path_324" data-name="Path 324" d="M721.267,503.793c0,4.145-2.683,6.344-5.954,6.344-3.386,0-5.763-2.466-5.763-6.112,0-3.823,2.528-6.324,5.953-6.324C719,497.7,721.267,500.22,721.267,503.793Zm-9.948.2c0,2.573,1.483,4.878,4.088,4.878,2.627,0,4.11-2.27,4.11-5,0-2.394-1.331-4.9-4.09-4.9C712.688,498.969,711.319,501.345,711.319,503.99Z" fill="#1a1818"/>
      <path id="Path_325" data-name="Path 325" d="M738.134,503.793c0,4.145-2.683,6.344-5.954,6.344-3.387,0-5.764-2.466-5.764-6.112,0-3.823,2.529-6.324,5.954-6.324C735.871,497.7,738.134,500.22,738.134,503.793Zm-9.948.2c0,2.573,1.483,4.878,4.088,4.878,2.627,0,4.11-2.27,4.11-5,0-2.394-1.331-4.9-4.09-4.9C729.555,498.969,728.186,501.345,728.186,503.99Z" fill="#1a1818"/>
      <path id="Path_326" data-name="Path 326" d="M744,498.058a25.23,25.23,0,0,1,3.521-.25c2.377,0,4.07.517,5.191,1.5a5.381,5.381,0,0,1,1.808,4.324,6.15,6.15,0,0,1-1.846,4.681c-1.2,1.127-3.176,1.734-5.667,1.734A28.278,28.278,0,0,1,744,509.9Zm1.655,10.649a11.187,11.187,0,0,0,1.674.089c3.538,0,5.459-1.858,5.459-5.11.02-2.841-1.691-4.646-5.191-4.646a10.026,10.026,0,0,0-1.942.161Z" fill="#1a1818"/>
    </g>
    <g id="Group_25" data-name="Group 25">
      <path id="Path_327" data-name="Path 327" d="M627.592,475.608c-.168-3.609-.45-8.513-.338-12.573h-.168c-.678,4.06-1.691,8.74-2.425,11.671l-3.27,13.589h-5.244l-3.157-13.364c-.734-3.044-1.747-7.78-2.311-11.9h-.17c-.112,4.116-.338,8.909-.564,12.686l-.619,13.193h-6.372l2.763-38H613.5l3.045,13.758c1.071,4.793,2.029,9.021,2.7,13.306h.114c.564-4.228,1.41-8.513,2.425-13.306l2.987-13.758h7.781l2.313,38h-6.6Z" fill="#1a1818"/>
      <path id="Path_328" data-name="Path 328" d="M659.309,469.237c0,14.321-5.076,20.128-12.293,20.128-8.627,0-12.009-9.134-12.009-19.565,0-10.373,4.116-19.338,12.517-19.338C656.714,450.462,659.309,460.554,659.309,469.237Zm-16.633.676c0,8.627,1.635,13.025,4.622,13.025,3.1,0,4.286-5.639,4.286-13.362,0-6.654-1.016-12.687-4.342-12.687C644.311,456.889,642.676,461.738,642.676,469.913Z" fill="#1a1818"/>
      <path id="Path_329" data-name="Path 329" d="M665.57,488.914l-8.514-38h8.176l2.705,16.407c.678,4.061,1.467,8.74,1.975,13.194h.112c.508-4.51,1.128-9.077,1.8-13.362l2.595-16.239h8.119l-8.682,38Z" fill="#1a1818"/>
      <path id="Path_330" data-name="Path 330" d="M698.69,472.225h-8.684v10.262h9.812v6.427h-17.2v-38H699.14v6.429h-9.134v8.738h8.684Z" fill="#1a1818"/>
      <path id="Path_331" data-name="Path 331" d="M724.7,475.608c-.168-3.609-.45-8.513-.338-12.573h-.168c-.677,4.06-1.691,8.74-2.425,11.671L718.5,488.3h-5.244l-3.157-13.364c-.733-3.044-1.747-7.78-2.311-11.9h-.17c-.112,4.116-.338,8.909-.563,12.686l-.62,13.193H700.06l2.762-38H710.6l3.045,13.758c1.071,4.793,2.029,9.021,2.705,13.306h.114c.563-4.228,1.409-8.513,2.425-13.306l2.986-13.758h7.781l2.313,38h-6.6Z" fill="#1a1818"/>
      <path id="Path_332" data-name="Path 332" d="M750.007,472.225h-8.685v10.262h9.812v6.427h-17.2v-38h16.519v6.429h-9.134v8.738h8.685Z" fill="#1a1818"/>
      <path id="Path_333" data-name="Path 333" d="M752.775,488.914v-38h6.766L765.4,465.8c1.128,2.933,2.989,7.838,4.06,11.107h.112c-.224-4-.731-10.6-.731-17.59v-8.4h6.483v38h-6.765l-5.808-14.434a108.642,108.642,0,0,1-3.834-11.445h-.112c.168,3.834.45,9.7.45,17.309v8.57Z" fill="#1a1818"/>
      <path id="Path_334" data-name="Path 334" d="M782.471,457.734H775.76v-6.822h20.863v6.822h-6.767v31.18h-7.385Z" fill="#1a1818"/>
    </g>
    <line id="Line_1" data-name="Line 1" y1="12.048" transform="translate(477.353 497.892)" fill="none" stroke="#1a1818" stroke-miterlimit="10" stroke-width="0.25"/>
    <line id="Line_2" data-name="Line 2" y1="12.048" transform="translate(758.726 497.892)" fill="none" stroke="#1a1818" stroke-miterlimit="10" stroke-width="0.25"/>
  </g>
</svg>
