
<svg version="1.1" id="Layer_1" xmlns="http://www.w3.org/2000/svg" x="0" y="0" viewBox="0 0 238 64" xml:space="preserve"><style>.st1{fill:#13100d}</style><path id="Path_76" d="M219.34 32.37c0 14.71-11.92 26.63-26.63 26.63-14.71 0-26.63-11.92-26.63-26.63S178 5.74 192.71 5.74h0c14.71.01 26.63 11.93 26.63 26.63" fill="#ffec00" stroke="#000" stroke-miterlimit="10"/><path id="Path_78" class="st1" d="M186.87 20.16c0 2.15-.71 3.89-1.58 3.89s-1.59-1.78-1.59-3.89c0-2.11.71-3.88 1.58-3.88.87 0 1.59 1.78 1.59 3.88"/><path id="Path_79" class="st1" d="M201.05 20.15c0 2.15-.7 3.89-1.58 3.89-.88 0-1.59-1.78-1.59-3.89s.67-3.87 1.56-3.87 1.59 1.78 1.59 3.88"/><path id="Path_80" class="st1" d="M193.3 51.22c-9.91.01-16.26-8.88-18.9-13.93-1.43-2.67-1.05-3.4-.55-4.23.35-.58.39-.76.31-.89-.08-.13-.48 0-.89.29-.69.41-1.27.98-1.72 1.65-.31.71-.51 1.47-.6 2.24-.1.7-.06 1.06.16 1.1.22.04.3-.16.51-.63.49-1.11 1-1 1.78.43 2.93 5.12 9.03 15.48 19.86 15.47 10.22-.01 15.77-9.68 17.65-13.02 1.09-1.95 1.46-1.07 1.96-.09.37.74.89.62.79-.16-.26-2.11-.96-4.14-2.04-5.96-.59-.89-.94-.56-.79.3.21.76.34 1.54.38 2.33a6.887 6.887 0 01-.89 2.96c-2.44 4.82-8.23 12.16-17.02 12.17"/><path id="Path_81" class="st1" d="M23.91 58.89c-6.85.01-10.64-3.76-10.65-10.62l-.01-10.21c0-.98.8-1.78 1.78-1.78l5.41-.01c.98 0 1.78.8 1.78 1.78l.01 10.46c0 1.53.4 1.93 1.93 1.93h1.11c1.53 0 1.93-.4 1.93-1.93l-.01-7.33c0-1.7-.41-2.28-1.73-3.24l-6.79-4.92c-3.87-2.74-5.35-5.67-5.35-10.44l-.01-5.84c0-7.03 3.73-10.76 10.78-10.77h1.39c6.85-.01 10.64 3.77 10.65 10.63l.01 8.76c0 .98-.8 1.78-1.78 1.78l-5.41.01c-.98 0-1.78-.8-1.78-1.78l-.01-8.96c0-1.54-.39-1.93-1.93-1.93h-.98c-1.54 0-1.93.4-1.93 1.93l.01 6.12c0 1.66.43 2.23 1.78 3.24l6.73 4.84c3.92 2.84 5.35 5.66 5.35 10.44l.01 7.12c.01 7.05-3.71 10.78-10.76 10.78l-1.53-.06z"/><path id="Path_82" class="st1" d="M65.4 58.44c-.98 0-1.78-.8-1.78-1.78l-.02-18.94-3.18 19.27c-.15.84-.87 1.45-1.73 1.46l-5.69.01c-.85-.01-1.57-.62-1.73-1.46l-3.15-19.26.02 18.98c0 .98-.8 1.78-1.78 1.78l-5.28.01c-.98 0-1.78-.8-1.78-1.78l-.05-48.6c0-.98.8-1.78 1.78-1.78l8.75-.01c.85.01 1.58.63 1.73 1.47L56 35.39l4.42-27.6c.15-.84.87-1.45 1.72-1.47l8.61-.01c.98 0 1.78.8 1.78 1.78l.05 48.6c0 .98-.8 1.78-1.78 1.78l-5.4-.03z"/><path id="Path_83" class="st1" d="M78.07 58.42c-.98 0-1.78-.8-1.78-1.78l-.05-48.55c0-.98.8-1.78 1.78-1.78l5.55-.01c.98 0 1.78.8 1.78 1.78l.05 48.6c0 .98-.8 1.78-1.78 1.78l-5.55-.04z"/><path id="Path_84" class="st1" d="M90.88 58.41c-.98 0-1.78-.8-1.78-1.78l-.05-48.56c0-.98.8-1.78 1.78-1.78l5.55-.01c.98 0 1.78.8 1.78 1.78l.04 41.71 7.42-.01c.98 0 1.78.8 1.78 1.78l.01 5.15c0 .98-.8 1.78-1.78 1.78l-14.75-.06z"/><path id="Path_85" class="st1" d="M111.53 58.39c-.98 0-1.78-.8-1.78-1.78l-.05-48.56c0-.98.8-1.78 1.78-1.78l15.28-.02c.98 0 1.78.8 1.78 1.78l.01 5.14c0 .98-.8 1.78-1.78 1.78l-8.01.01.01 12.58 7.7-.01c.98 0 1.78.8 1.78 1.78l.01 5.07c0 .98-.8 1.78-1.78 1.78l-7.63.01.01 13.58 8.11-.01c.98 0 1.78.8 1.78 1.78l.01 5.15c0 .98-.8 1.78-1.78 1.78l-15.45-.06z"/><path id="Path_86" class="st1" d="M155.57 6.92a1.8 1.8 0 00-1.38-.68l-5.5.01c-.82.01-1.52.58-1.71 1.38l-3.37 15.74-3.27-15.72c-.18-.81-.89-1.38-1.71-1.4l-5.69.01a1.784 1.784 0 00-1.7 2.16l7.82 31.72.02 16.45c0 .98.8 1.78 1.78 1.78l5.55-.01c.98 0 1.78-.8 1.78-1.78l-.02-16.51 7.76-31.66c.13-.52.01-1.07-.32-1.5"/><path id="Path_87" class="st1" d="M224.6 55.08c0 .48-.09.96-.28 1.41-.18.42-.44.81-.76 1.14-.33.33-.71.59-1.14.77a3.62 3.62 0 01-2.81.01c-.42-.18-.81-.44-1.14-.76a4.02 4.02 0 01-.77-1.14c-.19-.44-.29-.92-.29-1.41 0-.48.1-.95.28-1.39.18-.42.44-.81.76-1.14.33-.32.72-.58 1.14-.77.9-.38 1.91-.38 2.8 0 .42.18.81.44 1.14.76.32.33.58.71.77 1.14.2.43.3.9.3 1.38m-.72 0c0-.39-.08-.78-.22-1.15-.15-.33-.36-.63-.62-.89s-.56-.47-.89-.62c-.36-.15-.74-.22-1.12-.22-.39 0-.77.07-1.13.22-.33.15-.63.36-.89.62s-.47.56-.61.89c-.15.36-.22.75-.22 1.15 0 .4.07.79.22 1.16.15.33.36.63.62.89.25.26.56.47.89.62 1.09.47 2.35.21 3.16-.66.26-.26.47-.56.61-.89.15-.37.22-.76.22-1.16m-2.16 1.98l-.8-1.54h-.49v1.54h-.72v-3.88h1.46c.17 0 .35.03.51.1.3.12.53.35.65.64.06.14.1.3.1.45.01.25-.07.49-.22.68-.14.17-.33.3-.54.37l.89 1.64h-.84zm0-2.67a.56.56 0 00-.18-.42.616.616 0 00-.46-.17h-.65v1.17h.65c.17.01.34-.05.46-.17.12-.1.18-.25.18-.41"/><path id="Path_88" class="st1" d="M158.99 55.15c0 .48-.09.96-.28 1.41-.18.42-.44.81-.76 1.14-.33.33-.71.59-1.14.77a3.62 3.62 0 01-2.81.01c-.42-.18-.81-.44-1.14-.76a4.02 4.02 0 01-.77-1.14c-.19-.44-.29-.92-.29-1.41 0-.48.1-.95.28-1.39.18-.42.44-.81.76-1.14.33-.32.72-.58 1.14-.77.44-.19.92-.29 1.41-.29.48 0 .96.09 1.4.28.42.18.81.44 1.14.76.32.33.58.72.77 1.14.19.44.29.91.29 1.39m-.72 0c0-.39-.08-.78-.22-1.15-.15-.33-.36-.63-.62-.89s-.56-.47-.89-.62c-.36-.15-.74-.22-1.12-.22-.39 0-.77.07-1.13.22a2.97 2.97 0 00-1.5 3.86c.15.33.36.63.62.89.53.56 1.27.88 2.05.89.76 0 1.49-.31 2.01-.86.26-.26.47-.56.61-.89.15-.37.22-.76.22-1.16m-2.11 1.95l-.8-1.54h-.5v1.54h-.72v-3.88h1.46c.17 0 .35.03.51.1.15.06.28.15.39.26.11.11.2.25.26.39s.09.3.09.45c.01.25-.07.49-.22.68-.14.17-.33.3-.54.37l.89 1.64-.82-.01zm-.01-2.67a.56.56 0 00-.18-.42.616.616 0 00-.46-.17h-.65v1.17h.65c.17.01.34-.05.46-.17a.52.52 0 00.18-.41"/></svg>
