
<svg version="1.1" id="Layer_1" xmlns="http://www.w3.org/2000/svg" x="0" y="0" viewBox="0 0 238 64" xml:space="preserve"><style>.st1{fill:#13100d}.st2{fill:#0a0203}.st3{fill:#231f20}</style><path id="Path_312" d="M83.39 25.92c0 13.76-11.16 24.92-24.92 24.92-13.76 0-24.92-11.16-24.92-24.92S44.7 1 58.46 1h0c13.77 0 24.93 11.16 24.93 24.92" fill="#ffec00" stroke="#000" stroke-miterlimit="10"/><path id="Path_78-2" class="st1" d="M53.01 14.55c0 2.01-.67 3.64-1.48 3.64-.82 0-1.48-1.67-1.48-3.64s.67-3.63 1.48-3.63c.81 0 1.48 1.66 1.48 3.63"/><path id="Path_79-2" class="st1" d="M66.28 14.55c0 2.01-.66 3.64-1.48 3.64s-1.48-1.67-1.48-3.64.63-3.62 1.47-3.62 1.48 1.67 1.48 3.63"/><path id="Path_80-2" class="st1" d="M59 43.62c-9.27 0-15.21-8.33-17.68-13.06-1.33-2.5-.97-3.18-.51-3.96.32-.54.37-.71.29-.83-.08-.12-.45 0-.83.27-.64.39-1.19.91-1.61 1.54-.29.67-.48 1.37-.57 2.09-.09.66-.06.99.15 1.03.21.04.28-.15.47-.59.46-1.04.94-.93 1.67.4 2.73 4.8 8.44 14.5 18.57 14.5 9.57 0 14.77-9.04 16.53-12.17 1.02-1.82 1.37-1 1.83-.08.34.69.83.58.74-.15-.24-1.97-.89-3.87-1.91-5.58-.55-.83-.87-.52-.74.28.2.71.32 1.44.35 2.18-.07.97-.35 1.92-.83 2.77-2.29 4.51-7.72 11.37-15.94 11.37"/><path id="Path_87-2" class="st1" d="M88.29 47.27c0 .45-.09.9-.27 1.32a3.363 3.363 0 01-1.79 1.79 3.352 3.352 0 01-2.63 0c-.4-.17-.76-.41-1.07-.72-.3-.31-.54-.67-.72-1.07a3.317 3.317 0 010-2.62c.17-.4.41-.76.72-1.07.31-.3.67-.54 1.07-.72.84-.36 1.79-.36 2.62 0 .4.17.76.41 1.07.72.3.31.55.67.72 1.07.19.41.28.85.28 1.3m-.68 0c0-.37-.07-.73-.21-1.07a2.823 2.823 0 00-1.4-1.41c-.33-.14-.69-.21-1.05-.21-.36 0-.72.07-1.06.21-.31.14-.59.34-.83.58-.24.24-.44.52-.57.83a2.846 2.846 0 000 2.15c.14.31.33.59.57.83.24.25.52.44.83.58 1.02.44 2.2.19 2.96-.62.24-.24.44-.52.57-.83.14-.34.21-.71.21-1.08m-2.02 1.86l-.75-1.44h-.46v1.44h-.67v-3.63h1.37c.16 0 .32.03.47.09.28.11.5.33.61.6.06.13.09.28.09.42.01.23-.06.46-.21.63-.13.16-.31.28-.51.35l.83 1.53h-.77zm0-2.5c0-.15-.06-.29-.17-.39a.579.579 0 00-.43-.16h-.61v1.09h.61c.16.01.32-.05.43-.16.11-.1.17-.24.17-.38"/><g id="Layer_2-2" transform="translate(238.653 47.367)"><g id="Layer_1_1_" transform="translate(-53.041)"><path id="Path_277" class="st2" d="M-83.64-10.9c-4.57 0-7.08-2.51-7.08-7.01v-6.86c0-.64.52-1.17 1.17-1.17h3.6c.64 0 1.17.52 1.17 1.17v6.94c0 1.02.27 1.29 1.29 1.29h.74c1.02 0 1.28-.27 1.28-1.29v-4.87c.1-.89-.36-1.74-1.15-2.16l-4.52-3.28a7.579 7.579 0 01-3.58-6.96v-3.88c0-4.68 2.48-7.17 7.18-7.17h.93c4.57 0 7.01 2.51 7.01 7.01v5.89c-.02.6-.5 1.08-1.09 1.12h-3.6c-.63 0-1.14-.49-1.17-1.12v-5.89c0-1.02-.27-1.29-1.28-1.29h-.66c-1.02 0-1.29.27-1.29 1.29v4.07c-.08.9.39 1.75 1.19 2.16l4.47 3.22a7.57 7.57 0 013.58 7.01v4.57c0 4.7-2.48 7.17-7.17 7.17l-1.02.04z"/><path id="Path_278" class="st2" d="M-46.06-11.18c-.64 0-1.17-.52-1.17-1.17v-32.39c.02-.63.54-1.12 1.17-1.12h3.7c.64 0 1.17.52 1.17 1.17v32.36c0 .64-.52 1.17-1.17 1.17l-3.7-.02z"/><path id="Path_279" class="st2" d="M-36.43-11.18c-.64 0-1.17-.52-1.17-1.17v-32.39c.02-.63.54-1.12 1.17-1.12h3.7c.64 0 1.17.52 1.17 1.17v27.77h4.94c.64 0 1.17.52 1.17 1.17v3.42c0 .64-.52 1.17-1.17 1.17l-9.81-.02z"/><path id="Path_280" class="st2" d="M-21.93-11.18c-.64 0-1.17-.52-1.17-1.17v-32.39c.02-.63.54-1.12 1.17-1.12h10.17c.64 0 1.17.52 1.17 1.17v3.42c0 .64-.52 1.17-1.17 1.17h-5.31v8.42H-12c.64 0 1.17.52 1.17 1.17v3.38c0 .64-.52 1.17-1.17 1.17h-5.08v9.08h5.4c.64 0 1.17.52 1.17 1.17v3.42c0 .64-.52 1.17-1.17 1.17l-10.25-.06z"/><path id="Path_281" class="st2" d="M7.28-45.41a1.18 1.18 0 00-.93-.45H2.71c-.55 0-1.02.38-1.14.91L-.69-34.46l-2.17-10.47c-.11-.54-.59-.92-1.14-.93h-3.79c-.36 0-.69.17-.91.45-.22.28-.31.65-.22 1l5.13 21.12v10.95c0 .64.52 1.17 1.17 1.17h3.7c.64 0 1.17-.52 1.17-1.17v-10.99l5.18-21.03c.09-.35.01-.71-.21-1"/><path id="Path_282" class="st2" d="M-52.02-45.86h-5.05c-.6 0-1.11.43-1.21 1.02l-3.41 20.78-3.33-20.78c-.1-.59-.61-1.03-1.21-1.02h-5.19c-.67 0-1.22.55-1.22 1.22v32.25c0 .67.55 1.22 1.22 1.22h2.8c.67 0 1.22-.55 1.22-1.22v-17.12l2.8 17.31c.1.59.61 1.02 1.21 1.02h3.17c.6 0 1.11-.43 1.21-1.02l2.8-17.32v17.11c0 .67.55 1.22 1.22 1.22h2.8c.67 0 1.22-.55 1.22-1.22v-32.25c.02-.6-.44-1.12-1.05-1.2"/><path id="Path_284" class="st2" d="M5.23-14.04a2.87 2.87 0 015.74 0 2.87 2.87 0 01-2.87 2.87 2.864 2.864 0 01-2.87-2.87m5.42 0c0-1.41-1.14-2.54-2.54-2.54s-2.54 1.14-2.54 2.54a2.518 2.518 0 002.5 2.55h.04a2.556 2.556 0 002.54-2.57v-.02m-3.67-1.5h1.31c.64 0 1.12.31 1.12.93.02.42-.26.8-.67.9l.77 1.11h-.67l-.69-1.01h-.6v1.01h-.56l-.01-2.94zm1.27 1.4c.38 0 .59-.2.59-.48s-.21-.48-.59-.48h-.72v.95l.72.01z"/><path id="Path_285" class="st2" d="M-83.78-3.9h-.8c-.08 0-.15.04-.2.11l-2.35 3.52-2.34-3.52a.23.23 0 00-.2-.11h-.81c-.13 0-.24.11-.24.24v7.01c0 .13.11.24.24.24h.77c.13 0 .24-.11.24-.24v-4.89l2.12 3.08c.11.12.3.13.42.02l.02-.02 2.12-3.08v4.89c0 .13.11.24.24.24h.78c.13 0 .24-.11.24-.24v-7.01a.26.26 0 00-.25-.24"/><path id="Path_286" class="st2" d="M-72.49-4.07A3.792 3.792 0 00-76.3-.28v.07a3.726 3.726 0 003.54 3.91c.09 0 .18.01.27 0a3.79 3.79 0 003.81-3.78v-.1c.09-2.06-1.51-3.8-3.57-3.88-.08-.01-.16-.01-.24-.01m0 6.51a2.55 2.55 0 01-2.53-2.55v-.12c0-1.39 1.12-2.51 2.51-2.51 1.39 0 2.51 1.12 2.51 2.51.12 1.38-.91 2.6-2.29 2.71-.07.01-.14.01-.21.01"/><path id="Path_287" class="st2" d="M-55.59-3.9h-.85c-.1 0-.19.06-.22.15l-2.27 5.5-2.33-5.5a.279.279 0 00-.24-.15h-.88c-.13 0-.24.1-.24.23 0 .03.01.07.02.1l3.01 7.01c.04.09.13.14.22.14h.7c.1 0 .18-.05.22-.14l3.01-7.01c.05-.12 0-.26-.12-.31a.355.355 0 00-.1-.02"/><path id="Path_288" class="st2" d="M-43.04 2.38h-4.14V.42h3.58c.13 0 .24-.1.24-.23v-.71c0-.13-.11-.24-.24-.24h-3.58v-1.9h4.02c.13 0 .24-.11.24-.24v-.71c0-.13-.11-.24-.24-.24h-5.05c-.13 0-.24.11-.24.24V3.4c0 .13.11.24.24.24h5.16c.13 0 .24-.11.24-.24v-.73a.241.241 0 00-.18-.29h-.05"/><path id="Path_289" class="st2" d="M-28.81-3.9h-.8c-.08 0-.15.04-.2.11l-2.36 3.52-2.34-3.52a.23.23 0 00-.2-.11h-.79c-.13 0-.24.11-.24.24v7.01c0 .13.11.24.24.24h.77c.13 0 .24-.11.24-.24v-4.89l2.1 3.08c.11.12.3.13.42.02l.02-.02 2.12-3.1v4.9c0 .13.11.24.24.24h.78c.13 0 .24-.11.24-.24v-7.01c0-.13-.11-.24-.24-.24"/><path id="Path_290" class="st2" d="M-15.71 2.38h-4.08V.42h3.58c.13 0 .24-.1.24-.23v-.76c0-.13-.11-.24-.24-.24h-3.58v-1.85h4.02c.13 0 .24-.11.24-.24v-.71c0-.13-.11-.24-.24-.24h-5.06c-.13 0-.24.11-.24.24V3.4c0 .13.11.24.24.24h5.12c.13 0 .24-.11.24-.24v-.73c0-.13-.11-.24-.24-.24"/><path id="Path_291" class="st2" d="M-2.21-3.9h-.77c-.13 0-.24.11-.24.24v4.92L-7.2-3.8a.223.223 0 00-.18-.1h-.74c-.13 0-.24.11-.24.24v7.01c0 .13.11.24.24.24h.77c.13 0 .24-.11.24-.24V-1.7l4.09 5.2c.04.06.11.1.18.1h.63c.13 0 .24-.11.24-.24v-7.01c0-.13-.11-.24-.24-.24"/><path id="Path_292" class="st2" d="M10.74-3.9H5.23c-.13 0-.24.11-.24.24v.73c0 .13.11.23.24.23h2.12v6.03c0 .13.11.24.24.24h.78c.13 0 .24-.11.24-.24v-6h2.12c.13 0 .24-.11.24-.24v-.73c0-.13-.11-.24-.24-.24"/><path id="Path_293" class="st3" d="M-87.12 12.01L-89.89 8v6.06h-.83V6.57h.85l2.73 4.09 2.73-4.09h.86v7.5h-.84V7.99l-2.73 4.02z"/><path id="Path_294" class="st3" d="M-80.99 9.29a5.2 5.2 0 00-.78.29l-.25-.67c.3-.15.62-.27.94-.36.35-.09.72-.13 1.08-.13.63-.04 1.25.16 1.74.56.44.44.66 1.05.62 1.67v3.38h-.78v-.84c-.21.27-.48.49-.77.66-.37.21-.79.31-1.22.29-.26 0-.51-.04-.76-.11-.24-.07-.46-.18-.66-.32-.19-.13-.35-.31-.46-.5-.12-.23-.19-.49-.18-.76 0-.27.06-.53.18-.77.12-.22.28-.42.49-.56.23-.15.48-.27.74-.33.31-.08.63-.12.95-.11.31-.02.62-.02.93 0 .26.04.52.1.77.17v-.2c.04-.43-.12-.84-.43-1.14-.35-.27-.78-.41-1.22-.38-.33 0-.63.06-.93.16zm-.26 2.27c-.27.19-.43.51-.42.84 0 .17.03.33.11.48.08.14.18.26.31.35.13.1.29.18.45.22.17.05.35.07.53.07.26.01.52-.03.77-.11.21-.07.41-.17.59-.31.16-.13.3-.29.39-.48.1-.19.14-.39.14-.6v-.52l-.76-.14c-.3-.05-.61-.08-.91-.07-.42-.05-.84.05-1.2.27z"/><path id="Path_295" class="st3" d="M-75.51 12.49c-.03.26.06.53.25.71.19.15.43.22.67.21.14.02.27.02.41 0 .14-.04.28-.09.41-.15v.7c-.14.08-.29.14-.45.18-.18.02-.37.02-.55 0-.21 0-.42-.03-.62-.08a1.16 1.16 0 01-.5-.27c-.14-.14-.26-.3-.32-.49-.08-.23-.12-.47-.11-.71V9.26h-.77v-.7h.77v-1.7h.83v1.7h1.75v.73h-1.77v3.2z"/><path id="Path_296" class="st3" d="M-69.36 13.89c-.4.22-.86.32-1.32.31-1.16.02-2.21-.69-2.64-1.77-.28-.72-.28-1.51 0-2.23.41-1.09 1.46-1.8 2.62-1.78.24 0 .48.02.71.07.2.05.4.12.59.21.17.09.34.2.49.32.15.12.29.24.42.38l-.55.57c-.2-.22-.42-.42-.66-.59a1.78 1.78 0 00-.95-.25c-.27 0-.54.05-.78.17-.24.11-.45.27-.63.46-.18.2-.32.43-.42.69-.1.27-.16.55-.15.84 0 .29.05.57.15.84.1.25.25.49.43.69.36.39.87.62 1.4.63.33.01.66-.08.95-.24.28-.16.53-.36.74-.59l.52.49c-.25.32-.57.58-.92.78z"/><path id="Path_297" class="st3" d="M-66.88 14.06h-.82V6.25h.82v3.24c.19-.3.44-.57.73-.77.35-.22.76-.33 1.17-.31.31-.01.62.03.91.14.25.1.47.25.66.45.19.2.33.44.42.7.1.29.14.59.14.9v3.44h-.82v-3.2c.03-.44-.11-.88-.39-1.22-.29-.32-.71-.48-1.14-.45-.23 0-.45.04-.66.13-.2.08-.38.2-.53.35-.15.16-.27.34-.35.55-.08.22-.13.46-.13.7l-.01 3.16z"/><path id="Path_298" class="st3" d="M-56.97 9.08c.12-.13.26-.25.42-.35.17-.11.35-.19.54-.24.21-.06.44-.09.66-.08.57-.03 1.12.18 1.51.59.38.45.58 1.03.55 1.63v3.42h-.83v-3.21c.03-.44-.11-.88-.38-1.23-.27-.29-.66-.45-1.05-.43-.2 0-.4.04-.59.11-.19.07-.35.19-.49.33-.15.16-.26.34-.33.55-.09.23-.13.48-.13.73v3.2h-.81v-3.28c.03-.44-.11-.87-.38-1.22-.27-.3-.65-.46-1.05-.43-.21-.01-.42.04-.62.13-.19.09-.35.21-.49.36-.14.16-.25.35-.32.55-.08.23-.12.46-.11.7v3.15h-.82v-5.5h.83v.93c.1-.14.2-.27.31-.39.22-.27.52-.47.85-.57.2-.06.41-.09.62-.08.39-.02.78.09 1.11.31.28.2.51.47.66.78.1-.18.21-.32.34-.46z"/><path id="Path_299" class="st3" d="M-51.02 9.29a5.2 5.2 0 00-.78.29l-.25-.67c.3-.14.61-.25.93-.33.35-.09.72-.13 1.08-.13.63-.04 1.26.16 1.75.56.44.44.66 1.05.62 1.67v3.38h-.8v-.84c-.21.27-.48.49-.77.66-.37.21-.79.31-1.22.29-.26 0-.51-.04-.76-.11-.24-.07-.46-.18-.66-.32-.2-.15-.36-.33-.48-.55-.12-.23-.19-.49-.18-.76-.01-.27.05-.53.17-.77.12-.22.28-.42.49-.56.23-.15.48-.27.74-.33.31-.08.63-.12.95-.11.31-.02.62-.02.93 0 .26.04.52.1.77.17v-.2c.04-.43-.12-.84-.43-1.14-.35-.27-.78-.41-1.22-.38-.31.02-.6.08-.88.18zm-.27 2.27c-.27.19-.43.51-.42.84 0 .17.03.33.11.48.08.14.18.26.31.35.13.1.29.18.45.22.17.05.35.07.53.07.24 0 .48-.04.71-.11.21-.07.41-.17.59-.31.16-.13.3-.29.39-.48.09-.19.14-.39.14-.6v-.53l-.7-.14c-.3-.05-.61-.07-.91-.07-.41-.03-.84.06-1.2.28z"/><path id="Path_300" class="st3" d="M-41.64 14.06h-.98l-1.98-2.58-1.12 1.14v1.4h-.83V6.25h.83v5.4l3.01-3.1h1.07l-2.32 2.38 2.32 3.13z"/><path id="Path_301" class="st3" d="M-40.59 12.41c.11.22.25.42.43.59.18.16.38.28.6.36.22.08.46.13.7.13.34.01.69-.06 1-.21.28-.15.54-.33.76-.56l.52.46c-.27.31-.59.56-.95.76-.76.3-1.61.3-2.37.01-.33-.14-.63-.34-.88-.59-.26-.26-.46-.57-.6-.91-.15-.35-.24-.72-.25-1.09 0-.39.06-.77.2-1.14.12-.34.31-.66.55-.93.24-.26.52-.47.84-.62.69-.3 1.47-.3 2.16 0 .31.15.59.36.81.63.23.27.4.59.5.93.12.37.17.76.17 1.15v.25h-4.39c.01.27.08.53.2.78zm3.32-1.41a2.9 2.9 0 00-.15-.71c-.07-.22-.19-.42-.33-.6-.15-.17-.33-.31-.53-.41-.23-.11-.48-.16-.73-.15-.23 0-.46.04-.67.14-.21.09-.39.23-.55.39-.16.17-.29.37-.38.59-.1.24-.17.49-.2.74l3.54.01z"/><path id="Path_302" class="st3" d="M-34.72 14.06h-.83V8.55h.83v1.4c.1-.23.23-.44.38-.63s.32-.36.52-.5c.18-.12.38-.21.59-.27.24-.07.49-.11.74-.1v.88c-.29 0-.58.05-.85.15-.27.1-.51.27-.7.48-.21.23-.37.5-.48.8-.12.35-.17.72-.17 1.09l-.03 2.21z"/><path id="Path_303" class="st3" d="M-26.5 8.55v.7h-1.75v4.81h-.77V9.25h-.76v-.7h.76v-.48c-.04-.51.12-1.01.43-1.4.32-.33.77-.5 1.23-.48h.5c.14.02.28.06.41.11v.71l-.41-.1h-.39c-.64 0-.97.39-.97 1.18v.45l1.72.01z"/><path id="Path_304" class="st3" d="M-20.93 12.41c-.14.34-.35.66-.6.93a2.835 2.835 0 01-2.08.85c-.39.01-.79-.07-1.15-.22a2.83 2.83 0 01-1.51-1.53c-.28-.72-.28-1.51 0-2.23.26-.69.79-1.25 1.46-1.56.37-.15.77-.23 1.17-.22.39-.01.79.07 1.15.22a2.83 2.83 0 011.51 1.53c.14.35.21.73.21 1.11.02.37-.04.76-.16 1.12zm-.79-1.95c-.1-.25-.25-.49-.43-.69-.19-.2-.41-.35-.66-.46a2.064 2.064 0 00-1.64 0c-.24.11-.46.27-.63.46-.18.2-.32.44-.41.69-.2.54-.2 1.14 0 1.68.19.51.58.93 1.08 1.15a2.064 2.064 0 001.64 0c.24-.1.46-.26.64-.45.18-.2.32-.42.42-.67.2-.54.2-1.14 0-1.68l-.01-.03z"/><path id="Path_305" class="st3" d="M-19.01 14.06h-.83V8.55h.83v1.4c.1-.23.23-.44.38-.63s.32-.36.52-.5c.19-.14.4-.25.63-.32.24-.07.49-.11.74-.1v.88c-.29 0-.58.05-.85.15-.27.1-.51.27-.7.48-.21.23-.37.5-.48.8-.12.35-.17.72-.17 1.09l-.07 2.26z"/><path id="Path_306" class="st3" d="M-8.61 14.28c-.12.32-.32.61-.57.84-.26.23-.56.4-.88.5-.38.12-.77.17-1.17.17-.45 0-.9-.06-1.33-.2-.43-.13-.83-.32-1.19-.57l.38-.64c.31.22.65.4 1.01.52s.74.18 1.12.18c.51.01 1.01-.17 1.4-.5.37-.37.57-.88.55-1.4v-.7c-.24.32-.54.6-.88.83-.39.24-.84.35-1.29.33-.33 0-.66-.06-.97-.18-.64-.26-1.15-.76-1.4-1.4-.15-.34-.23-.72-.22-1.09 0-.38.07-.75.22-1.09a2.52 2.52 0 011.43-1.35c.56-.17 1.16-.16 1.71.03.21.05.4.13.59.24.16.08.32.2.47.33.14.13.27.28.39.43V8.55h.83v4.57c0 .4-.06.79-.2 1.16zm-.78-4.03c-.11-.22-.26-.42-.45-.59-.19-.16-.41-.29-.64-.38-.24-.09-.5-.14-.76-.14-.25 0-.51.04-.74.13-.46.16-.83.52-1.02.97-.1.24-.16.51-.15.77-.02.53.19 1.04.57 1.4.18.17.39.29.62.38.23.09.48.14.73.14.26 0 .52-.05.76-.14.24-.09.45-.21.64-.38.19-.16.34-.36.45-.59.23-.49.23-1.06 0-1.56v-.01z"/><path id="Path_307" class="st3" d="M-1.97 12.41c-.14.34-.34.66-.6.93a2.835 2.835 0 01-2.08.85c-.39.01-.79-.07-1.15-.22a2.68 2.68 0 01-.91-.62c-.26-.26-.46-.57-.6-.91-.28-.72-.28-1.51 0-2.23.27-.7.82-1.26 1.52-1.56 1.1-.47 2.38-.23 3.22.62.26.26.46.57.6.91.29.71.29 1.51 0 2.23zm-.79-1.95c-.1-.25-.25-.49-.43-.69-.19-.2-.41-.35-.66-.46-.26-.11-.54-.17-.82-.17-.28 0-.57.05-.83.17-.24.11-.46.26-.63.46-.18.2-.31.44-.41.69-.1.27-.16.55-.15.84 0 .29.05.57.15.84.1.26.25.49.43.69.18.19.4.35.64.46a2.064 2.064 0 001.64 0c.24-.1.46-.26.64-.45.18-.2.32-.42.42-.67.2-.54.2-1.14 0-1.68l.01-.03z"/><path id="Path_308" class="st3" d="M4.35 12.41c-.14.34-.34.66-.6.93a2.835 2.835 0 01-2.08.85c-.39.01-.79-.07-1.15-.22a2.68 2.68 0 01-.91-.62c-.26-.26-.46-.57-.6-.91-.28-.72-.28-1.51 0-2.23.28-.7.82-1.26 1.51-1.56 1.1-.47 2.38-.23 3.22.62.26.26.47.57.61.91.29.71.29 1.51 0 2.23zm-.79-1.95c-.1-.25-.25-.49-.43-.69-.19-.2-.41-.35-.66-.46-.26-.11-.54-.17-.82-.17-.28 0-.57.05-.83.17-.23.11-.45.27-.62.46-.18.2-.31.44-.41.69-.1.27-.16.55-.15.84 0 .29.05.57.15.84.1.26.25.49.43.69.18.19.4.35.64.46a2.064 2.064 0 001.64 0c.24-.1.46-.26.64-.45.18-.2.32-.42.42-.67.2-.54.2-1.14 0-1.68v-.03z"/><path id="Path_309" class="st3" d="M9.92 14.06v-1.11c-.11.17-.24.33-.38.48-.14.15-.29.28-.46.39-.18.12-.38.21-.58.27-.23.07-.46.1-.7.1a2.63 2.63 0 01-2.41-1.67c-.3-.79-.3-1.65 0-2.44.14-.34.34-.65.6-.91.24-.25.53-.44.84-.57.31-.13.64-.2.97-.2.24 0 .47.03.7.1.2.06.4.14.57.25.17.11.33.24.47.38.13.14.25.29.36.45V6.25h.83v7.81h-.81zm-.14-3.65c-.1-.25-.26-.48-.45-.67-.19-.18-.4-.33-.64-.43-.24-.11-.49-.16-.75-.16s-.52.04-.76.14c-.23.1-.44.24-.61.42-.18.19-.32.42-.42.67-.1.31-.14.64-.11.97 0 .3.05.6.15.88.09.25.24.48.42.67.17.19.38.33.62.43.23.1.49.15.74.15.26 0 .51-.05.74-.15.24-.1.46-.25.64-.43.19-.19.35-.42.45-.67.11-.28.17-.58.17-.88 0-.32-.06-.64-.19-.94z"/><path id="Path_310" class="st3" d="M11.64 7.81h-.14V6.4h-.52v-.16h1.22v.16h-.56v1.41z"/><path id="Path_311" class="st3" d="M13.2 7.39l-.57-.83v1.26h-.17V6.25h.18l.57.85.57-.85h.18v1.56h-.18V6.54l-.58.85z"/></g></g></svg>
