<svg xmlns="http://www.w3.org/2000/svg" width="95.441" height="94.168" viewBox="0 0 95.441 94.168">
  <g id="logo_16" data-name="logo 16" transform="translate(-249.517 -422.918)">
    <g id="Group_22" data-name="Group 22">
      <path id="Path_277" data-name="Path 277" d="M312.984,440.453a16.518,16.518,0,1,1-16.517-16.518,16.518,16.518,0,0,1,16.517,16.518" fill="#fe0"/>
      <path id="Path_278" data-name="Path 278" d="M296.467,422.918A17.535,17.535,0,1,0,314,440.454a17.557,17.557,0,0,0-17.535-17.536m0,34.036a16.518,16.518,0,1,1,16.519-16.518,16.519,16.519,0,0,1-16.519,16.518" fill="#0a0406"/>
      <path id="Path_279" data-name="Path 279" d="M292.85,432.89c0,1.333-.439,2.413-.982,2.413s-.982-1.08-.982-2.413.441-2.409.982-2.409.982,1.08.982,2.409" fill="#0a0406"/>
      <path id="Path_280" data-name="Path 280" d="M301.645,432.89c0,1.333-.439,2.413-.983,2.413s-.981-1.08-.981-2.413.44-2.409.981-2.409.983,1.08.983,2.409" fill="#0a0406"/>
      <path id="Path_281" data-name="Path 281" d="M296.821,452.159c-6.148,0-10.08-5.548-11.72-8.654-.885-1.677-.648-2.106-.339-2.623.217-.36.244-.47.192-.575-.06-.131-.3-.014-.576.183a3.383,3.383,0,0,0-1.039,1.031,5.1,5.1,0,0,0-.374,1.388c-.062.437-.041.657.1.684.093.017.188-.1.315-.395.306-.69.623-.618,1.127.265,1.809,3.177,5.6,9.6,12.312,9.6,6.34,0,9.79-5.991,10.954-8.059.679-1.209.909-.664,1.214-.053.227.454.554.387.492-.1a9.485,9.485,0,0,0-1.267-3.7c-.362-.534-.58-.346-.49.189a6.361,6.361,0,0,1,.231,1.446,4.3,4.3,0,0,1-.567,1.834c-1.517,2.989-5.115,7.538-10.561,7.538" fill="#0a0406"/>
      <path id="Path_282" data-name="Path 282" d="M312.5,454.946v-.012a2.024,2.024,0,1,1,4.047-.012v.012a2.024,2.024,0,1,1-4.047.012m3.815-.012v-.012a1.792,1.792,0,1,0-3.583.012v.012a1.78,1.78,0,0,0,1.791,1.8,1.8,1.8,0,0,0,1.792-1.814m-2.583-1.07h.931c.453,0,.791.221.791.65a.622.622,0,0,1-.477.629l.546.779h-.477l-.488-.709h-.43v.709h-.4Zm.9,1.023c.268,0,.418-.14.418-.337,0-.221-.15-.338-.418-.338h-.5v.675Z" fill="#0a0406"/>
      <g id="Group_20" data-name="Group 20">
        <path id="Path_283" data-name="Path 283" d="M256.285,497.475c-4.364,0-6.768-2.4-6.768-6.767v-6.495a1.113,1.113,0,0,1,1.113-1.11h3.446a1.113,1.113,0,0,1,1.113,1.11v6.631c0,.974.253,1.228,1.23,1.228h.709c.975,0,1.227-.254,1.227-1.228V486.2a2.086,2.086,0,0,0-1.1-2.065l-4.319-3.132a7.23,7.23,0,0,1-3.422-6.645v-3.713c0-4.483,2.373-6.854,6.859-6.854h.882c4.364,0,6.768,2.4,6.768,6.767v5.568a1.112,1.112,0,0,1-1.113,1.112h-3.446a1.112,1.112,0,0,1-1.112-1.112v-5.7c0-.978-.252-1.23-1.227-1.23h-.622c-.978,0-1.229.252-1.229,1.23v3.891a2.112,2.112,0,0,0,1.14,2.065l4.276,3.082a7.227,7.227,0,0,1,3.42,6.645v4.508c0,4.487-2.37,6.854-6.855,6.854Z" fill="#0a0406"/>
        <path id="Path_284" data-name="Path 284" d="M292.2,497.211a1.108,1.108,0,0,1-1.109-1.108V465.174a1.112,1.112,0,0,1,1.109-1.115h3.532a1.115,1.115,0,0,1,1.115,1.115V496.1a1.111,1.111,0,0,1-1.115,1.108Z" fill="#0a0406"/>
        <path id="Path_285" data-name="Path 285" d="M301.412,497.211A1.109,1.109,0,0,1,300.3,496.1V465.174a1.113,1.113,0,0,1,1.112-1.115h3.532a1.116,1.116,0,0,1,1.115,1.115V491.72h4.721a1.11,1.11,0,0,1,1.109,1.109V496.1a1.109,1.109,0,0,1-1.109,1.108Z" fill="#0a0406"/>
        <path id="Path_286" data-name="Path 286" d="M315.26,497.211a1.11,1.11,0,0,1-1.113-1.108V465.174a1.114,1.114,0,0,1,1.113-1.115h9.718a1.116,1.116,0,0,1,1.113,1.115v3.267a1.112,1.112,0,0,1-1.113,1.111H319.9v8.027h4.855a1.113,1.113,0,0,1,1.112,1.112v3.226a1.112,1.112,0,0,1-1.112,1.113H319.9v8.69h5.161a1.112,1.112,0,0,1,1.115,1.109V496.1a1.111,1.111,0,0,1-1.115,1.108Z" fill="#0a0406"/>
        <path id="Path_287" data-name="Path 287" d="M343.178,464.488a1.109,1.109,0,0,0-.877-.429h-3.489a1.112,1.112,0,0,0-1.087.878l-2.158,10.014-2.075-10a1.109,1.109,0,0,0-1.087-.889h-3.623a1.12,1.12,0,0,0-1.081,1.381l4.961,20.191V496.1a1.112,1.112,0,0,0,1.113,1.108h3.534a1.109,1.109,0,0,0,1.111-1.108V485.587l4.963-20.147a1.11,1.11,0,0,0-.2-.952" fill="#0a0406"/>
        <path id="Path_288" data-name="Path 288" d="M286.5,464.059h-4.872a1.16,1.16,0,0,0-1.15.98l-3.2,19.859-3.2-19.86a1.162,1.162,0,0,0-1.151-.979h-4.961a1.167,1.167,0,0,0-1.166,1.167v30.819a1.167,1.167,0,0,0,1.166,1.166h2.645a1.167,1.167,0,0,0,1.166-1.166V479.689l2.744,16.546a1.161,1.161,0,0,0,1.151.976H278.7a1.164,1.164,0,0,0,1.151-.975l2.744-16.547v16.356a1.167,1.167,0,0,0,1.165,1.166H286.5a1.167,1.167,0,0,0,1.166-1.166V465.226a1.167,1.167,0,0,0-1.166-1.167" fill="#0a0406"/>
        <path id="Path_289" data-name="Path 289" d="M340.913,495.43v-.012a2.023,2.023,0,1,1,4.045-.012v.012a2.023,2.023,0,1,1-4.045.012m3.813-.012v-.012a1.79,1.79,0,1,0-3.58.012v.012a1.79,1.79,0,1,0,3.58-.012m-2.58-1.07h.929c.454,0,.79.221.79.652a.619.619,0,0,1-.476.627l.546.779h-.476l-.488-.709h-.43v.709h-.395Zm.895,1.023c.268,0,.418-.139.418-.337,0-.221-.15-.337-.418-.337h-.5v.674Z" fill="#1a1718"/>
      </g>
      <g id="Group_21" data-name="Group 21">
        <path id="Path_290" data-name="Path 290" d="M249.517,516.878V504.113h3.372l2.651,4.678a36.888,36.888,0,0,1,2.083,4.375h.057a47.483,47.483,0,0,1-.246-5.322v-3.731h2.652v12.765h-3.031l-2.727-4.924a47.4,47.4,0,0,1-2.216-4.508l-.057.019c.076,1.685.114,3.485.114,5.568v3.845Z" fill="#1a1818"/>
        <path id="Path_291" data-name="Path 291" d="M271.375,511.48h-4.7v3.03h5.246v2.368h-8.143V504.113h7.878v2.367h-4.981v2.652h4.7Z" fill="#1a1818"/>
        <path id="Path_292" data-name="Path 292" d="M277.645,506.537h-3.428v-2.424h9.811v2.424h-3.485v10.341h-2.9Z" fill="#1a1818"/>
        <path id="Path_293" data-name="Path 293" d="M289.351,516.878l-3.03-12.765h3.087l.966,5.265c.284,1.515.549,3.162.757,4.451h.038c.208-1.383.511-2.917.833-4.489l1.08-5.227h3.068l1.023,5.378c.284,1.5.492,2.86.682,4.281h.038c.189-1.421.473-2.917.738-4.432l1.042-5.227h2.935l-3.3,12.765h-3.125l-1.079-5.493c-.247-1.288-.455-2.481-.606-3.939h-.038c-.228,1.439-.436,2.651-.739,3.939l-1.212,5.493Z" fill="#1a1818"/>
        <path id="Path_294" data-name="Path 294" d="M316.834,510.362c0,4.186-2.538,6.724-6.269,6.724-3.787,0-6-2.86-6-6.5,0-3.826,2.443-6.686,6.211-6.686C314.694,503.9,316.834,506.84,316.834,510.362Zm-9.223.171c0,2.5,1.174,4.262,3.106,4.262,1.951,0,3.068-1.857,3.068-4.338,0-2.291-1.1-4.261-3.087-4.261C308.747,506.2,307.611,508.052,307.611,510.533Z" fill="#1a1818"/>
        <path id="Path_295" data-name="Path 295" d="M319.923,504.283a25.44,25.44,0,0,1,3.845-.265,6.513,6.513,0,0,1,4.129,1,3.241,3.241,0,0,1,1.174,2.67,3.387,3.387,0,0,1-2.254,3.144v.057a3.217,3.217,0,0,1,1.7,2.386c.4,1.439.8,3.106,1.042,3.6h-2.954a15.951,15.951,0,0,1-.89-2.974c-.341-1.59-.89-2.026-2.065-2.045h-.871v5.019h-2.86Zm2.86,5.493h1.137c1.439,0,2.291-.72,2.291-1.838,0-1.174-.8-1.761-2.121-1.78a7.182,7.182,0,0,0-1.307.1Z" fill="#1a1818"/>
        <path id="Path_296" data-name="Path 296" d="M332.349,504.113h2.86v5.643h.057c.284-.492.587-.946.871-1.4l2.9-4.242h3.541l-4.223,5.435,4.451,7.33h-3.372l-3.124-5.512-1.1,1.345v4.167h-2.86Z" fill="#1a1818"/>
      </g>
    </g>
  </g>
</svg>
