<svg xmlns="http://www.w3.org/2000/svg" width="102.382" height="34.574" viewBox="0 0 102.382 34.574">
  <g id="logo_15" data-name="logo 15" transform="translate(-25.194 -459.65)">
    <g id="Group_17" data-name="Group 17">
      <path id="Path_258" data-name="Path 258" d="M29.608,481.495c-2.83,0-4.391-1.557-4.391-4.388v-4.214a.724.724,0,0,1,.723-.721h2.235a.723.723,0,0,1,.722.721v4.3c0,.632.165.8.8.8h.459c.633,0,.8-.164.8-.8v-3.01a1.354,1.354,0,0,0-.71-1.34l-2.8-2.03a4.694,4.694,0,0,1-2.22-4.311V464.1c0-2.907,1.54-4.445,4.449-4.445h.574c2.83,0,4.389,1.56,4.389,4.389v3.612a.722.722,0,0,1-.722.721H31.672a.722.722,0,0,1-.722-.721v-3.7c0-.635-.163-.8-.8-.8h-.4c-.634,0-.8.164-.8.8v2.522a1.367,1.367,0,0,0,.74,1.339l2.772,2a4.685,4.685,0,0,1,2.219,4.309v2.925c0,2.909-1.538,4.445-4.445,4.445Z" fill="#0a0406"/>
      <path id="Path_259" data-name="Path 259" d="M52.9,481.324a.719.719,0,0,1-.72-.719v-20.06a.721.721,0,0,1,.72-.723h2.291a.723.723,0,0,1,.723.723v20.06a.721.721,0,0,1-.723.719Z" fill="#0a0406"/>
      <path id="Path_260" data-name="Path 260" d="M58.876,481.324a.72.72,0,0,1-.721-.719v-20.06a.721.721,0,0,1,.721-.723h2.291a.723.723,0,0,1,.723.723v17.218h3.062a.719.719,0,0,1,.72.719v2.123a.721.721,0,0,1-.72.719Z" fill="#0a0406"/>
      <path id="Path_261" data-name="Path 261" d="M67.858,481.324a.72.72,0,0,1-.722-.719v-20.06a.721.721,0,0,1,.722-.723h6.3a.724.724,0,0,1,.722.723v2.119a.722.722,0,0,1-.722.721H70.87v5.206h3.149a.722.722,0,0,1,.721.722V471.4a.72.72,0,0,1-.721.72H70.87v5.638h3.348a.719.719,0,0,1,.723.719v2.123a.721.721,0,0,1-.723.719Z" fill="#0a0406"/>
      <path id="Path_262" data-name="Path 262" d="M85.965,460.1a.719.719,0,0,0-.569-.278H83.133a.719.719,0,0,0-.705.57l-1.4,6.495L79.682,460.4a.718.718,0,0,0-.705-.576h-2.35a.715.715,0,0,0-.566.278.723.723,0,0,0-.134.617l3.217,13.1v6.792a.721.721,0,0,0,.723.719h2.291a.72.72,0,0,0,.721-.719v-6.82L86.1,460.717a.719.719,0,0,0-.133-.617" fill="#0a0406"/>
      <path id="Path_263" data-name="Path 263" d="M49.205,459.822H46.046a.755.755,0,0,0-.747.636l-2.076,12.879-2.077-12.88a.754.754,0,0,0-.747-.635H37.181a.758.758,0,0,0-.756.757v19.988a.758.758,0,0,0,.756.757H38.9a.757.757,0,0,0,.757-.757V469.959l1.779,10.731a.754.754,0,0,0,.746.634h1.969a.754.754,0,0,0,.747-.633l1.779-10.732v10.608a.758.758,0,0,0,.757.757h1.774a.757.757,0,0,0,.756-.757V460.579a.758.758,0,0,0-.756-.757" fill="#0a0406"/>
    </g>
    <g id="Group_18" data-name="Group 18">
      <path id="Path_264" data-name="Path 264" d="M124.082,476.955a16.142,16.142,0,1,1-16.141-16.141,16.143,16.143,0,0,1,16.141,16.141" fill="#fe0"/>
      <path id="Path_265" data-name="Path 265" d="M107.941,459.821a17.135,17.135,0,1,0,17.135,17.136,17.155,17.155,0,0,0-17.135-17.136m0,33.259a16.141,16.141,0,1,1,16.142-16.141,16.142,16.142,0,0,1-16.142,16.141" fill="#0a0406"/>
      <path id="Path_266" data-name="Path 266" d="M104.406,469.565c0,1.3-.428,2.358-.96,2.358s-.96-1.055-.96-2.358.432-2.354.96-2.354.96,1.055.96,2.354" fill="#0a0406"/>
      <path id="Path_267" data-name="Path 267" d="M113,469.565c0,1.3-.429,2.358-.96,2.358s-.96-1.055-.96-2.358.43-2.354.96-2.354.96,1.055.96,2.354" fill="#0a0406"/>
      <path id="Path_268" data-name="Path 268" d="M108.287,488.395c-6.009,0-9.85-5.422-11.454-8.457-.864-1.638-.632-2.057-.329-2.563.21-.352.237-.46.187-.562-.06-.129-.294-.014-.564.178A3.262,3.262,0,0,0,95.113,478a4.938,4.938,0,0,0-.367,1.357c-.061.426-.04.641.1.668.09.016.183-.1.308-.386.3-.673.608-.6,1.1.259,1.767,3.105,5.468,9.386,12.031,9.386,6.195,0,9.566-5.854,10.7-7.876.665-1.181.888-.648,1.187-.052.221.445.541.379.479-.1a9.267,9.267,0,0,0-1.236-3.618c-.355-.521-.567-.337-.481.186a6.132,6.132,0,0,1,.227,1.412,4.206,4.206,0,0,1-.554,1.792c-1.483,2.921-5,7.367-10.32,7.367" fill="#0a0406"/>
      <path id="Path_269" data-name="Path 269" d="M123.587,492.082v-.011a1.995,1.995,0,1,1,3.989-.012v.012a1.995,1.995,0,1,1-3.989.011m3.76-.011v-.012a1.766,1.766,0,1,0-3.531.012v.011a1.753,1.753,0,0,0,1.765,1.777,1.771,1.771,0,0,0,1.766-1.788m-2.545-1.055h.916c.447,0,.78.218.78.642a.612.612,0,0,1-.469.619l.538.768h-.47l-.481-.7h-.425v.7H124.8Zm.882,1.008c.264,0,.413-.137.413-.332,0-.217-.149-.333-.413-.333h-.493v.665Z" fill="#0a0406"/>
    </g>
    <g id="Group_19" data-name="Group 19">
      <path id="Path_270" data-name="Path 270" d="M25.194,494.089v-8.283h2.187l1.721,3.036a24.1,24.1,0,0,1,1.352,2.838h.036a30.709,30.709,0,0,1-.159-3.453v-2.421h1.72v8.283H30.085l-1.77-3.195a30.775,30.775,0,0,1-1.437-2.925l-.037.013c.049,1.093.074,2.26.074,3.612v2.495Z" fill="#1a1818"/>
      <path id="Path_271" data-name="Path 271" d="M39.376,490.587H36.328v1.966h3.4v1.536H34.448v-8.283H39.56v1.536H36.328v1.721h3.048Z" fill="#1a1818"/>
      <path id="Path_272" data-name="Path 272" d="M43.444,487.379H41.22v-1.573h6.365v1.573H45.324v6.71h-1.88Z" fill="#1a1818"/>
      <path id="Path_273" data-name="Path 273" d="M51.039,494.089l-1.966-8.283h2l.626,3.417c.185.983.357,2.052.492,2.887h.025c.135-.9.331-1.892.54-2.912l.7-3.392H55.45l.664,3.49c.184.971.319,1.856.442,2.778h.025c.123-.922.307-1.893.479-2.876l.676-3.392h1.9L57.5,494.089H55.475l-.7-3.564c-.159-.835-.295-1.61-.393-2.556h-.024c-.148.934-.283,1.721-.48,2.556l-.786,3.564Z" fill="#1a1818"/>
      <path id="Path_274" data-name="Path 274" d="M68.87,489.861c0,2.716-1.646,4.363-4.067,4.363-2.458,0-3.9-1.856-3.9-4.215a4.009,4.009,0,0,1,4.03-4.338C67.482,485.671,68.87,487.576,68.87,489.861Zm-5.984.111c0,1.622.762,2.765,2.015,2.765s1.991-1.2,1.991-2.814c0-1.487-.713-2.765-2-2.765C63.623,487.158,62.886,488.362,62.886,489.972Z" fill="#1a1818"/>
      <path id="Path_275" data-name="Path 275" d="M70.875,485.917a16.494,16.494,0,0,1,2.494-.172,4.227,4.227,0,0,1,2.679.651,2.1,2.1,0,0,1,.762,1.733,2.2,2.2,0,0,1-1.463,2.04v.037a2.086,2.086,0,0,1,1.106,1.548c.258.934.517,2.015.676,2.335H75.212a10.358,10.358,0,0,1-.577-1.93c-.221-1.032-.578-1.314-1.34-1.327H72.73v3.257H70.875Zm1.855,3.564h.737c.934,0,1.487-.467,1.487-1.192,0-.762-.516-1.143-1.376-1.155a4.743,4.743,0,0,0-.848.061Z" fill="#1a1818"/>
      <path id="Path_276" data-name="Path 276" d="M78.937,485.806h1.855v3.662h.037c.184-.319.381-.614.565-.909l1.88-2.753h2.3l-2.74,3.527,2.888,4.756H83.532L81.5,490.513l-.713.872v2.7H78.937Z" fill="#1a1818"/>
    </g>
  </g>
</svg>
