<svg xmlns="http://www.w3.org/2000/svg" width="95.476" height="94.155" viewBox="0 0 95.476 94.155">
  <g id="logo_12" data-name="logo 12" transform="translate(-249.517 -300.339)">
    <g id="Group_15" data-name="Group 15">
      <path id="Path_241" data-name="Path 241" d="M256.811,394.3V381.564h3.365l2.647,4.669A36.911,36.911,0,0,1,264.9,390.6h.057a47.294,47.294,0,0,1-.246-5.312v-3.724h2.646V394.3h-3.024l-2.722-4.915a47.441,47.441,0,0,1-2.212-4.5l-.056.019c.075,1.682.113,3.478.113,5.557V394.3Z" fill="#1a1818"/>
      <path id="Path_242" data-name="Path 242" d="M287.828,388.917H283.14v3.025h5.236V394.3h-8.128V381.564h7.864v2.363H283.14v2.646h4.688Z" fill="#1a1818"/>
      <path id="Path_243" data-name="Path 243" d="M302.929,394.3,299.9,381.564h3.081l.964,5.255c.284,1.512.549,3.157.757,4.442h.037c.208-1.38.511-2.911.832-4.48l1.078-5.217h3.062l1.021,5.369c.283,1.493.491,2.854.68,4.271h.038c.189-1.417.473-2.911.737-4.423l1.04-5.217h2.93L312.872,394.3h-3.119l-1.078-5.482c-.246-1.286-.454-2.477-.6-3.932h-.037c-.227,1.437-.435,2.646-.738,3.932l-1.209,5.482Z" fill="#1a1818"/>
      <path id="Path_244" data-name="Path 244" d="M327.991,391.337a7.346,7.346,0,0,0,3.194.794c1.323,0,2.023-.549,2.023-1.38,0-.794-.605-1.248-2.136-1.8-2.117-.737-3.5-1.909-3.5-3.761,0-2.175,1.816-3.838,4.821-3.838a7.806,7.806,0,0,1,3.251.643L335,384.324a6.057,6.057,0,0,0-2.666-.605c-1.247,0-1.852.567-1.852,1.229,0,.812.718,1.171,2.363,1.8,2.249.832,3.308,2,3.308,3.8,0,2.136-1.645,3.951-5.142,3.951a8.332,8.332,0,0,1-3.61-.775Z" fill="#1a1818"/>
    </g>
    <path id="Path_245" data-name="Path 245" d="M256.288,374.923c-4.366,0-6.771-2.4-6.771-6.769v-6.5a1.114,1.114,0,0,1,1.114-1.111h3.447a1.114,1.114,0,0,1,1.113,1.111v6.633c0,.975.253,1.229,1.23,1.229h.71c.975,0,1.228-.254,1.228-1.229v-4.642a2.086,2.086,0,0,0-1.1-2.066l-4.321-3.133a7.233,7.233,0,0,1-3.423-6.648v-3.714c0-4.484,2.373-6.856,6.861-6.856h.883c4.366,0,6.771,2.406,6.771,6.769v5.57a1.113,1.113,0,0,1-1.114,1.112h-3.447a1.111,1.111,0,0,1-1.112-1.112v-5.7c0-.978-.253-1.231-1.228-1.231h-.622c-.979,0-1.23.253-1.23,1.231v3.892a2.112,2.112,0,0,0,1.14,2.066l4.278,3.083a7.23,7.23,0,0,1,3.421,6.647v4.51c0,4.489-2.371,6.857-6.857,6.857Z" fill="#0a0406"/>
    <path id="Path_246" data-name="Path 246" d="M292.218,374.659a1.109,1.109,0,0,1-1.11-1.109V342.61a1.112,1.112,0,0,1,1.11-1.115h3.533a1.115,1.115,0,0,1,1.115,1.115v30.94a1.112,1.112,0,0,1-1.115,1.109Z" fill="#0a0406"/>
    <path id="Path_247" data-name="Path 247" d="M301.431,374.659a1.11,1.11,0,0,1-1.112-1.109V342.61a1.113,1.113,0,0,1,1.112-1.115h3.534a1.116,1.116,0,0,1,1.115,1.115v26.556H310.8a1.11,1.11,0,0,1,1.11,1.109v3.275a1.11,1.11,0,0,1-1.11,1.109Z" fill="#0a0406"/>
    <path id="Path_248" data-name="Path 248" d="M315.284,374.659a1.11,1.11,0,0,1-1.113-1.109V342.61a1.114,1.114,0,0,1,1.113-1.115h9.722a1.116,1.116,0,0,1,1.113,1.115v3.268a1.112,1.112,0,0,1-1.113,1.112H319.93v8.03h4.857a1.113,1.113,0,0,1,1.112,1.112v3.227a1.113,1.113,0,0,1-1.112,1.114H319.93v8.693h5.163a1.112,1.112,0,0,1,1.115,1.109v3.275a1.112,1.112,0,0,1-1.115,1.109Z" fill="#0a0406"/>
    <path id="Path_249" data-name="Path 249" d="M343.213,341.924a1.112,1.112,0,0,0-.877-.43h-3.492a1.114,1.114,0,0,0-1.087.879L335.6,352.391l-2.075-10.007a1.111,1.111,0,0,0-1.088-.89h-3.624a1.122,1.122,0,0,0-1.081,1.382l4.962,20.2V373.55a1.112,1.112,0,0,0,1.114,1.108h3.536a1.11,1.11,0,0,0,1.111-1.108V363.031l4.965-20.155a1.11,1.11,0,0,0-.2-.952" fill="#0a0406"/>
    <path id="Path_250" data-name="Path 250" d="M286.515,341.495h-4.874a1.16,1.16,0,0,0-1.151.98l-3.2,19.866-3.2-19.867a1.161,1.161,0,0,0-1.151-.979h-4.964a1.167,1.167,0,0,0-1.166,1.167v30.831a1.167,1.167,0,0,0,1.166,1.166h2.646a1.167,1.167,0,0,0,1.167-1.166V357.13l2.745,16.552a1.162,1.162,0,0,0,1.151.977h3.037a1.164,1.164,0,0,0,1.151-.976l2.745-16.553v16.363a1.167,1.167,0,0,0,1.166,1.166h2.738a1.167,1.167,0,0,0,1.166-1.166V342.662a1.167,1.167,0,0,0-1.166-1.167" fill="#0a0406"/>
    <path id="Path_251" data-name="Path 251" d="M313.007,317.879a16.524,16.524,0,1,1-16.523-16.523,16.524,16.524,0,0,1,16.523,16.523" fill="#fe0"/>
    <path id="Path_252" data-name="Path 252" d="M296.484,300.339a17.541,17.541,0,1,0,17.542,17.541,17.562,17.562,0,0,0-17.542-17.541m0,34.048a16.524,16.524,0,1,1,16.525-16.524,16.525,16.525,0,0,1-16.525,16.524" fill="#0a0406"/>
    <path id="Path_253" data-name="Path 253" d="M292.866,310.314c0,1.334-.44,2.414-.983,2.414s-.981-1.08-.981-2.414.44-2.41.981-2.41.983,1.081.983,2.41" fill="#0a0406"/>
    <path id="Path_254" data-name="Path 254" d="M301.664,310.314c0,1.334-.439,2.414-.983,2.414s-.981-1.08-.981-2.414.44-2.41.981-2.41.983,1.081.983,2.41" fill="#0a0406"/>
    <path id="Path_255" data-name="Path 255" d="M296.838,329.59c-6.15,0-10.084-5.55-11.724-8.657-.885-1.677-.648-2.107-.339-2.624.217-.36.244-.47.192-.575-.06-.132-.3-.014-.577.183a3.38,3.38,0,0,0-1.038,1.031,5.081,5.081,0,0,0-.375,1.389c-.062.437-.041.657.1.684.092.017.187-.1.315-.395.306-.69.623-.619,1.127.265,1.81,3.179,5.6,9.609,12.316,9.609,6.343,0,9.794-5.994,10.958-8.063.68-1.209.909-.664,1.215-.053.227.455.554.388.492-.1a9.49,9.49,0,0,0-1.267-3.7c-.363-.534-.581-.346-.49.189a6.44,6.44,0,0,1,.231,1.447,4.3,4.3,0,0,1-.567,1.834c-1.518,2.99-5.118,7.541-10.566,7.541" fill="#0a0406"/>
    <path id="Path_256" data-name="Path 256" d="M312.523,332.378v-.012a2.024,2.024,0,1,1,4.048-.012v.012a2.024,2.024,0,1,1-4.048.012m3.816-.012v-.012a1.792,1.792,0,1,0-3.584.012v.012a1.792,1.792,0,1,0,3.584-.012m-2.583-1.07h.931c.453,0,.791.221.791.65a.621.621,0,0,1-.477.629l.547.78h-.478l-.488-.71h-.431v.71h-.395Zm.9,1.023c.268,0,.418-.139.418-.337,0-.221-.15-.338-.418-.338h-.5v.675Z" fill="#0a0406"/>
    <path id="Path_257" data-name="Path 257" d="M340.947,372.877v-.012a2.023,2.023,0,1,1,4.046-.012v.012a2.023,2.023,0,1,1-4.046.012m3.814-.012v-.012a1.791,1.791,0,1,0-3.582.012v.012a1.791,1.791,0,1,0,3.582-.012m-2.581-1.07h.93c.453,0,.79.221.79.652a.619.619,0,0,1-.476.627l.546.78h-.476l-.489-.71h-.429v.71h-.4Zm.9,1.023c.268,0,.419-.139.419-.337,0-.221-.151-.337-.419-.337h-.5v.674Z" fill="#1a1718"/>
  </g>
</svg>
