<svg xmlns="http://www.w3.org/2000/svg" width="104.945" height="35.443" viewBox="0 0 104.945 35.443">
  <g id="logo_11" data-name="logo 11" transform="translate(-25.194 -339.664)">
    <g id="Group_11" data-name="Group 11">
      <path id="Path_224" data-name="Path 224" d="M29.695,362.061c-2.9,0-4.5-1.6-4.5-4.5v-4.32a.741.741,0,0,1,.741-.739h2.292a.741.741,0,0,1,.74.739v4.409c0,.648.169.817.818.817h.471c.649,0,.816-.169.816-.817v-3.086a1.389,1.389,0,0,0-.729-1.374L27.47,351.11a4.81,4.81,0,0,1-2.276-4.42v-2.469c0-2.981,1.579-4.557,4.561-4.557h.588c2.9,0,4.5,1.6,4.5,4.5v3.7a.739.739,0,0,1-.74.739H31.812a.74.74,0,0,1-.74-.739v-3.789c0-.651-.167-.819-.816-.819h-.413c-.651,0-.818.168-.818.819v2.586a1.4,1.4,0,0,0,.759,1.373l2.842,2.049a4.805,4.805,0,0,1,2.275,4.419v3c0,2.983-1.577,4.558-4.558,4.558Z" fill="#0a0406"/>
      <path id="Path_225" data-name="Path 225" d="M53.579,361.886a.737.737,0,0,1-.738-.738V340.582a.74.74,0,0,1,.738-.742h2.349a.742.742,0,0,1,.742.742v20.566a.74.74,0,0,1-.742.738Z" fill="#0a0406"/>
      <path id="Path_226" data-name="Path 226" d="M59.7,361.886a.738.738,0,0,1-.739-.738V340.582a.74.74,0,0,1,.739-.742h2.349a.742.742,0,0,1,.741.742v17.652h3.14a.738.738,0,0,1,.738.737v2.177a.739.739,0,0,1-.738.738Z" fill="#0a0406"/>
      <path id="Path_227" data-name="Path 227" d="M68.912,361.886a.738.738,0,0,1-.74-.738V340.582a.74.74,0,0,1,.74-.742h6.462a.743.743,0,0,1,.741.742v2.172a.74.74,0,0,1-.741.739H72v5.337h3.229a.741.741,0,0,1,.739.741v2.145a.739.739,0,0,1-.739.739H72v5.779h3.433a.738.738,0,0,1,.741.737v2.177a.739.739,0,0,1-.741.738Z" fill="#0a0406"/>
      <path id="Path_228" data-name="Path 228" d="M87.477,340.125a.74.74,0,0,0-.583-.285H84.573a.74.74,0,0,0-.723.584l-1.435,6.66-1.38-6.653a.736.736,0,0,0-.723-.591H77.9a.732.732,0,0,0-.58.285.742.742,0,0,0-.138.633l3.3,13.427v6.964a.74.74,0,0,0,.742.737h2.349a.738.738,0,0,0,.738-.737v-6.993l3.3-13.4a.738.738,0,0,0-.136-.633" fill="#0a0406"/>
      <path id="Path_229" data-name="Path 229" d="M49.788,339.84H46.549a.773.773,0,0,0-.765.652l-2.13,13.2-2.129-13.206a.772.772,0,0,0-.765-.651h-3.3a.778.778,0,0,0-.776.776V361.11a.777.777,0,0,0,.776.776h1.758a.776.776,0,0,0,.776-.776V350.234l1.824,11a.775.775,0,0,0,.765.65H44.6a.776.776,0,0,0,.766-.649l1.824-11V361.11a.777.777,0,0,0,.776.776h1.819a.776.776,0,0,0,.775-.776V340.616a.777.777,0,0,0-.775-.776" fill="#0a0406"/>
    </g>
    <path id="Path_230" data-name="Path 230" d="M88.048,372.987v-.012a1.983,1.983,0,1,1,3.966-.012v.012a1.983,1.983,0,1,1-3.966.012m3.738-.012v-.012a1.755,1.755,0,1,0-3.51.012v.012a1.743,1.743,0,0,0,1.755,1.766,1.761,1.761,0,0,0,1.755-1.778m-2.53-1.049h.911c.445,0,.775.217.775.639a.607.607,0,0,1-.466.615l.535.763h-.467l-.479-.7h-.422v.7h-.387Zm.877,1c.263,0,.411-.137.411-.33,0-.217-.148-.331-.411-.331h-.49v.661Z" fill="#0a0406"/>
    <g id="Group_12" data-name="Group 12">
      <path id="Path_231" data-name="Path 231" d="M126.557,357.406a16.55,16.55,0,1,1-16.549-16.549,16.551,16.551,0,0,1,16.549,16.549" fill="#fe0"/>
      <path id="Path_232" data-name="Path 232" d="M110.008,339.839a17.568,17.568,0,1,0,17.568,17.57,17.589,17.589,0,0,0-17.568-17.57m0,34.1a16.548,16.548,0,1,1,16.55-16.548,16.55,16.55,0,0,1-16.55,16.548" fill="#0a0406"/>
      <path id="Path_233" data-name="Path 233" d="M106.384,349.829c0,1.336-.44,2.418-.984,2.418s-.984-1.082-.984-2.418.442-2.413.984-2.413.984,1.082.984,2.413" fill="#0a0406"/>
      <path id="Path_234" data-name="Path 234" d="M115.195,349.829c0,1.336-.439,2.418-.984,2.418s-.984-1.082-.984-2.418.442-2.413.984-2.413.984,1.082.984,2.413" fill="#0a0406"/>
      <path id="Path_235" data-name="Path 235" d="M110.363,369.135c-6.161,0-10.1-5.559-11.744-8.67-.885-1.68-.648-2.11-.337-2.628.215-.361.243-.472.191-.577-.061-.131-.3-.014-.578.183a3.35,3.35,0,0,0-1.039,1.034,5.051,5.051,0,0,0-.377,1.391c-.062.436-.041.657.1.685.092.017.188-.1.315-.4.306-.69.624-.619,1.129.266,1.812,3.183,5.607,9.623,12.336,9.623,6.351,0,9.807-6,10.974-8.075.681-1.211.91-.665,1.217-.053.227.456.554.388.491-.1a9.489,9.489,0,0,0-1.267-3.709c-.364-.535-.582-.346-.493.19a6.361,6.361,0,0,1,.233,1.448,4.32,4.32,0,0,1-.568,1.837c-1.521,2.995-5.126,7.553-10.581,7.553" fill="#0a0406"/>
      <path id="Path_236" data-name="Path 236" d="M126.049,372.916V372.9a2.045,2.045,0,1,1,4.09-.012v.012a2.045,2.045,0,1,1-4.09.012m3.855-.012v-.012a1.81,1.81,0,1,0-3.62.012v.012a1.81,1.81,0,1,0,3.62-.012m-2.609-1.082h.94c.458,0,.8.224.8.659a.627.627,0,0,1-.481.634l.552.788h-.482l-.493-.718h-.436v.718h-.4Zm.9,1.034c.27,0,.423-.141.423-.34,0-.223-.153-.342-.423-.342h-.506v.682Z" fill="#0a0406"/>
    </g>
    <g id="Group_13" data-name="Group 13">
      <path id="Path_237" data-name="Path 237" d="M30,374.981v-8.472h2.237L34,369.614a24.5,24.5,0,0,1,1.383,2.9h.037a31.594,31.594,0,0,1-.163-3.532v-2.476h1.76v8.472H35.007l-1.81-3.268a31.477,31.477,0,0,1-1.471-2.992l-.038.013c.05,1.119.076,2.313.076,3.695v2.552Z" fill="#1a1818"/>
      <path id="Path_238" data-name="Path 238" d="M50.629,371.4H47.511v2.011h3.482v1.571h-5.4v-8.472h5.229v1.571H47.511v1.76h3.118Z" fill="#1a1818"/>
      <path id="Path_239" data-name="Path 239" d="M60.67,374.981l-2.011-8.472h2.049L61.349,370c.188,1.006.364,2.1.5,2.954h.025c.138-.917.339-1.936.553-2.979l.716-3.469h2.037l.678,3.57c.189.993.327,1.9.453,2.84h.025c.126-.942.314-1.935.49-2.941l.692-3.469h1.948l-2.187,8.472H65.208l-.717-3.645c-.163-.855-.3-1.647-.4-2.615h-.025c-.151.956-.289,1.76-.49,2.615l-.805,3.645Z" fill="#1a1818"/>
      <path id="Path_240" data-name="Path 240" d="M77.335,373.008a4.908,4.908,0,0,0,2.125.527c.88,0,1.345-.364,1.345-.917,0-.528-.4-.83-1.421-1.194-1.407-.49-2.325-1.27-2.325-2.5,0-1.445,1.207-2.551,3.205-2.551a5.2,5.2,0,0,1,2.162.427L82,368.344a4.038,4.038,0,0,0-1.773-.4c-.829,0-1.232.377-1.232.817,0,.54.478.779,1.572,1.194,1.5.553,2.2,1.333,2.2,2.526,0,1.421-1.094,2.628-3.42,2.628a5.536,5.536,0,0,1-2.4-.516Z" fill="#1a1818"/>
    </g>
  </g>
</svg>
