<svg xmlns="http://www.w3.org/2000/svg" width="102.083" height="95.008" viewBox="0 0 102.083 95.008">
  <g id="logo_13" data-name="logo 13" transform="translate(-415.211 -300.34)">
    <g id="Group_8" data-name="Group 8">
      <path id="Path_206" data-name="Path 206" d="M422.092,375.432c-4.432,0-6.876-2.439-6.876-6.873v-6.6a1.132,1.132,0,0,1,1.132-1.129h3.5a1.131,1.131,0,0,1,1.131,1.129V368.7c0,.99.258,1.248,1.249,1.248h.721c.991,0,1.246-.258,1.246-1.248v-4.714a2.119,2.119,0,0,0-1.113-2.1l-4.389-3.181a7.347,7.347,0,0,1-3.477-6.751v-3.772c0-4.554,2.411-6.962,6.968-6.962h.9c4.433,0,6.875,2.444,6.875,6.875v5.656a1.131,1.131,0,0,1-1.131,1.13h-3.5a1.13,1.13,0,0,1-1.131-1.13V347.96c0-.994-.255-1.251-1.246-1.251h-.632c-.994,0-1.249.257-1.249,1.251v3.951a2.144,2.144,0,0,0,1.159,2.1l4.342,3.131a7.339,7.339,0,0,1,3.475,6.75v4.581c0,4.557-2.408,6.962-6.962,6.962Z" fill="#0a0406"/>
      <path id="Path_207" data-name="Path 207" d="M458.579,375.164a1.126,1.126,0,0,1-1.128-1.126V342.62a1.129,1.129,0,0,1,1.128-1.134h3.587a1.134,1.134,0,0,1,1.134,1.134v31.418a1.13,1.13,0,0,1-1.134,1.126Z" fill="#0a0406"/>
      <path id="Path_208" data-name="Path 208" d="M467.933,375.164a1.127,1.127,0,0,1-1.129-1.126V342.62a1.131,1.131,0,0,1,1.129-1.134h3.589a1.134,1.134,0,0,1,1.133,1.134v26.966h4.8a1.127,1.127,0,0,1,1.128,1.127v3.325a1.128,1.128,0,0,1-1.128,1.126Z" fill="#0a0406"/>
      <path id="Path_209" data-name="Path 209" d="M482,375.164a1.127,1.127,0,0,1-1.13-1.126V342.62a1.13,1.13,0,0,1,1.13-1.134h9.873a1.134,1.134,0,0,1,1.131,1.134v3.318a1.131,1.131,0,0,1-1.131,1.129H486.72v8.154h4.931a1.131,1.131,0,0,1,1.13,1.13v3.278a1.129,1.129,0,0,1-1.13,1.128H486.72v8.829h5.243a1.127,1.127,0,0,1,1.132,1.127v3.325a1.128,1.128,0,0,1-1.132,1.126Z" fill="#0a0406"/>
      <path id="Path_210" data-name="Path 210" d="M510.362,341.922a1.13,1.13,0,0,0-.891-.435h-3.545a1.129,1.129,0,0,0-1.1.892l-2.193,10.173-2.107-10.163a1.126,1.126,0,0,0-1.106-.9h-3.679a1.116,1.116,0,0,0-.886.435,1.132,1.132,0,0,0-.211.966l5.039,20.512v10.638a1.13,1.13,0,0,0,1.132,1.127H504.4a1.128,1.128,0,0,0,1.128-1.127V363.357l5.043-20.469a1.125,1.125,0,0,0-.209-.966" fill="#0a0406"/>
      <path id="Path_211" data-name="Path 211" d="M452.787,341.487h-4.948a1.18,1.18,0,0,0-1.169,1l-3.253,20.171-3.253-20.173a1.179,1.179,0,0,0-1.169-.994h-5.04a1.187,1.187,0,0,0-1.184,1.185v31.307a1.187,1.187,0,0,0,1.184,1.186h2.686a1.186,1.186,0,0,0,1.186-1.186V357.364l2.786,16.808a1.185,1.185,0,0,0,1.169.993h3.084a1.181,1.181,0,0,0,1.169-.992l2.788-16.809v16.615a1.187,1.187,0,0,0,1.185,1.186h2.779a1.186,1.186,0,0,0,1.184-1.186V342.672a1.185,1.185,0,0,0-1.184-1.185" fill="#0a0406"/>
    </g>
    <path id="Path_212" data-name="Path 212" d="M511.234,392.123v-.018a3.03,3.03,0,1,1,6.06-.018v.018a3.03,3.03,0,1,1-6.06.018m5.712-.018v-.018a2.682,2.682,0,1,0-5.364.018v.018a2.682,2.682,0,1,0,5.364-.018m-3.865-1.6h1.391c.679,0,1.184.33,1.184.975a.927.927,0,0,1-.713.94l.818,1.166h-.714l-.73-1.061h-.645v1.061h-.591Zm1.339,1.532c.4,0,.627-.21.627-.505,0-.331-.225-.505-.627-.505h-.748v1.01Z" fill="#0a0406"/>
    <path id="Path_213" data-name="Path 213" d="M418.67,384.647h-3.22a.239.239,0,0,1-.239-.239v-1.987a.239.239,0,0,1,.239-.238h9.42a.239.239,0,0,1,.239.238v1.987a.239.239,0,0,1-.239.239h-3.277v10.27a.239.239,0,0,1-.239.239h-2.446a.238.238,0,0,1-.238-.239Z" fill="#030504"/>
    <path id="Path_214" data-name="Path 214" d="M438.787,391.826l-.869,3.155a.238.238,0,0,1-.229.175h-2.516a.238.238,0,0,1-.228-.308l3.791-12.5a.239.239,0,0,1,.228-.169h3.469a.239.239,0,0,1,.228.168l3.846,12.5a.238.238,0,0,1-.228.309h-2.633a.238.238,0,0,1-.228-.17l-.943-3.16Zm3.268-2.194-.8-2.753c-.229-.769-.458-1.732-.649-2.5h-.038c-.191.77-.383,1.752-.593,2.5l-.764,2.753Z" fill="#030504"/>
    <path id="Path_215" data-name="Path 215" d="M459.067,382.183h2.446a.239.239,0,0,1,.239.238v10.271h4.882a.239.239,0,0,1,.239.239v1.986a.239.239,0,0,1-.239.239h-7.567a.239.239,0,0,1-.238-.239v-12.5A.239.239,0,0,1,459.067,382.183Z" fill="#030504"/>
    <path id="Path_216" data-name="Path 216" d="M479.338,382.183h2.408a.238.238,0,0,1,.238.238v5.5h.058c.286-.5.592-.963.879-1.424l2.852-4.207a.236.236,0,0,1,.2-.1h2.962a.238.238,0,0,1,.189.384l-3.965,5.14,4.272,7.087a.239.239,0,0,1-.2.362h-2.839a.239.239,0,0,1-.208-.122l-3.084-5.479-1.109,1.367v3.995a.238.238,0,0,1-.238.239h-2.408a.239.239,0,0,1-.239-.239v-12.5A.239.239,0,0,1,479.338,382.183Z" fill="#030504"/>
    <path id="Path_217" data-name="Path 217" d="M501.364,392.421a.236.236,0,0,1,.327-.161,7.352,7.352,0,0,0,2.971.682c1.338,0,2.045-.558,2.045-1.4,0-.808-.611-1.27-2.159-1.828-2.14-.751-3.534-1.944-3.534-3.831,0-2.213,1.834-3.907,4.871-3.907a7.954,7.954,0,0,1,3.1.573.238.238,0,0,1,.134.283l-.521,1.9a.236.236,0,0,1-.321.157,6.093,6.093,0,0,0-2.447-.5c-1.261,0-1.872.578-1.872,1.251,0,.828.726,1.194,2.388,1.829,2.274.847,3.344,2.04,3.344,3.869,0,2.175-1.663,4.022-5.2,4.022a8.719,8.719,0,0,1-3.484-.7.235.235,0,0,1-.121-.269Z" fill="#030504"/>
    <g id="Group_9" data-name="Group 9">
      <path id="Path_218" data-name="Path 218" d="M480.525,317.88A16.524,16.524,0,1,1,464,301.357a16.524,16.524,0,0,1,16.523,16.523" fill="#fe0"/>
      <path id="Path_219" data-name="Path 219" d="M464,300.34a17.541,17.541,0,1,0,17.541,17.541A17.561,17.561,0,0,0,464,300.34m0,34.048a16.524,16.524,0,1,1,16.525-16.524A16.525,16.525,0,0,1,464,334.388" fill="#0a0406"/>
      <path id="Path_220" data-name="Path 220" d="M460.383,310.315c0,1.334-.439,2.414-.982,2.414s-.982-1.08-.982-2.414.44-2.41.982-2.41.982,1.081.982,2.41" fill="#0a0406"/>
      <path id="Path_221" data-name="Path 221" d="M469.181,310.315c0,1.334-.438,2.414-.982,2.414s-.982-1.08-.982-2.414.441-2.41.982-2.41.982,1.081.982,2.41" fill="#0a0406"/>
      <path id="Path_222" data-name="Path 222" d="M464.356,329.591c-6.15,0-10.084-5.55-11.725-8.657-.885-1.677-.647-2.107-.338-2.624.217-.36.244-.47.192-.575-.061-.132-.3-.014-.577.183a3.383,3.383,0,0,0-1.039,1.031,5.08,5.08,0,0,0-.374,1.389c-.062.437-.041.657.1.684.093.017.188-.1.315-.395.306-.69.623-.619,1.127.265,1.81,3.179,5.6,9.609,12.317,9.609,6.342,0,9.794-5.994,10.958-8.063.68-1.209.909-.664,1.215-.053.226.455.554.388.491-.1a9.458,9.458,0,0,0-1.267-3.7c-.362-.534-.581-.346-.49.189a6.382,6.382,0,0,1,.231,1.447,4.3,4.3,0,0,1-.567,1.834c-1.518,2.99-5.118,7.541-10.565,7.541" fill="#0a0406"/>
    </g>
    <path id="Path_223" data-name="Path 223" d="M478.7,332.379v-.012a2.024,2.024,0,1,1,4.048-.012v.012a2.024,2.024,0,1,1-4.048.012m3.816-.012v-.012a1.792,1.792,0,1,0-3.584.012v.012a1.792,1.792,0,1,0,3.584-.012m-2.583-1.07h.93c.454,0,.792.221.792.65a.622.622,0,0,1-.478.629l.548.78h-.478l-.488-.71h-.431v.71h-.4Zm.9,1.023c.268,0,.418-.139.418-.337,0-.221-.15-.338-.418-.338h-.5v.675Z" fill="#0a0406"/>
  </g>
</svg>
