<svg xmlns="http://www.w3.org/2000/svg" width="104.917" height="35.424" viewBox="0 0 104.917 35.424">
  <g id="logo_14" data-name="logo 14" transform="translate(-617.839 -339.846)">
    <path id="Path_188" data-name="Path 188" d="M622.342,362.236c-2.9,0-4.5-1.6-4.5-4.5V353.42a.742.742,0,0,1,.741-.739h2.291a.741.741,0,0,1,.74.739v4.408c0,.647.168.816.817.816h.471c.649,0,.816-.169.816-.816v-3.085a1.39,1.39,0,0,0-.728-1.374l-2.873-2.081a4.808,4.808,0,0,1-2.275-4.418V344.4c0-2.98,1.578-4.556,4.56-4.556h.588c2.9,0,4.5,1.6,4.5,4.5v3.7a.739.739,0,0,1-.74.739h-2.29a.739.739,0,0,1-.74-.739v-3.788c0-.65-.167-.818-.816-.818h-.413c-.651,0-.817.168-.817.818v2.586a1.4,1.4,0,0,0,.758,1.372l2.842,2.049a4.8,4.8,0,0,1,2.274,4.418v3c0,2.982-1.576,4.556-4.556,4.556Z" fill="#0a0406"/>
    <path id="Path_189" data-name="Path 189" d="M646.219,362.061a.737.737,0,0,1-.738-.737v-20.56a.739.739,0,0,1,.738-.742h2.348a.742.742,0,0,1,.742.742v20.56a.74.74,0,0,1-.742.737Z" fill="#0a0406"/>
    <path id="Path_190" data-name="Path 190" d="M652.341,362.061a.737.737,0,0,1-.739-.737v-20.56a.739.739,0,0,1,.739-.742h2.348a.741.741,0,0,1,.741.742v17.647h3.138a.737.737,0,0,1,.738.737v2.176a.738.738,0,0,1-.738.737Z" fill="#0a0406"/>
    <path id="Path_191" data-name="Path 191" d="M661.547,362.061a.738.738,0,0,1-.74-.737v-20.56a.74.74,0,0,1,.74-.742h6.46a.741.741,0,0,1,.74.742v2.171a.739.739,0,0,1-.74.739h-3.372v5.336h3.227a.74.74,0,0,1,.739.74v2.145a.739.739,0,0,1-.739.738h-3.227v5.778h3.431a.737.737,0,0,1,.741.737v2.176a.739.739,0,0,1-.741.737Z" fill="#0a0406"/>
    <path id="Path_192" data-name="Path 192" d="M680.106,340.307a.74.74,0,0,0-.583-.285H677.2a.739.739,0,0,0-.723.584l-1.435,6.657-1.379-6.65a.737.737,0,0,0-.724-.591h-2.408a.732.732,0,0,0-.58.285.741.741,0,0,0-.137.633l3.3,13.422v6.962a.739.739,0,0,0,.741.737h2.349a.737.737,0,0,0,.738-.737v-6.99l3.3-13.394a.738.738,0,0,0-.137-.633" fill="#0a0406"/>
    <path id="Path_193" data-name="Path 193" d="M642.429,340.022h-3.238a.775.775,0,0,0-.766.652l-2.128,13.2-2.129-13.2a.772.772,0,0,0-.765-.651h-3.3a.776.776,0,0,0-.775.776v20.488a.776.776,0,0,0,.775.775h1.758a.776.776,0,0,0,.776-.775V350.412l1.823,11a.775.775,0,0,0,.765.649h2.018a.773.773,0,0,0,.765-.648l1.825-11v10.874a.776.776,0,0,0,.775.775h1.819a.776.776,0,0,0,.775-.775V340.8a.776.776,0,0,0-.775-.776" fill="#0a0406"/>
    <path id="Path_194" data-name="Path 194" d="M680.677,373.159v-.012a1.983,1.983,0,1,1,3.965-.012v.012a1.983,1.983,0,1,1-3.965.012m3.738-.012v-.012a1.755,1.755,0,1,0-3.51.012v.012a1.743,1.743,0,0,0,1.755,1.766,1.762,1.762,0,0,0,1.755-1.778m-2.53-1.048h.911c.444,0,.775.216.775.638a.606.606,0,0,1-.467.615l.536.763h-.468l-.478-.694h-.422v.694h-.387Zm.877,1c.263,0,.41-.137.41-.33,0-.216-.147-.331-.41-.331h-.49v.661Z" fill="#0a0406"/>
    <g id="Group_6" data-name="Group 6">
      <path id="Path_195" data-name="Path 195" d="M719.175,357.583a16.545,16.545,0,1,1-16.544-16.544,16.547,16.547,0,0,1,16.544,16.544" fill="#fe0"/>
      <path id="Path_196" data-name="Path 196" d="M702.631,340.021a17.563,17.563,0,1,0,17.562,17.564,17.584,17.584,0,0,0-17.562-17.564m0,34.089a16.543,16.543,0,1,1,16.545-16.544,16.544,16.544,0,0,1-16.545,16.544" fill="#0a0406"/>
      <path id="Path_197" data-name="Path 197" d="M699.007,350.008c0,1.336-.438,2.417-.983,2.417s-.984-1.081-.984-2.417.442-2.412.984-2.412.983,1.081.983,2.412" fill="#0a0406"/>
      <path id="Path_198" data-name="Path 198" d="M707.817,350.008c0,1.336-.439,2.417-.984,2.417s-.984-1.081-.984-2.417.441-2.412.984-2.412.984,1.081.984,2.412" fill="#0a0406"/>
      <path id="Path_199" data-name="Path 199" d="M702.985,369.308c-6.158,0-10.1-5.557-11.74-8.667-.885-1.679-.647-2.109-.337-2.627.215-.361.243-.472.192-.577-.061-.132-.3-.014-.578.183a3.36,3.36,0,0,0-1.04,1.033,5.085,5.085,0,0,0-.376,1.391c-.062.436-.041.656.1.684.092.017.188-.1.315-.395.306-.69.624-.619,1.129.266,1.811,3.182,5.6,9.62,12.331,9.62,6.35,0,9.8-6,10.971-8.073.682-1.21.91-.664,1.218-.053.226.456.553.388.49-.1a9.49,9.49,0,0,0-1.267-3.708c-.364-.535-.581-.345-.492.191a6.36,6.36,0,0,1,.232,1.447,4.306,4.306,0,0,1-.568,1.837c-1.52,2.994-5.124,7.55-10.578,7.55" fill="#0a0406"/>
      <path id="Path_200" data-name="Path 200" d="M718.667,373.088v-.012a2.045,2.045,0,1,1,4.089-.012v.012a2.045,2.045,0,1,1-4.089.012m3.854-.012v-.012a1.81,1.81,0,1,0-3.619.012v.012a1.81,1.81,0,1,0,3.619-.012m-2.609-1.081h.94c.458,0,.8.223.8.658a.626.626,0,0,1-.481.634l.552.788h-.482l-.493-.718h-.436v.718h-.4Zm.905,1.033c.271,0,.423-.141.423-.34,0-.223-.152-.341-.423-.341h-.506v.681Z" fill="#0a0406"/>
    </g>
    <path id="Path_201" data-name="Path 201" d="M620.1,368.266h-2.107a.156.156,0,0,1-.156-.156v-1.3a.156.156,0,0,1,.156-.156h6.165a.156.156,0,0,1,.156.156v1.3a.156.156,0,0,1-.156.156h-2.145v6.722a.156.156,0,0,1-.156.156h-1.6a.156.156,0,0,1-.156-.156Z" fill="#030504"/>
    <path id="Path_202" data-name="Path 202" d="M633.267,372.965l-.568,2.064a.157.157,0,0,1-.151.115H630.9a.156.156,0,0,1-.149-.2l2.481-8.177a.155.155,0,0,1,.149-.111h2.27a.157.157,0,0,1,.149.11l2.517,8.178a.156.156,0,0,1-.149.2h-1.723a.155.155,0,0,1-.149-.112l-.617-2.067Zm2.139-1.436-.526-1.8c-.15-.5-.3-1.133-.425-1.637h-.025c-.125.5-.25,1.146-.387,1.637l-.5,1.8Z" fill="#030504"/>
    <path id="Path_203" data-name="Path 203" d="M646.539,366.654h1.6a.156.156,0,0,1,.157.156v6.721h3.194a.156.156,0,0,1,.156.157v1.3a.156.156,0,0,1-.156.156h-4.951a.156.156,0,0,1-.156-.156V366.81A.156.156,0,0,1,646.539,366.654Z" fill="#030504"/>
    <path id="Path_204" data-name="Path 204" d="M659.8,366.654h1.576a.156.156,0,0,1,.156.156v3.6h.037c.188-.328.388-.63.575-.932l1.867-2.753a.155.155,0,0,1,.129-.069h1.938a.156.156,0,0,1,.124.251l-2.595,3.364,2.8,4.638a.156.156,0,0,1-.134.237h-1.858a.158.158,0,0,1-.136-.08l-2.018-3.586-.725.895v2.615a.156.156,0,0,1-.156.156H659.8a.156.156,0,0,1-.156-.156V366.81A.156.156,0,0,1,659.8,366.654Z" fill="#030504"/>
    <path id="Path_205" data-name="Path 205" d="M674.218,373.354a.156.156,0,0,1,.214-.106,4.8,4.8,0,0,0,1.944.447c.876,0,1.338-.365,1.338-.919,0-.529-.4-.832-1.413-1.2-1.4-.491-2.312-1.272-2.312-2.507,0-1.448,1.2-2.556,3.188-2.556a5.211,5.211,0,0,1,2.027.374.154.154,0,0,1,.087.185l-.34,1.242a.155.155,0,0,1-.211.1,3.985,3.985,0,0,0-1.6-.329c-.825,0-1.225.378-1.225.819,0,.541.475.781,1.563,1.2,1.488.554,2.188,1.335,2.188,2.532,0,1.424-1.088,2.633-3.4,2.633a5.722,5.722,0,0,1-2.28-.46.154.154,0,0,1-.079-.176Z" fill="#030504"/>
  </g>
</svg>
