<?xml version="1.0" standalone="no"?>
<!DOCTYPE svg PUBLIC "-//W3C//DTD SVG 20010904//EN"
 "http://www.w3.org/TR/2001/REC-SVG-20010904/DTD/svg10.dtd">
<svg version="1.0" xmlns="http://www.w3.org/2000/svg"
 width="700.000000pt" height="700.000000pt" viewBox="0 0 700.000000 700.000000"
 preserveAspectRatio="xMidYMid meet">
<metadata>
Created by potrace 1.11, written by Peter Selinger 2001-2013
</metadata>
<g transform="translate(0.000000,700.000000) scale(0.100000,-0.100000)"
fill="#000000" stroke="none">
<path d="M3280 6874 c-867 -63 -1621 -412 -2215 -1025 -542 -560 -867 -1271
-936 -2048 -17 -196 -7 -588 21 -766 65 -430 192 -807 391 -1163 744 -1329
2269 -1995 3745 -1637 1026 250 1889 983 2302 1955 406 957 345 2075 -163
2968 -534 939 -1448 1554 -2511 1692 -153 20 -504 33 -634 24z m685 -44 c742
-114 1386 -439 1905 -961 625 -631 970 -1469 970 -2359 0 -1279 -712 -2430
-1859 -3005 -737 -369 -1585 -450 -2391 -230 -903 247 -1679 885 -2099 1724
-186 370 -292 729 -343 1156 -19 164 -16 577 6 750 95 753 412 1414 930 1944
528 539 1193 878 1926 980 204 29 203 29 525 26 236 -3 316 -7 430 -25z"/>
<path d="M2482 5502 c-39 -37 -79 -116 -104 -210 -29 -107 -31 -361 -5 -477
65 -280 209 -346 307 -140 48 101 65 201 64 370 0 169 -16 261 -62 359 -58
123 -133 160 -200 98z"/>
<path d="M4289 5515 c-59 -32 -117 -166 -138 -320 -45 -324 67 -671 208 -640
61 13 123 112 158 250 12 52 17 111 17 230 0 187 -16 274 -69 382 -50 102
-109 134 -176 98z"/>
<path d="M1036 3495 c-128 -77 -214 -175 -251 -285 -49 -148 -70 -315 -41
-339 23 -19 39 -4 79 73 32 63 64 96 92 96 22 0 92 -89 162 -209 263 -447 443
-711 662 -965 90 -105 325 -335 425 -416 676 -548 1512 -670 2232 -326 276
132 493 293 736 544 241 250 382 448 672 940 35 61 88 112 114 112 24 0 64
-44 92 -100 25 -51 68 -100 87 -100 17 0 33 33 33 71 0 55 -49 279 -86 389
-42 128 -152 356 -195 405 -21 24 -39 35 -53 33 -30 -4 -32 -49 -5 -182 53
-264 17 -420 -172 -743 -368 -626 -892 -1088 -1445 -1272 -451 -150 -933 -131
-1397 55 -619 249 -1236 873 -1620 1639 -126 252 -136 343 -54 503 26 51 45
97 42 102 -12 19 -52 10 -109 -25z"/>
</g>
</svg>
