
<svg version="1.1" id="Layer_1" xmlns="http://www.w3.org/2000/svg" x="0" y="0" viewBox="0 0 512 512" xml:space="preserve"><style>.st1{fill:#13100d}</style><path id="Path_312" d="M501 255.38c0 135.83-110.17 246-246 246S9 391.21 9 255.38s110.07-246 245.9-246h0c135.93 0 246.1 110.17 246.1 246" fill="#ffec00" stroke="#000" stroke-miterlimit="10"/><path id="Path_78-2" class="st1" d="M201.1 143.14c0 19.84-6.61 35.93-14.61 35.93-8.09 0-14.61-16.49-14.61-35.93s6.61-35.83 14.61-35.83c8 0 14.61 16.38 14.61 35.83"/><path id="Path_79-2" class="st1" d="M332.1 143.14c0 19.84-6.52 35.93-14.61 35.93s-14.61-16.49-14.61-35.93 6.22-35.74 14.51-35.74S332 123.89 332 143.23"/><path id="Path_80-2" class="st1" d="M260.23 430.11c-91.51 0-150.15-82.23-174.53-128.92-13.13-24.68-9.58-31.39-5.03-39.09 3.16-5.33 3.65-7.01 2.86-8.19-.79-1.18-4.44 0-8.19 2.67-6.32 3.85-11.75 8.98-15.89 15.2a75.391 75.391 0 00-5.63 20.63c-.89 6.52-.59 9.77 1.48 10.17 2.07.39 2.76-1.48 4.64-5.82 4.54-10.27 9.28-9.18 16.49 3.95 26.95 47.38 83.32 143.14 183.32 143.14 94.47 0 145.8-89.24 163.18-120.14 10.07-17.97 13.52-9.87 18.07-.79 3.36 6.81 8.19 5.73 7.3-1.48-2.37-19.45-8.79-38.2-18.85-55.08-5.43-8.19-8.59-5.13-7.3 2.76 1.97 7.01 3.16 14.22 3.46 21.52-.69 9.58-3.46 18.95-8.19 27.34-22.61 44.52-76.21 112.24-157.35 112.24"/></svg>
