<svg xmlns="http://www.w3.org/2000/svg" viewBox="0 0 197.14 84.27"><defs><style>.cls-1{fill:#fcfcfc;}</style></defs><title>UN_01</title><g id="Layer_2" data-name="Layer 2"><g id="Layer_1-2" data-name="Layer 1"><path class="cls-1" d="M84.2,60.37c-.17-.11-.19-.14-.22-.14-1.8-.22-1.8-.22-1.8,1.57q0,9.35,0,18.7A3.51,3.51,0,0,1,77.42,84a3.6,3.6,0,0,1-2.28-3.65q0-9.52,0-19V60.2H67.88c.07-.36.1-.6.17-.83l7.48-27.19a5.61,5.61,0,0,0,.22-1c0-.51-.06-1-.66-1.13s-.9.27-1.05.76c-.46,1.49-.91,3-1.35,4.49q-1.56,5.27-3.12,10.54A7.14,7.14,0,0,1,69,47.19a2.75,2.75,0,0,1-4.62.64,1.78,1.78,0,0,1-.22-.46c-1.85,3.35-3.54,6.52-5.35,9.63a6.58,6.58,0,0,0-.62,5.32q1.27,4.65,2.51,9.3c.06.22.1.44.16.75H58v1q0,3.93,0,7.86a2.77,2.77,0,1,1-5.53,0c0-2.56,0-5.12,0-7.69,0-.34,0-.68,0-1.08H50.79c0,.3,0,.6,0,.9,0,2.65,0,5.3,0,7.94a2.72,2.72,0,0,1-2.06,2.79,2.68,2.68,0,0,1-3.07-1.27,3.83,3.83,0,0,1-.39-1.63c0-2.59,0-5.18,0-7.77v-1h-3c.3-1.12.56-2.12.83-3.13.65-2.39,1.31-4.77,1.95-7.15a9.34,9.34,0,0,0,.2-1.34,6.4,6.4,0,0,0-1-4c-1.6-2.75-3.1-5.56-4.64-8.35-.13-.24-.28-.47-.46-.76l-.44.46a2.73,2.73,0,0,1-3.12.71,2.57,2.57,0,0,1-1.66-2.54q0-8.11,0-16.23a6.91,6.91,0,0,0-.12-1.36,1.11,1.11,0,0,0-1.25-.91c-.65,0-.9.45-1,1a8.48,8.48,0,0,0-.07,1.36q0,24.94,0,49.88a3.82,3.82,0,0,1-2.31,3.76,3.77,3.77,0,0,1-4.29-.65,4.1,4.1,0,0,1-1.34-3.29q0-14.13,0-28.27c0-1.45-.31-2-1.17-2s-1.12.54-1.12,1.92q0,14,0,28.1c0,1.91-.64,3.42-2.45,4.21a4,4,0,0,1-5.51-3.51c0-.28,0-.57,0-.85q0-24.81,0-49.62a6.15,6.15,0,0,0,0-.94c-.09-.56-.27-1.07-1-1.11a1.13,1.13,0,0,0-1.31.95,5.46,5.46,0,0,0-.1,1.1c0,5.38,0,10.76,0,16.14a3,3,0,0,1-1.25,2.65,1,1,0,0,0-.34.6Q6.41,64.36,3.57,79.48c-.21,1.12-.41,2.24-.62,3.35s-.86,1.59-1.85,1.41-1.25-.93-1-2Q3.18,65.62,6.29,49a1.79,1.79,0,0,0-.18-.82,6.85,6.85,0,0,1-.69-1.94q-.08-10,0-20A9.45,9.45,0,0,1,14.77,17q7.56,0,15.12,0a9.49,9.49,0,0,1,9.45,9.46q0,9,0,18v.94a7,7,0,0,1,1.54-.55A2.14,2.14,0,0,1,43,46.07c.91,1.48,1.82,3,2.73,4.43a3.43,3.43,0,0,0,3.38,1.83c1.82-.1,3.64-.06,5.46,0A2.83,2.83,0,0,0,57.14,51c1-1.45,1.86-2.93,2.77-4.41,1.16-1.91,1.85-2.14,3.78-1.23,1.95-6.34,3.8-12.72,5.88-19A7.36,7.36,0,0,1,75.17,21a5.53,5.53,0,0,1,1.1-.08c4.58,0,9.17,0,13.75,0a5.76,5.76,0,0,1,4.85,2.25A12.94,12.94,0,0,1,97,26.87c1.85,5.7,3.57,11.44,5.3,17.18a6.82,6.82,0,0,1,.27,2,2.54,2.54,0,0,1-2,2.62,2.44,2.44,0,0,1-3.09-1.32,26.52,26.52,0,0,1-1.34-3.85c-1.23-4.08-2.42-8.17-3.63-12.25,0-.08-.06-.16-.09-.24-.18-.58-.42-1.17-1.15-.95s-.72.86-.55,1.48q.76,2.8,1.53,5.59l6.06,22c.08.29.13.59.23,1H97l-5.62.1c0,1.89-.12,3.79-.13,5.68,0,4.87,0,9.74,0,14.6a3.52,3.52,0,0,1-5.95,2.67,3.76,3.76,0,0,1-1.09-2.95q0-9.48,0-19Z"/><path class="cls-1" d="M171.09,55q0-12.51,0-25a3.23,3.23,0,0,0-.16-1.34c-.16-.34-.61-.79-.91-.77a2,2,0,0,0-1.18.72c-.2.24-.15.7-.16,1.07,0,5.49,0,11,0,16.48a2.74,2.74,0,0,1-3.77,2.72,2.5,2.5,0,0,1-1.7-2.43c0-1.25,0-2.51,0-3.76q0-8,0-16.06A9.45,9.45,0,0,1,172.88,17h14.35a9.52,9.52,0,0,1,9.91,9.88q0,9.57,0,19.13A2.79,2.79,0,0,1,194.67,49a2.75,2.75,0,0,1-3.06-2.88c0-2.9,0-5.81,0-8.71,0-2.65,0-5.3,0-7.94,0-.31,0-.72-.12-.9a2.57,2.57,0,0,0-1.19-.76c-.56-.13-.88.32-1,.85a8.21,8.21,0,0,0-.11,1.36q0,24.94,0,49.88a3.94,3.94,0,1,1-7.87.29q0-14.26,0-28.53a7.32,7.32,0,0,0-.06-1.11,1.14,1.14,0,0,0-2.25,0,7.66,7.66,0,0,0-.07,1.1q0,14.18,0,28.36a3.93,3.93,0,1,1-7.86.25q0-10.33,0-20.67Q171.09,57.3,171.09,55Z"/><path class="cls-1" d="M139.08,60.19h-7.26c0,.41-.05.73-.05,1.06,0,6.41,0,12.81,0,19.22a3.5,3.5,0,0,1-3.72,3.75,3.38,3.38,0,0,1-3.25-3.14c-.08-1.45,0-2.9,0-4.35q0-7.6,0-15.2c0-1.36,0-1.37-1.33-1.33-.2,0-.39,0-.68.05,0,.35,0,.68,0,1q0,9.74,0,19.47a3.49,3.49,0,0,1-6.83,1,6,6,0,0,1-.16-1.6c0-6.29,0-12.58,0-18.88,0-.84-.19-1.14-1.08-1.11-2,.07-4.09,0-6.27,0,.46-1.68.89-3.25,1.32-4.82q3.22-11.71,6.44-23.42a2.63,2.63,0,0,0,.12-1.17,1,1,0,0,0-.61-.69,1.16,1.16,0,0,0-.85.36,1.78,1.78,0,0,0-.32.77q-2.19,7.35-4.38,14.7a6.58,6.58,0,0,1-.62,1.48,2.53,2.53,0,0,1-3,1.29,2.59,2.59,0,0,1-2.08-2.58,6.11,6.11,0,0,1,.26-1.93c1.78-5.9,3.52-11.81,5.44-17.67.89-2.72,2.59-4.88,5.63-5.53a5.72,5.72,0,0,1,1.19-.09c4.53,0,9.05,0,13.58,0a6,6,0,0,1,5.17,2.48,13.11,13.11,0,0,1,2,3.64c1.82,5.62,3.53,11.27,5.23,16.93a7,7,0,0,1,.26,2.51A2.41,2.41,0,0,1,141,48.71a2.44,2.44,0,0,1-2.81-1.08,5.93,5.93,0,0,1-.74-1.61c-1.47-4.87-2.91-9.74-4.36-14.61-.35-1.19-.69-1.53-1.3-1.34s-.73.83-.44,1.86l7.51,27.27C138.91,59.49,139,59.79,139.08,60.19Z"/><path class="cls-1" d="M159.92,58.1c0,.38-.09.75-.09,1.13q0,11,0,22A2.83,2.83,0,0,1,155.91,84a2.73,2.73,0,0,1-1.76-2.66c0-2.9,0-5.81,0-8.71,0-1.15-.28-1.65-.91-1.66s-.92.45-.92,1.62c0,3,0,5.92,0,8.88a2.84,2.84,0,0,1-5.5.88,6.22,6.22,0,0,1-.23-1.85q0-10.67,0-21.34v-1l-.27-.11a6.11,6.11,0,0,0-.47.91q-1.38,4.34-2.73,8.69a1.8,1.8,0,1,1-3.49-.86,37.57,37.57,0,0,1,1.44-4c1.22-3,2.46-5.93,3.75-8.86a4.72,4.72,0,0,1,5-3c2.87.11,5.74,0,8.61.13a4.33,4.33,0,0,1,4,3.14c1.33,3.38,2.69,6.76,4,10.13.12.29.24.57.36.87A2.12,2.12,0,0,1,165,68.13a1.2,1.2,0,0,1-1.37-.86c-1-2.78-2-5.54-3.06-8.31-.11-.3-.25-.59-.38-.89Z"/><path class="cls-1" d="M180.14,0a7,7,0,0,1,7.14,7.12A7.12,7.12,0,0,1,173,7.06,7,7,0,0,1,180.14,0Z"/><path class="cls-1" d="M22.4,0a7,7,0,0,1,7.08,7.08,7.11,7.11,0,0,1-14.22,0A7,7,0,0,1,22.4,0Z"/><path class="cls-1" d="M130.44,10.87a6.64,6.64,0,0,1-6.79,6.71,6.74,6.74,0,0,1,.06-13.49A6.64,6.64,0,0,1,130.44,10.87Z"/><path class="cls-1" d="M83.2,4.1a6.68,6.68,0,0,1,6.73,6.79A6.73,6.73,0,1,1,83.2,4.1Z"/><path class="cls-1" d="M158.8,43.09a5.58,5.58,0,1,1-5.53-5.62A5.49,5.49,0,0,1,158.8,43.09Z"/><path class="cls-1" d="M57.16,43.12A5.58,5.58,0,1,1,46,43.07a5.58,5.58,0,1,1,11.15.05Z"/></g></g></svg>