<svg xmlns="http://www.w3.org/2000/svg" viewBox="0 0 94.62 129.99"><defs><style>.cls-1{fill:#fcfcfc;}</style></defs><title>UN_06</title><g id="Layer_2" data-name="Layer 2"><g id="Layer_1-2" data-name="Layer 1"><path class="cls-1" d="M92.86,0H1.73C.14,0-.18.35.08,1.91q2.2,13.32,4.4,26.65L9.86,61.09l5.56,33.62c.2,1.19.44,1.41,1.65,1.41,5.9,0,11.8,0,17.7,0,.7,0,1,.21,1,.87a5.75,5.75,0,0,0,.05.59c.36,4.36.7,8.73,1.11,13.09.07.7-.13.79-.73.78-2.33,0-4.66,0-7.19,0,.19.24.26.34.36.44q8.94,8.94,17.87,17.89c.42.42.61.25.93-.07L65.89,111.9c.14-.14.41-.23.3-.54-2.39-.11-4.77,0-7.16.06-.52,0-.73-.15-.64-.67,0-.22,0-.45,0-.67.38-4.33.77-8.67,1.11-13,.06-.74.23-1,1-1,6,0,12.08,0,18.12,0,1.08,0,1.3-.21,1.47-1.29q.61-4,1.22-7.9,1.49-9.56,3-19.12Q86.16,56.13,88,44.44,89.6,33.8,91.27,23.16T94.53,2C94.79.33,94.52,0,92.86,0ZM63.12,65.57A14.44,14.44,0,0,1,51.21,79.24a18.06,18.06,0,0,1-3.69.18,14,14,0,0,1-9.86-3,14.31,14.31,0,0,1-5.5-13.4c.42-4.19,2.39-7.72,4.65-11.15Q42,44,47.16,36.14c.34-.52.5-.59.88,0,4,6.06,8,12.06,11.85,18.21A20,20,0,0,1,63.12,65.57ZM90.4,5.19q-1.17,7.1-2.33,14.2c0,.28.08.77-.53.57-2.89-.93-5.65-.35-8.37.73a76.46,76.46,0,0,1-11.33,3.74A36.75,36.75,0,0,1,49,23.54c-3.29-1-6.41-2.38-9.61-3.59a27.88,27.88,0,0,0-8.14-2,15.86,15.86,0,0,0-6.29.87,75.79,75.79,0,0,1-10.85,3.3,32,32,0,0,1-5.77.61c-.45,0-.62-.13-.71-.59Q5.92,13.41,4.19,4.66c-.09-.46.05-.55.44-.53.22,0,.45,0,.67,0H89.52C90.58,4.13,90.57,4.13,90.4,5.19Z"/></g></g></svg>