<svg xmlns="http://www.w3.org/2000/svg" viewBox="0 0 93.79 126.62"><defs><style>.cls-1{fill:#fcfcfc;}</style></defs><title>UN_05</title><g id="Layer_2" data-name="Layer 2"><g id="Layer_1-2" data-name="Layer 1"><path class="cls-1" d="M62.47,23.6l13-13c-.29,0-.55-.05-.81-.05-3.44,0-6.87,0-10.31,0-.7,0-.89-.21-.88-.9q.05-4.37,0-8.74c0-.7.24-.89.91-.89Q78.64,0,92.84,0c.75,0,.95.25.94,1q0,14.21,0,28.42c0,.69-.19,1-.94,1q-4.29-.06-8.58,0c-.76,0-1-.23-1-1,0-3.1,0-6.19,0-9.29,0-.3,0-.61,0-.84L70.58,31.93c1.14,2.14,2.46,4.35,3.52,6.67a36.86,36.86,0,0,1,3.19,18.23A38.68,38.68,0,0,1,47,91.9l-.38.11c-1.72.38-1.72.38-1.72,2.15q0,4.37,0,8.74c0,1,0,1,1,1,3.38,0,6.77,0,10.15,0,.7,0,.9.21.9.9q0,4.68,0,9.37c0,.69-.2.91-.9.9-3.41,0-6.82,0-10.23,0-.74,0-1,.19-1,1,0,3.23,0,6.45,0,9.68,0,.75-.26.94-1,.93-3.1,0-6.19,0-9.29,0-.78,0-1-.27-1-1,0-3.23,0-6.45,0-9.68,0-.69-.2-.9-.89-.9-3.44,0-6.87,0-10.31,0-.66,0-.92-.16-.91-.87,0-3.15,0-6.3,0-9.45,0-.66.21-.85.86-.84,3.46,0,6.93,0,10.39,0,.64,0,.87-.16.86-.83q0-4.92,0-9.84c0-.63-.25-.81-.8-.89a38.67,38.67,0,0,1-3.72-75.75C41.08,13.71,52,16,61.87,23.17Zm4.75,30.55a28.54,28.54,0,1,0-28.6,28.52A28.67,28.67,0,0,0,67.23,54.15Z"/><path class="cls-1" d="M38.84,57.44H55.36c1,0,1,0,1,1,0,2.36,0,4.72,0,7.08,0,.63-.15.86-.83.86q-16.8,0-33.59,0c-.59,0-.84-.13-.83-.79q.05-3.7,0-7.4c0-.67.27-.77.84-.77Q30.42,57.45,38.84,57.44Z"/><path class="cls-1" d="M38.82,42.49c5.53,0,11.07,0,16.6,0,.8,0,1,.21,1,1-.05,2.39,0,4.77,0,7.16,0,.61-.18.8-.8.8q-16.8,0-33.59,0c-.64,0-.86-.18-.86-.84,0-2.41,0-4.83,0-7.24,0-.71.22-.89.9-.88C27.65,42.5,33.23,42.49,38.82,42.49Z"/></g></g></svg>