<svg xmlns="http://www.w3.org/2000/svg" viewBox="0 0 110.89 110.89"><defs><style>.cls-1{fill:#fcfcfc;}</style></defs><title>UN_07</title><g id="Layer_2" data-name="Layer 2"><g id="Layer_1-2" data-name="Layer 1"><path class="cls-1" d="M58.09,101.54c0,2.2,0,4.41,0,6.61a2.65,2.65,0,0,1-2.63,2.74,2.69,2.69,0,0,1-2.66-2.72q0-6.72,0-13.44a2.65,2.65,0,1,1,5.3,0C58.1,97,58.09,99.26,58.09,101.54Z"/><path class="cls-1" d="M58.09,9.49q0,3.31,0,6.61a2.65,2.65,0,1,1-5.3,0q0-6.69,0-13.37a2.65,2.65,0,1,1,5.3,0C58.1,5,58.09,7.24,58.09,9.49Z"/><path class="cls-1" d="M9.5,52.8h6.69a2.65,2.65,0,1,1,0,5.29q-6.76,0-13.52,0a2.65,2.65,0,1,1,0-5.29Z"/><path class="cls-1" d="M101.45,52.8h6.76a2.65,2.65,0,1,1,0,5.29q-6.76,0-13.51,0A2.67,2.67,0,0,1,92,55.4a2.64,2.64,0,0,1,2.75-2.61Z"/><path class="cls-1" d="M84.41,101.14a2.64,2.64,0,0,1-4.93,1.39q-3.39-5.87-6.75-11.75a2.64,2.64,0,1,1,4.57-2.64Q80.69,94,84.06,99.89A2.15,2.15,0,0,1,84.41,101.14Z"/><path class="cls-1" d="M86.85,75.15a2.66,2.66,0,0,1,4-2.5q5.18,2.94,10.34,5.91l1.31.75a2.65,2.65,0,1,1-2.61,4.6C96,81.7,92.17,79.48,88.3,77.29A2.58,2.58,0,0,1,86.85,75.15Z"/><path class="cls-1" d="M7,81.57a2.48,2.48,0,0,1,1.29-2.09l11.81-6.79a2.64,2.64,0,0,1,2.66,4.56q-5.93,3.43-11.88,6.83A2.64,2.64,0,0,1,7,81.57Z"/><path class="cls-1" d="M36,86.85a2.6,2.6,0,0,1,2.18,4q-2.91,5.11-5.84,10.2c-.31.54-.6,1.09-.93,1.62a2.67,2.67,0,0,1-3.52.93,2.63,2.63,0,0,1-1.1-3.47Q30.28,94,33.79,88A2.4,2.4,0,0,1,36,86.85Z"/><path class="cls-1" d="M84.29,9.71A2.08,2.08,0,0,1,84,10.95q-3.37,5.88-6.74,11.76a2.64,2.64,0,1,1-4.6-2.61Q76,14.22,79.36,8.34a2.66,2.66,0,0,1,3.13-1.26A2.62,2.62,0,0,1,84.29,9.71Z"/><path class="cls-1" d="M29.08,7a2.54,2.54,0,0,1,2.37,1.34l6.71,11.69a2.64,2.64,0,1,1-4.58,2.63Q30.21,16.86,26.86,11A2.61,2.61,0,0,1,29.08,7Z"/><path class="cls-1" d="M103.85,29.36a2.47,2.47,0,0,1-1.35,2.07L90.81,38.14a2.64,2.64,0,1,1-2.68-4.54q5.9-3.41,11.81-6.8A2.66,2.66,0,0,1,103.85,29.36Z"/><path class="cls-1" d="M24,36a2.6,2.6,0,0,1-3.81,2.33c-4-2.26-8-4.56-12-6.87a2.64,2.64,0,0,1,2.58-4.6q6.09,3.44,12.13,6.95A2.38,2.38,0,0,1,24,36Z"/><path class="cls-1" d="M55.53,23.84A31.88,31.88,0,1,0,87.3,56.06,31.84,31.84,0,0,0,55.53,23.84ZM53.09,36.77a2.37,2.37,0,1,1,4.72,0q0,5.1,0,10.2a2.37,2.37,0,1,1-4.72,0q0-2.51,0-5C53.08,40.22,53.08,38.49,53.09,36.77ZM59.91,71.4A16.55,16.55,0,0,1,49.67,40c.24-.09.49-.16.82-.27,0,2,0,3.94,0,5.87,0,.35-.31.39-.52.52a10.49,10.49,0,0,0-5.36,9.69,10.25,10.25,0,0,0,6.55,9.65A10.27,10.27,0,0,0,62.51,63.7a10.8,10.8,0,0,0-1.58-17.59,1,1,0,0,1-.57-1c0-1.58,0-3.16,0-4.74,0-.59.13-.69.67-.47,5.79,2.28,9.46,6.43,10.67,12.54A16.48,16.48,0,0,1,59.91,71.4Z"/></g></g></svg>