<svg xmlns="http://www.w3.org/2000/svg" viewBox="0 0 117.07 95.7"><defs><style>.cls-1{fill:#fcfcfc;}</style></defs><title>UN_04</title><g id="Layer_2" data-name="Layer 2"><g id="Layer_1-2" data-name="Layer 1"><path class="cls-1" d="M49.74,87.79v-.91q0-29,0-58a1.13,1.13,0,0,1,.62-1.16Q68.48,17.26,86.58,6.79l.91-.49V76.44Z"/><path class="cls-1" d="M8,6.22l7.23,4.16Q30,18.92,44.8,27.44a1.33,1.33,0,0,1,.77,1.35q0,29,0,58v1l-3-.9q-17-5.11-33.91-10.22c-.62-.18-.61-.54-.61-1Q8,48.85,8,22.09V6.22Z"/><path class="cls-1" d="M4,6.06v1Q4,43.18,4,79.31c0,.69.17,1,.87,1.18C18.3,84.22,31.73,88,45.19,91.7a9.36,9.36,0,0,0,5.27-.08q19.17-6.14,38.32-12.36c.79-.26,1.57-.54,2.37-.77.35-.1.51-.26.48-.63,0-.21,0-.42,0-.62q0-35.09,0-70.18V6.15c.23.14.38.22.51.32a13.11,13.11,0,0,0,1.64,1.27c1.57.86,1.88,2.14,1.88,3.86q-.09,34.32,0,68.65c0,.76-.23,1-1,1.26q-16.11,5-32.2,10.14L50.54,95.45a6,6,0,0,1-1.08.17c-3.55.43-6.83-.77-10.16-1.69Q20.09,88.61.89,83.3A1,1,0,0,1,0,82.14Q0,46.08,0,10A1.44,1.44,0,0,1,.64,8.69C1.74,7.89,2.78,7,4,6.06Z"/><path class="cls-1" d="M108.26,12.76h8.81v.71q0,30.58,0,61.16a12.82,12.82,0,0,1-.76,3.28c-1.11,4-2.25,7.94-3.38,11.91-.06.19-.13.38-.26.75-.19-.62-.34-1.09-.48-1.55q-1.89-6.62-3.78-13.24a3.79,3.79,0,0,1-.15-1q0-30.65,0-61.3C108.22,13.24,108.25,13,108.26,12.76Z"/><path class="cls-1" d="M117.07,9.18h-8.81c0-.21,0-.42,0-.64,0-1.39,0-2.77,0-4.16a4.42,4.42,0,0,1,8.84-.06C117.08,5.91,117.07,7.5,117.07,9.18Z"/></g></g></svg>