<svg xmlns="http://www.w3.org/2000/svg" viewBox="0 0 105.6 90.04"><defs><style>.cls-1{fill:#fcfcfc;}</style></defs><title>UN_02</title><g id="Layer_2" data-name="Layer 2"><g id="Layer_1-2" data-name="Layer 1"><path class="cls-1" d="M52.81,45.26H103.6c.22,0,.43,0,.65,0A1.35,1.35,0,0,1,105.57,47a45.09,45.09,0,0,1-5,14.41C94.09,72.91,84.41,80.61,72.07,85.14c-1.32.48-1.33.47-1.33,1.88,0,.56,0,1.12,0,1.68A1.23,1.23,0,0,1,69.63,90a4.32,4.32,0,0,1-.71,0H37.56c-1.39,0-1.8-.41-1.8-1.82a14.83,14.83,0,0,1,0-1.55c.06-.57-.14-.81-.7-1a53.07,53.07,0,0,1-16.85-8.88A48,48,0,0,1,.46,49.23C.29,48.51.15,47.79,0,47.07a1.39,1.39,0,0,1,1.53-1.8c1,0,2.07,0,3.11,0Z"/><path class="cls-1" d="M36.41,41.08c-1,0-2,0-3,0-.32,0-.42-.06-.29-.4,1.8-4.68.35-8.68-2.74-12.24a21.31,21.31,0,0,1-4.36-7,19.5,19.5,0,0,1-.21-11.53,27.47,27.47,0,0,1,3.8-8.45A3.59,3.59,0,0,1,34.89.86a2.49,2.49,0,0,1,.45,3.38,22.8,22.8,0,0,0-3.39,8.47,13.34,13.34,0,0,0,3.33,11.93,18.68,18.68,0,0,1,5,9.44A15.45,15.45,0,0,1,40,40.56a.59.59,0,0,1-.72.53C38.32,41.06,37.36,41.08,36.41,41.08Z"/><path class="cls-1" d="M53.51,41.08a15.88,15.88,0,0,0,.79-2.85,11.42,11.42,0,0,0-2.11-8.13c-.89-1.36-2.08-2.48-3.05-3.77a17.83,17.83,0,0,1-3.31-14A27,27,0,0,1,50.12,1.51,3.58,3.58,0,0,1,55.26.77a2.5,2.5,0,0,1,.57,3.46,22.54,22.54,0,0,0-3.54,9.43,13,13,0,0,0,3.29,10.78,19.92,19.92,0,0,1,5,8.94,15.06,15.06,0,0,1-.11,7.17c-.06.23,0,.55-.43.54Z"/><path class="cls-1" d="M77.38,41.08c-1,0-2,0-3,0-.31,0-.44,0-.3-.39,1.78-4.57.43-8.5-2.54-12a24.46,24.46,0,0,1-4-5.9A19.13,19.13,0,0,1,66.79,10a27.48,27.48,0,0,1,3.84-8.57A3.61,3.61,0,0,1,76,1a2.5,2.5,0,0,1,.33,3.25,22.85,22.85,0,0,0-3.44,8.65,13.28,13.28,0,0,0,3.33,11.74,19,19,0,0,1,4.95,9.3,15.32,15.32,0,0,1-.22,6.66c-.1.42-.3.53-.71.52C79.28,41.06,78.33,41.08,77.38,41.08Z"/></g></g></svg>