<svg xmlns="http://www.w3.org/2000/svg" viewBox="0 0 145.71 146.96"><defs><style>.cls-1{fill:#fcfcfc;}</style></defs><title>UN_09</title><g id="Layer_2" data-name="Layer 2"><g id="Layer_1-2" data-name="Layer 1"><path class="cls-1" d="M0,104c0-6.65,0-13.3,0-20a2.69,2.69,0,0,1,1.52-2.59C12.37,75.26,23.18,69,34,62.77a2.28,2.28,0,0,0,1.35-2.29c0-12.29,0-24.58-.06-36.86A3.64,3.64,0,0,1,37.39,20Q54.29,10.34,71.1.54a3.05,3.05,0,0,1,3.43,0q17.08,9.91,34.2,19.74a2.91,2.91,0,0,1,1.64,2.82c0,12.57,0,25.15,0,37.72a1.79,1.79,0,0,0,1,1.79c10.78,6.19,21.54,12.43,32.33,18.6a3.53,3.53,0,0,1,2,3.48q-.09,19.62,0,39.24a2.92,2.92,0,0,1-1.65,2.82q-16.87,9.69-33.7,19.47a3.82,3.82,0,0,1-4.37,0c-10.71-6.26-21.47-12.43-32.2-18.65a1.61,1.61,0,0,0-1.88,0c-10.87,6.3-21.76,12.56-32.62,18.87a3.15,3.15,0,0,1-3.53,0Q18.84,136.6,1.88,126.87A3.29,3.29,0,0,1,0,123.61C.08,117.08,0,110.56,0,104Zm110.31,36.86c.52-.26.8-.38,1.07-.53q14.43-8.32,28.87-16.64a1.71,1.71,0,0,0,1-1.72q0-16.53,0-33.06c0-.37,0-.73-.06-1.27-.47.23-.81.38-1.12.56q-14.35,8.28-28.7,16.55a1.78,1.78,0,0,0-1,1.78q0,16.48,0,33Zm-75.1,0c0-.53.1-.83.1-1.13q0-16.72,0-33.43a1.46,1.46,0,0,0-.82-1.44Q20,96.55,5.52,88.17c-.28-.16-.59-.29-1-.5,0,.51,0,.82,0,1.13q0,16.72,0,33.43a1.42,1.42,0,0,0,.83,1.41q13.49,7.75,27,15.55ZM138.91,83.7c-.56-.35-.93-.6-1.3-.81q-14.38-8.3-28.76-16.61a1.27,1.27,0,0,0-1.47.05l-29,16.76c-.29.17-.55.36-.93.61.5.31.87.55,1.25.77q14.21,8.21,28.42,16.44a1.79,1.79,0,0,0,2.07,0Q122.06,93.42,135,86ZM75.14,46.82V79.77L103.66,63.3Zm2.19-3.91,28.51,16.46V26.45Zm-9,0L39.89,26.48V59.35ZM39.88,108v32.88l28.48-16.44Zm30.62,12.5V87.62L42,104.07ZM42,63.3,70.49,79.73V46.86Z"/></g></g></svg>