<svg xmlns="http://www.w3.org/2000/svg" viewBox="0 0 154.85 108.31"><defs><style>.cls-1{fill:#fcfcfc;}</style></defs><title>UN_03</title><g id="Layer_2" data-name="Layer 2"><g id="Layer_1-2" data-name="Layer 1"><path class="cls-1" d="M52.26,43.53c-.34.74-.63,1.35-.91,2Q47,55.2,42.72,64.9a2.91,2.91,0,0,1-2.93,1.89H2.92c-1.8,0-2.91-1-2.92-2.61a2.54,2.54,0,0,1,2.51-2.62c.23,0,.46,0,.69,0q17.18,0,34.35,0a1.26,1.26,0,0,0,1.36-.87Q45,47,51.11,33.27a2.7,2.7,0,0,1,2.21-1.86,2.54,2.54,0,0,1,2.9,2.2c.5,3.29.94,6.59,1.41,9.89s1,6.84,1.47,10.27,1,6.74,1.44,10.12c.37,2.56.74,5.12,1.14,7.91.28-.43.47-.67.62-.94q5.83-10.79,11.64-21.59a2.69,2.69,0,0,1,2.31-1.64,2.46,2.46,0,0,1,2.65,2c.54,2.92,1,5.86,1.53,8.78Q81.7,65.81,83,73.17l2.69,15.7c.26,1.53.52,3.06.79,4.58a4.74,4.74,0,0,0,.27.69c.43-1.41.81-2.64,1.18-3.86l20.8-69.1q2.85-9.46,5.68-18.92c.54-1.8,2-2.72,3.51-2a3.41,3.41,0,0,1,1.52,1.49c2.72,5.53,5.38,11.09,8.06,16.64q3.05,6.33,6.1,12.66a5.22,5.22,0,0,1,.58,1.64,2.48,2.48,0,0,1-1.78,2.76A2.56,2.56,0,0,1,129.24,34c-1-1.94-1.88-3.9-2.82-5.85l-8.5-17.61c-.08-.16-.18-.3-.35-.59-.16.39-.28.65-.36.92l-14.1,46.82L88.54,106.11c-.46,1.52-1.23,2.18-2.54,2.2a2.34,2.34,0,0,1-2.57-2c-.55-2.9-1-5.8-1.52-8.71q-1.12-6.46-2.24-12.92-1.18-6.87-2.34-13.75-1-5.9-2-11.8c0-.24-.13-.48-.24-.87-.25.42-.44.7-.61,1Q68.59,70.12,62.74,81A2.93,2.93,0,0,1,61,82.59a2.5,2.5,0,0,1-3.26-1.92c-.45-2.78-.83-5.58-1.23-8.37Q55.77,67.17,55,62T53.61,52c-.37-2.62-.73-5.24-1.11-7.85A3.44,3.44,0,0,0,52.26,43.53Z"/><path class="cls-1" d="M135.47,51.11c.87-.79,1.75-1.64,2.69-2.42a11.56,11.56,0,0,1,5.07-2.88,8.86,8.86,0,0,1,8.07,2.49c2.73,2.59,3.68,5.9,3.56,9.57a11.3,11.3,0,0,1-3.35,7.81C146.28,71,141,76.21,135.78,81.46c-.1.1-.23.19-.37.31-.19-.18-.36-.32-.52-.48L119.53,65.92a11.63,11.63,0,0,1-3.6-8.8c.12-4.26,1.69-7.88,5.52-10.12,3.27-1.91,6.59-2,9.7.44C132.6,48.59,134,49.84,135.47,51.11Z"/></g></g></svg>