<svg xmlns="http://www.w3.org/2000/svg" viewBox="0 0 119.36 126.25"><defs><style>.cls-1{fill:#fcfcfc;}</style></defs><title>UN_08</title><g id="Layer_2" data-name="Layer 2"><g id="Layer_1-2" data-name="Layer 1"><path class="cls-1" d="M110.19,77.62q0,23.26,0,46.53c0,1.71-.38,2.1-2.06,2.1H83.23c-1.59,0-2-.42-2-2q0-33.29,0-66.58a5.4,5.4,0,0,1,1.85-4.19q11.57-10.91,23-21.9c.71-.68,1.4-1.4,2.17-2a1.52,1.52,0,0,1,1.23-.33c.32.14.51.7.66,1.11a2.73,2.73,0,0,1,0,.9Q110.19,54.44,110.19,77.62Z"/><path class="cls-1" d="M74.07,95.31q0,14.47,0,28.93c0,1.6-.39,2-2,2h-25c-1.57,0-2-.41-2-2q0-28.48,0-57c0-.67-.17-1.6.63-1.75a2.45,2.45,0,0,1,1.73.82c3.56,3.56,7.08,7.18,10.61,10.77.93.95,1,.94,1.87,0L71.59,65.49c.52-.52,1.06-1.21,1.88-.85s.6,1.21.6,1.9Q74.08,80.92,74.07,95.31Z"/><path class="cls-1" d="M37.41,93.28q0,15.46,0,30.91c0,1.65-.39,2.05-2,2.05H10.48c-1.62,0-2-.37-2-2q0-17.76,0-35.52a4.94,4.94,0,0,1,1.67-3.84Q22.58,73.15,35,61.33c.51-.48,1-1.17,1.82-.79s.61,1.15.61,1.83Q37.41,77.82,37.41,93.28Z"/><path class="cls-1" d="M109.09,16.43a6.94,6.94,0,0,1-.69,1L60.11,65.73c-1,1-1,1-1.94,0l-18.94-19a7.14,7.14,0,0,1-.6-.79l-.36-.09a5.08,5.08,0,0,1-.58.9Q22.34,62.18,7,77.52c-1,1-1,1-2,0C3.51,76,2,74.46.44,73c-.54-.53-.61-.92,0-1.49Q19.07,52.81,37.72,34.14c.57-.57.93-.52,1.48,0q9.57,9.61,19.17,19.19a6.58,6.58,0,0,1,.49.6l43.91-43.91c-1.28-1.28-2.71-2.68-4.1-4.11-.26-.27-.55-.73-.47-1s.59-.49.94-.58Q108.58,2.19,118,.08c1.13-.25,1.5.09,1.26,1.21q-2.06,9.67-4.14,19.33c-.19.87-.76,1-1.41.39-1.27-1.25-2.52-2.52-3.78-3.77C109.74,17,109.52,16.84,109.09,16.43Z"/></g></g></svg>