<svg xmlns="http://www.w3.org/2000/svg" viewBox="0 0 113.77 111.6"><defs><style>.cls-1{fill:#fcfcfc;}</style></defs><title>UN_15</title><g id="Layer_2" data-name="Layer 2"><g id="Layer_1-2" data-name="Layer 1"><path class="cls-1" d="M10,38a13,13,0,0,1-3.95-3.72,12.15,12.15,0,0,1,8.18-18.81,11.67,11.67,0,0,1,2.21-.13c.48,0,.57-.19.61-.57A15.92,15.92,0,0,1,22.61,4.09a16.2,16.2,0,0,1,9-3.95A16.49,16.49,0,0,1,49.69,14a16.06,16.06,0,0,1-1.11,8.87c-.09.21-.18.43-.25.64a1.3,1.3,0,0,0,0,.3l.86.25c7.38,2.31,12,7.24,13.28,14.85a18.24,18.24,0,0,1-15.1,21,26.23,26.23,0,0,1-3.89.29c-2.64,0-5.28,0-7.93,0-5.56,0-11.13,0-16.69-.19A13,13,0,0,1,9.6,38.71c.13-.16.25-.32.37-.49A1,1,0,0,0,10,38Z"/><path class="cls-1" d="M56.91,97.9H1.43C0,97.9,0,97.89,0,96.49,0,94.67,0,92.85,0,91c0-.69.27-1,1-1H112.38c1.39,0,1.39,0,1.39,1.42q0,2.65,0,5.31c0,1.05-.08,1.12-1.15,1.12Z"/><path class="cls-1" d="M57,103.88h55.55c1.26,0,1.26,0,1.26,1.27q0,2.69,0,5.39c0,1,0,1.07-1.1,1.07H1.41c-1.4,0-1.4,0-1.4-1.41q0-2.58,0-5.16c0-1.14,0-1.15,1.17-1.15Z"/><path class="cls-1" d="M111.13,47.33c-.18.31-.3.77-.57.88a1.46,1.46,0,0,1-1.14-.1,9.74,9.74,0,0,0-5.79-1.05A17.52,17.52,0,0,0,92.8,52c-.64.59-1.27.51-2-.2a18.09,18.09,0,0,0-7.13-4.12,13.77,13.77,0,0,0-7.12-.4,8.77,8.77,0,0,0-1.93.72c-.53.27-1,.59-1.52,0a1.37,1.37,0,0,1,.21-1.88,21.39,21.39,0,0,1,3.1-2.25,12.32,12.32,0,0,1,11.32-.25,26.22,26.22,0,0,1,3.6,2,.89.89,0,0,0,1.21,0,16.36,16.36,0,0,1,7-3.08A12.38,12.38,0,0,1,110,45.71C110.51,46.12,111.13,46.46,111.13,47.33Z"/><path class="cls-1" d="M30.92,73.74q0-4,0-7.92c0-.92.08-1,1-1h5.54c.9,0,1,.14,1,1,0,5.28,0,10.56,0,15.84,0,.72-.23,1-1,1-1.9,0-3.79,0-5.69,0-.69,0-1-.23-.95-.94C30.94,79.07,30.92,76.41,30.92,73.74Z"/><path class="cls-1" d="M92.82,16.6c0,.92-.65,1.45-1.28,1.15-3.2-1.5-6.28-.82-9.21.68a23,23,0,0,0-4,2.94c-1,.81-1.35.89-2.32.12a13.64,13.64,0,0,0-8.08-3.16,8.42,8.42,0,0,0-5.42,1.19c-.53.37-1,.14-1.28-.47a1.28,1.28,0,0,1,.3-1.48A10.57,10.57,0,0,1,69.59,14,12.44,12.44,0,0,1,76,16a1.25,1.25,0,0,0,1.73-.12,12.59,12.59,0,0,1,6-2.73,10.47,10.47,0,0,1,8.67,2.65A2.22,2.22,0,0,1,92.82,16.6Z"/><path class="cls-1" d="M89.21,0a9.27,9.27,0,0,1,6.87,3.56A1.25,1.25,0,0,0,97.63,4c2.8-.82,5.56-.81,8,1a15.84,15.84,0,0,1,2.62,2.86A1.13,1.13,0,0,1,108,9.52c-.58.39-1,.07-1.4-.35A6.34,6.34,0,0,0,103,7.58a10.62,10.62,0,0,0-6.49,1c-1,.46-1.47.32-2-.61a10.06,10.06,0,0,0-6.67-4.9,6.72,6.72,0,0,0-2.13,0c-.57.07-1,.08-1.29-.5a1.25,1.25,0,0,1,.64-1.48A9.54,9.54,0,0,1,89.21,0Z"/></g></g></svg>