<svg xmlns="http://www.w3.org/2000/svg" viewBox="0 0 127.7 127.81"><defs><style>.cls-1{fill:#fcfcfc;}</style></defs><title>UN_10</title><g id="Layer_2" data-name="Layer 2"><g id="Layer_1-2" data-name="Layer 1"><path class="cls-1" d="M63.85,56.79H42c-1.14,0-1.14,0-1.14-1.12,0-4.15,0-8.3,0-12.46,0-.76.18-1,1-1q22,0,44,0c1,0,1.06,0,1.06,1.05q0,6.19,0,12.37c0,1.1-.06,1.16-1.14,1.16Z"/><path class="cls-1" d="M63.93,71h21.8c1.1,0,1.15,0,1.15,1.14q0,6.18,0,12.37c0,1-.07,1.1-1.11,1.1H42c-1.11,0-1.11,0-1.11-1.14q0-6.18,0-12.37c0-1.09,0-1.1,1.07-1.1Z"/><path class="cls-1" d="M22.1,41.89a9.65,9.65,0,0,1,.15,1.2q0,16.44,0,32.87c0,3,0,6,0,9a3.72,3.72,0,0,1-.23.89,3.45,3.45,0,0,1-.79-.45Q10.85,75,.5,64.65c-.67-.67-.67-.85,0-1.53L21.28,42.36c.17-.17.36-.32.53-.48Z"/><path class="cls-1" d="M63.86,105.54h21a4.69,4.69,0,0,1,.91.18,3.57,3.57,0,0,1-.47.85Q75,116.92,64.64,127.25c-.75.75-.8.75-1.56,0L42.42,106.58a3.26,3.26,0,0,1-.39-.41c-.23-.33-.16-.57.26-.62a6.21,6.21,0,0,1,.73,0Z"/><path class="cls-1" d="M63.79,22.27q-10.42,0-20.84,0a4.6,4.6,0,0,1-1-.24,4.67,4.67,0,0,1,.54-.84Q52.76,10.86,63.07.57c.75-.75.86-.75,1.57,0Q75,10.86,85.29,21.2a3.63,3.63,0,0,1,.48.86,4.26,4.26,0,0,1-.9.2Z"/><path class="cls-1" d="M105.66,41.74a9.61,9.61,0,0,1,.81.63q10.42,10.41,20.84,20.82c.53.53.5.9,0,1.41Q116.87,75,106.45,85.42a2.91,2.91,0,0,1-.73.39,3.14,3.14,0,0,1-.18-.74q0-21.16,0-42.32A9.14,9.14,0,0,1,105.66,41.74Z"/></g></g></svg>