<svg xmlns="http://www.w3.org/2000/svg" viewBox="0 0 124.14 92.8"><defs><style>.cls-1{fill:#fcfcfc;}</style></defs><title>UN_11</title><g id="Layer_2" data-name="Layer 2"><g id="Layer_1-2" data-name="Layer 1"><path class="cls-1" d="M14.44,69.6H27.86c.89,0,1.07.18,1.07,1q0,10.4,0,20.8c0,.88-.2,1.08-1.05,1.08-2.72,0-5.44,0-8.16,0-.52,0-.63-.16-.62-.65,0-4.15,0-8.3,0-12.45,0-1-.14-1.15-1.15-1.15H10.82c-1.14,0-1.29.15-1.29,1.27,0,4.09,0,8.18,0,12.27,0,.53-.11.72-.69.71-2.6,0-5.2,0-7.8,0-.92,0-1.05-.13-1.05-1Q0,81,0,70.62c0-.89.13-1,1-1Z"/><path class="cls-1" d="M14.59,67.11H1.17c-.36,0-.75.05-1-.35s0-.71.26-1q6.58-8.62,13.15-17.24c.65-.86,1-.86,1.67,0l13.3,17.2c.26.33.52.65.3,1.08s-.64.34-1,.34Z"/><path class="cls-1" d="M109.82,55.13h13.36c.79,0,.94.15.94,1q0,2.36,0,4.71c0,.79-.18,1-1,1H96.45c-.8,0-.9-.11-.9-.91q0-2.39,0-4.77c0-.87.08-.94.92-.94Z"/><path class="cls-1" d="M59.55,0H33.85c-1,0-1.15.16-1.15,1.16q0,22.55,0,45.1t0,45.16c0,1,.1,1.13,1.15,1.13H59.55c1.06,0,1.2-.13,1.2-1.17q0-45.1,0-90.2C60.74.17,60.57,0,59.55,0ZM49.37,13c0-.45.17-.6.61-.59q2.78,0,5.55,0c.48,0,.63.2.62.66,0,1,0,2.05,0,3.08s0,2.05,0,3.08c0,.48-.13.69-.65.68-1.83,0-3.66,0-5.49,0-.47,0-.65-.15-.64-.62Q49.39,16.18,49.37,13Zm6.78,37.61c0,.38-.14.54-.53.54q-2.87,0-5.74,0c-.41,0-.51-.19-.51-.56,0-1.07,0-2.14,0-3.2s0-2.05,0-3.08c0-.44.14-.61.59-.61q2.81,0,5.62,0c.41,0,.57.14.57.56Q56.14,47.48,56.15,50.65Zm0-15.63c0,.38-.14.54-.53.54q-2.84,0-5.68,0c-.42,0-.58-.15-.57-.56,0-1.07,0-2.13,0-3.2s0-2.05,0-3.08c0-.44.14-.61.59-.61q2.81,0,5.62,0c.41,0,.58.15.57.57Q56.14,31.85,56.15,35ZM37.4,16.16c0-1,0-2.09,0-3.14,0-.41.15-.57.56-.57q2.81,0,5.61,0c.44,0,.61.17.6.61q0,3.14,0,6.28c0,.44-.17.61-.61.6-1.85,0-3.7,0-5.55,0-.49,0-.63-.19-.62-.65C37.42,18.26,37.4,17.21,37.4,16.16Zm0,15.67c0-1,0-2.1,0-3.14,0-.41.14-.58.56-.58q2.84,0,5.68,0c.43,0,.55.2.55.6q0,3.14,0,6.28c0,.41-.14.57-.57.57q-2.81,0-5.62,0c-.44,0-.61-.14-.6-.59C37.42,33.92,37.4,32.88,37.4,31.83Zm0,15.6c0-1,0-2.05,0-3.08,0-.44.13-.61.59-.61q2.81,0,5.62,0c.42,0,.58.16.58.57q0,3.17,0,6.34c0,.39-.16.54-.54.54-1.89,0-3.79,0-5.68,0-.41,0-.57-.14-.56-.56C37.42,49.56,37.4,48.5,37.4,47.43Zm6.78,34.45c0,.43-.14.62-.6.61q-2.81,0-5.61,0c-.47,0-.58-.21-.57-.63,0-1,0-2.09,0-3.14s0-2.05,0-3.08c0-.46.14-.67.61-.67h5.55c.42,0,.62.17.62.61Q44.16,78.74,44.18,81.88Zm-.68-15q-2.72,0-5.43,0c-.49,0-.68-.16-.67-.67,0-1,0-2.09,0-3.14s0-2.05,0-3.08c0-.48.17-.63.64-.63q2.75,0,5.49,0c.51,0,.66.21.66.69q0,3.08,0,6.16C44.19,66.71,44,66.88,43.5,66.87ZM49.37,60c0-.45.17-.6.61-.6q2.78,0,5.56,0c.49,0,.63.21.62.66,0,1,0,2.09,0,3.14s0,2,0,3c0,.48-.14.7-.65.7-1.83,0-3.66,0-5.49,0-.46,0-.65-.16-.64-.63Q49.39,63.1,49.37,60Zm6.17,22.54c-1.85,0-3.7,0-5.56,0-.43,0-.62-.13-.61-.59q0-3.14,0-6.28c0-.48.19-.64.65-.64q2.75,0,5.49,0c.45,0,.66.16.65.64,0,1,0,2.09,0,3.14s0,2.05,0,3.08C56.17,82.3,56,82.5,55.54,82.49Z"/><path class="cls-1" d="M91.85,16.79c-.55-.19-.79.24-1.06.59L82,28.49Q73.43,39.4,64.82,50.32a2,2,0,0,0-.45,1.32q0,20,0,40c0,1,.1,1.07,1.08,1.07H91.27c1,0,1.08-.08,1.08-1.06q0-18.41,0-36.82t0-36.82C92.35,17.51,92.43,17,91.85,16.79ZM81.43,35.13l6.31-7.86c.27-.33.56-.6,1-.43s.44.57.44,1c0,1.29,0,2.58,0,3.86s0,2.58,0,3.86c0,.76-.22,1-1,1H82.09a.85.85,0,0,1-.9-.46C81,35.67,81.22,35.4,81.43,35.13ZM81,39.52h7.37c.73,0,.9.16.91.88q0,2.24,0,4.47c0,.73-.16.88-.9.88H80.9c-.71,0-.88-.18-.88-.9q0-2.21,0-4.41C80,39.7,80.2,39.52,81,39.52ZM76.07,82.57H68.82c-.76,0-.94-.18-.94-.91q0-2.24,0-4.47c0-.71.18-.88.9-.89h7.37c.72,0,.93.21.93.94q0,2.18,0,4.35C77.09,82.38,76.89,82.57,76.07,82.57ZM67.88,68c0-.68.18-.87.85-.87h7.44c.72,0,.92.21.92.94q0,2.21,0,4.41c0,.68-.23.91-.9.91H68.75c-.66,0-.87-.22-.87-.86Q67.88,70.25,67.88,68Zm8.41-3.8q-3.84,0-7.68,0a.67.67,0,0,1-.74-.76q0-2.39,0-4.77c0-.56.31-.73.81-.73h7.56c.62,0,.84.21.85.83,0,1.53,0,3.06,0,4.59A.73.73,0,0,1,76.29,64.18Zm.82-15.42c0,1.75,0,3.51,0,5.26,0,.76-.21,1-1,1H68.83c-.72,0-.89-.23-1-.93a3.08,3.08,0,0,1,.78-2.37c2.34-2.87,4.64-5.78,7-8.67.25-.31.5-.66,1-.5s.52.6.52,1C77.11,45.3,77.11,47,77.11,48.76ZM89.23,81.69c0,.69-.2.87-.92.87H81c-.78,0-1-.2-1-.95q0-2.21,0-4.41c0-.69.21-.9.9-.91h7.43c.67,0,.88.2.88.86Q89.24,79.43,89.23,81.69Zm-.87-8.32H80.92c-.69,0-.91-.22-.91-.9q0-2.24,0-4.47c0-.69.21-.89.9-.89h7.44c.67,0,.87.19.88.86q0,2.27,0,4.53C89.23,73.15,89,73.37,88.36,73.38Zm0-9.19H80.92c-.69,0-.91-.23-.91-.91Q80,61,80,58.8c0-.69.2-.88.91-.88h7.43c.69,0,.87.17.87.85q0,2.27,0,4.53C89.23,63.94,89,64.18,88.35,64.18Zm.87-10.06c0,.65-.17.81-.84.82H80.9c-.72,0-.88-.17-.89-.89q0-2.2,0-4.41c0-.72.18-.91.87-.91h7.49c.68,0,.85.17.85.87Q89.24,51.86,89.23,54.12Z"/><path class="cls-1" d="M123.08,63.95H96.55c-.91,0-1.05.15-1.05,1q0,6.68,0,13.36t0,13.42c0,.87.15,1,1,1h26.6c.86,0,1-.18,1-1q0-13.39,0-26.78C124.14,64.1,124,63.95,123.08,63.95ZM108.52,81.66c0,.69-.21.9-.9.9h-7.56c-.8,0-1-.17-1-.94q0-2.21,0-4.41c0-.66.2-.89.85-.89q3.84,0,7.68,0c.67,0,.9.25.9.93Q108.52,79.46,108.52,81.66Zm0-9.16c0,.68-.22.91-.9.91H99.94c-.69,0-.85-.18-.85-.87q0-2.24,0-4.47c0-.71.15-.86.84-.86h7.68c.71,0,.91.19.91.88Q108.52,70.3,108.52,72.5ZM121,81.61c0,.76-.21,1-1,1h-7.54c-.73,0-.94-.2-.94-.92q0-2.17,0-4.35c0-.76.22-1,1-1H120c.79,0,1,.23,1,1Q121,79.47,121,81.61Zm0-9.07c0,.65-.23.88-.87.88h-7.74c-.64,0-.84-.2-.84-.83q0-2.27,0-4.53c0-.68.18-.83.89-.83h7.68c.66,0,.88.21.89.85Q121,70.3,121,72.53Z"/></g></g></svg>