<svg xmlns="http://www.w3.org/2000/svg" viewBox="0 0 146.25 136.8"><defs><style>.cls-1{fill:#fcfcfc;}</style></defs><title>UN_16</title><g id="Layer_2" data-name="Layer 2"><g id="Layer_1-2" data-name="Layer 1"><path class="cls-1" d="M134.26,11.92l1.14.79-5.69,6.4c-1.79,2-3.66,3.94-5.35,6a18,18,0,0,0-3.46,7.43,1.28,1.28,0,0,0,.53,1.55c1.28.9,2.53,1.86,4.05,3h-3.83c-1,0-1.27.41-1.18,1.43A44.12,44.12,0,0,0,122.41,48c.07.22.11.44.19.75l-1.36.25A41,41,0,0,1,119,37.64c-4.86-.26-10.87,3.66-13,8.43-1.85,4.23-2.11,8.71-1.95,13.24.28,7.61-1.21,14.71-6,20.83a34.17,34.17,0,0,1-14,10.12A58.25,58.25,0,0,1,68.9,94.38c-.82.11-1.12.42-1.11,1.28,0,4.07,0,8.14,0,12.21,0,.84.22,1.16,1.13,1.17,6.42.1,12.85.14,19.26.43,4.27.19,8.42-.63,12.63-1,2.17-.18,4.32-.47,6.59-.72,0-2.06,0-4,0-6,0-.4,0-.81,0-1.21a2.11,2.11,0,0,1,2.32-2.31c1.72,0,3.43,0,5.15,0h18.57c2.12,0,2.71.59,2.71,2.68q0,11.66,0,23.31c0,1.81-.67,2.48-2.5,2.48H110c-1.93,0-2.63-.73-2.63-2.7,0-2.22,0-4.43,0-6.79-1-.13-1.93-.28-2.88-.39-4.27-.48-8.53-1.06-12.81-1.37-2.6-.19-5.24.06-7.86.12l-24.5.51-17.95.4-18.45.41c-3.73.09-7.46.2-11.19.29H10.57v-9.41l44.35.94c0-1.15,0-2.15,0-3.16,0-3.26,0-6.53,0-9.79,0-.56,0-.93-.77-1a50,50,0,0,1-23.8-8c-4.09-2.68-8.38-5.05-12.24-7.36.76.09,2,.25,3.22.37A24.93,24.93,0,0,0,33.8,78.27a50.37,50.37,0,0,0,5.89-3.46c2.38-1.45,4.67-3.08,7.13-4.36a34.73,34.73,0,0,1,5.31-1.8c.34-.11.69-.17,1.14-.29-2.06-.47-4-.78-5.87-1.36-7.28-2.24-12.1-7.24-15.32-14-2-4.28-3-8.86-4.06-13.45-1.11-5-2.24-10-4.45-14.71a14.29,14.29,0,0,0-6.76-7.21l-.38-.18A43.3,43.3,0,0,1,48,25.58a94.54,94.54,0,0,1,10.36,9.12,29.84,29.84,0,0,0,13.08,7.86c6.66,1.77,12.75.3,18.16-3.77,3-2.22,5.54-4.9,8.46-7.16a46.86,46.86,0,0,1,7.38-4.86c4.18-2.12,7.18-1.37,10.38,2.07,1.1,1.18,2.24,2.31,3.44,3.55a2.36,2.36,0,0,0,.32-.52c1-4.63,3.75-8.26,6.94-11.62C129.11,17.55,131.61,14.79,134.26,11.92ZM64,95.08c-1.68,0-3.22,0-4.76,0-.21,0-.57.51-.58.79,0,4,0,8.05,0,12.08,0,.59.2.84.82.84,1.14,0,2.28,0,3.42.11.9.07,1.24-.22,1.23-1.17,0-3.89,0-7.79,0-11.68C64.09,95.76,64,95.43,64,95.08Z"/><path class="cls-1" d="M121.75,95.41c-4.44,0-8.88,0-13.32,0A3.5,3.5,0,0,1,105,92.6a3.59,3.59,0,0,1,2-4.17,5,5,0,0,1,1.85-.38q13,0,25.93,0a3.78,3.78,0,0,1,3.94,3.07,3.64,3.64,0,0,1-2.09,4,5,5,0,0,1-1.86.32C130.43,95.42,126.09,95.41,121.75,95.41Z"/><path class="cls-1" d="M121.76,136.79c-4.44,0-8.88,0-13.32,0a3.36,3.36,0,0,1-3.21-2.05,3.71,3.71,0,0,1,3.43-5.31q13.17,0,26.33,0a3.71,3.71,0,0,1,3.78,3.76,3.63,3.63,0,0,1-3.79,3.6c-4.41,0-8.81,0-13.22,0Z"/><path class="cls-1" d="M8,112.39c0,1.28.07,2.55,0,3.82a3.08,3.08,0,0,1-3.23,3C1,119.29,0,118.32,0,114.6c0-1.81,0-3.63,0-5.44a3.34,3.34,0,0,1,3.68-3.66H4.79a3.06,3.06,0,0,1,3.17,3c.09,1.3,0,2.62,0,3.92Z"/><path class="cls-1" d="M146.22.15a11.84,11.84,0,0,1-1,5.81c-1.32,2.88-3.82,4.12-6.76,4.38-2.62.23-2.8.91-2.41-2.52.71-6.12,5.15-8,9.94-7.8C146,0,146.07.07,146.22.15Z"/><path class="cls-1" d="M120.93,23.27c-5.72-3.15-6.87-8.33-3-13.51C123.89,13,124.66,18.33,120.93,23.27Z"/><path class="cls-1" d="M125.87,1.16c6.11,3.43,6.42,8.28,3.41,13.09a.9.9,0,0,1-.86.19C123.26,11.25,122.1,6.5,125.87,1.16Z"/><path class="cls-1" d="M133.35,19.24c3.72-4.95,8.14-4.9,12.12-1.6.39.32.47.58.11,1C141.92,22.87,137.44,23.17,133.35,19.24Z"/><path class="cls-1" d="M138.64,28.3c-4.31,3.77-9.23,3.49-12.47-1.44C130.25,22.95,135.29,23.32,138.64,28.3Z"/><path class="cls-1" d="M64,95.08c0,.35.07.68.07,1,0,3.89,0,7.79,0,11.68,0,1-.33,1.23-1.23,1.17-1.14-.09-2.28-.11-3.42-.11-.62,0-.82-.24-.82-.84,0-4,0-8.06,0-12.08,0-.28.36-.78.58-.79C60.8,95,62.34,95.08,64,95.08Z"/></g></g></svg>