<svg xmlns="http://www.w3.org/2000/svg" viewBox="0 0 125.62 63.57"><defs><style>.cls-1{fill:#fcfcfc;}</style></defs><title>UN_12</title><g id="Layer_2" data-name="Layer 2"><g id="Layer_1-2" data-name="Layer 1"><path class="cls-1" d="M41.6,50.53,39.26,48.4c-.61-.55-1.23-1.09-1.83-1.65s-.46-1,.31-1.25l18-5c.92-.25,1.23.05,1.07,1.11-.31,2-.66,4-1,6q-.9,5.53-1.8,11.07c-.07.46-.15.92-.24,1.37-.17.84-.57,1-1.23.4-1.16-1-2.33-2.06-3.45-3.13a.85.85,0,0,0-1.33-.09,27.8,27.8,0,0,1-12.16,5.26c-11.05,1.71-20.71-1-28.4-9.37A25.77,25.77,0,0,1,.51,38.77,55.38,55.38,0,0,1,0,30.63,33.71,33.71,0,0,1,4.29,14C8.3,7.11,14.38,3,22,1.12a34.8,34.8,0,0,1,6.62-1A31.07,31.07,0,0,1,52,8.86,62.82,62.82,0,0,1,63.55,24c2.24,3.9,4.25,7.94,6.45,11.87a41.93,41.93,0,0,0,8.23,10.65A30,30,0,0,0,93.6,54.18a19,19,0,0,0,15.92-4,18.74,18.74,0,0,0,6.22-10.67,33.2,33.2,0,0,0,.78-9.11,26.5,26.5,0,0,0-2.32-10.3,18.19,18.19,0,0,0-10.74-9.48A23.08,23.08,0,0,0,93.28,9.15a23.32,23.32,0,0,0-9.81,3.32,36.62,36.62,0,0,0-9.72,9.09c-.47.59-.9,1.21-1.36,1.81s-1,.67-1.43-.07c-1.29-2.25-2.58-4.51-3.88-6.75a.91.91,0,0,1,0-1.16c4.21-5.23,9-9.77,15.22-12.54A33.1,33.1,0,0,1,91.81.19a31.57,31.57,0,0,1,11.91,1,28.25,28.25,0,0,1,15,9.23,29.41,29.41,0,0,1,6.12,13.34,40.4,40.4,0,0,1,.78,8.79c-.14,6.26-1.25,12.31-4.57,17.75a26.49,26.49,0,0,1-18.55,12.74,32,32,0,0,1-19.24-2.66A40.94,40.94,0,0,1,71.51,52.6a52.18,52.18,0,0,1-9.37-12.22c-1.91-3.4-3.64-6.91-5.53-10.32a64.75,64.75,0,0,0-9.18-13,24.93,24.93,0,0,0-14-7.73A21.63,21.63,0,0,0,24,9.93a18.9,18.9,0,0,0-10.32,6.32,20.57,20.57,0,0,0-4.11,9.41,38.17,38.17,0,0,0-.52,8.21,20.25,20.25,0,0,0,4.45,12.62,19.36,19.36,0,0,0,10.82,6.74c5.77,1.35,11.35.9,16.55-2.21C41.08,50.89,41.27,50.75,41.6,50.53Z"/></g></g></svg>