<svg xmlns="http://www.w3.org/2000/svg" viewBox="0 0 129.83 127.17"><defs><style>.cls-1{fill:#fcfcfc;}</style></defs><title>UN_17</title><g id="Layer_2" data-name="Layer 2"><g id="Layer_1-2" data-name="Layer 1"><path class="cls-1" d="M85.47,127c-8,0-14-1.73-19.55-5.22a1.32,1.32,0,0,0-1.67,0,33.5,33.5,0,0,1-16.75,5.38A34.08,34.08,0,0,1,12.4,99.58a33.41,33.41,0,0,1,.54-15.16,1,1,0,0,0-.4-1.24A33,33,0,0,1,.27,61a33.1,33.1,0,0,1,10-28.57,33.32,33.32,0,0,1,20.06-9.55,9.62,9.62,0,0,1,1.64-.12c.72,0,1-.34,1.2-.94C37.46,11.32,45,4.28,56,1.23A34,34,0,0,1,96.76,22a1,1,0,0,0,1,.8,33.35,33.35,0,0,1,20.42,8.36,32.77,32.77,0,0,1,11.49,22.44c1,11.91-3.21,21.74-12.26,29.51a1.11,1.11,0,0,0-.44,1.31,34.06,34.06,0,0,1-24.06,41.38A31.82,31.82,0,0,1,85.47,127ZM64.93,42.29C70.23,31.91,78.5,25.54,89.83,23.2A27.11,27.11,0,0,0,62.77,6.92c-11.4.83-19.85,8.86-22.7,16.3Q57,26.74,64.93,42.29Zm-23,17c-8.43-8.21-12-18-10.86-29.48C22.38,30.39,11.42,37,7.84,49.31,4.61,60.46,9.25,71.5,15.9,76.88a34.27,34.27,0,0,1,26-17.61ZM19.31,87.52c-2.13,8.12.33,20.7,11.34,28.19,10,6.79,22.1,5.36,28.82.8a34.08,34.08,0,0,1-9-29.89,34.19,34.19,0,0,1-31.2.9ZM114.1,76.83a27.13,27.13,0,0,0-6.68-44.67,24.14,24.14,0,0,0-8.66-2.41C99.9,41.25,96.37,50.93,88.17,59,99.71,60.81,108.3,66.75,114.1,76.83Zm-43.45,39.7a27,27,0,0,0,31.11-3c9.17-7.88,10.64-19.35,8.83-26q-15.76,7.07-31.24-.86C81.2,98.1,78.29,108,70.64,116.53Zm37.67-35.67c-6.75-14.4-24.81-19-36.83-12C78.68,83.56,96.45,87.65,108.31,80.86ZM65,112.3c10.49-9.77,11.09-28-.2-38.58C54.51,83.24,53.58,101.54,65,112.3ZM58.34,68.9c-7.64-3.7-15.35-4.11-23.12-.83A26.81,26.81,0,0,0,21.54,80.9,27,27,0,0,0,58.34,68.9ZM38,29.93A27.29,27.29,0,0,0,60.87,61C63.49,46.58,53,31.9,38,29.93Zm53.74-.08A27,27,0,0,0,73.27,41.57a26.27,26.27,0,0,0-4.36,19.38C84.28,58.8,94.32,43.9,91.75,29.86Z"/></g></g></svg>