<svg xmlns="http://www.w3.org/2000/svg" viewBox="0 0 171.73 87.64"><defs><style>.cls-1{fill:#fcfcfc;}</style></defs><title>UN_13</title><g id="Layer_2" data-name="Layer 2"><g id="Layer_1-2" data-name="Layer 1"><path class="cls-1" d="M0,43.7C17.17,19.35,47.67.87,82.84,0a105.25,105.25,0,0,1,88.88,43.9A105.24,105.24,0,0,1,87,87.64,105.24,105.24,0,0,1,0,43.7Zm64.59-9.08.39-.2c.45.5.93,1,1.34,1.49s.74.84,1.44.37a1.24,1.24,0,0,1,1.74.15,1.61,1.61,0,0,1,0,2.06,3.82,3.82,0,0,1-3.7,1.38c-1.31-.31-2.57-.83-3.86-1.23-2.27-.69-4.53-1.41-6.82-2a3,3,0,0,0-2.81.83A15,15,0,0,0,50.46,40a1.75,1.75,0,0,0-.3.76,35.44,35.44,0,0,0,2.37,16.47,1.75,1.75,0,0,0,2.45.87c.85-.47,1.7-1,2.56-1.4a1.39,1.39,0,0,1,2,.35,3,3,0,0,0,.63.55,2.39,2.39,0,0,1,1.33,2.09c0,.69.36.86,1,.6.83-.33,1.17-.09,1.33.78s.28,1.56.45,2.33a1.19,1.19,0,0,0,1.27,1.12,8.88,8.88,0,0,0,0,1.27c.22,1.46.39,2.94.75,4.36.26,1,.79,1.23,1.81,1.11a6.37,6.37,0,0,0,5.55-3.88c.34-.8.6-1.63.86-2.45s.47-1.68,1.38-2.1a.76.76,0,0,0,.36-.47c.32-1.57,1.21-3,1-4.69a4.85,4.85,0,0,1,2-4.57c.23-.2.46-.41.68-.62,1.05-1,1.42-2.7-.31-3.52-.3-.14-.58-.33-.87-.49A7.77,7.77,0,0,1,74.89,43a6.36,6.36,0,0,1,0-1.28l.31-.09c.37.37.75.72,1.11,1.1,1,1.06,2,2.15,3,3.19a1.85,1.85,0,0,0,1.95.64,10.87,10.87,0,0,0,2.83-1.45c1.23-1,1.23-2.1.15-3.22s-2.09-2-3.11-3.08c-.65-.66-1.27-1.34-1.85-2-.13-.16-.06-.5-.09-.75a3.54,3.54,0,0,1,.77,0,1.72,1.72,0,0,1,.53.29c1.42.86,2.83,1.73,4.25,2.57a2.5,2.5,0,0,1,1.39,1.74,4.28,4.28,0,0,0,3.43,3.68c2.38.68,4.69,1.47,6.36,3.47a.82.82,0,0,0,1.39-.06c.94-1.37,2-2.73,1.4-4.57a1.08,1.08,0,0,1,.6-1.34,2,2,0,0,1,3.1,1c.62,1.46,1.25,2.92,1.75,4.42,1,2.86,3.3,4.34,5.66,5.78a1.11,1.11,0,0,0,1,0,1.16,1.16,0,0,0,.08-1,11.22,11.22,0,0,0-1.1-2.18c-1.15-1.69-.79-3.28.13-4.89a2.59,2.59,0,0,1,1.56-1.13,20.3,20.3,0,0,0,3.27-1.42c1.11-.63,1.15-1,.47-2.11a4.07,4.07,0,0,1-.63-2.63c.08-.77.52-1,1.14-.5a8.24,8.24,0,0,1,.88,1,2.28,2.28,0,0,0,2.37.74,2.07,2.07,0,0,0,1.7-1.77,5.26,5.26,0,0,0-.06-1.89A35.87,35.87,0,0,0,67.5,13.21c-.2.12-.39.27-.59.41a3.68,3.68,0,0,0,1.25.08c2.17-.13,4.34-.33,6.51-.36a8.14,8.14,0,0,1,2.68.54,1.33,1.33,0,0,1,.89,1.73,2.36,2.36,0,0,0,.8,2.49c.54.5,1.17.92,1.74,1.39s.66,1-.1,1.41c-1.36.81-2.73,1.62-4.12,2.39a5.88,5.88,0,0,1-1.56.61,1.06,1.06,0,0,1-.83-.32c-.09-.1.07-.6.26-.74a13.25,13.25,0,0,1,1.56-1c.6-.35,1.23-.64,1.8-1s.49-.78-.11-.91a5.37,5.37,0,0,0-2.33-.13,50.94,50.94,0,0,1-8.4,1.29,7.44,7.44,0,0,0-4.31,1.83c-1.12.95-1.08,2,.22,2.61A26.53,26.53,0,0,0,66.78,27a2.33,2.33,0,0,0,2.38-.72c.46-.45.86-.94,1.31-1.4A1.51,1.51,0,0,1,73,25c-.43.32-.88.61-1.29,1a12.55,12.55,0,0,0-1.17,1.1c-1.23,1.32-2.12,1.45-3.84.88a7,7,0,0,0-6.19.57,17.69,17.69,0,0,1-2,1.13c-.63.29-1.05.57-.73,1.38a1.17,1.17,0,0,1-.48,1.41,1.27,1.27,0,0,1-1.49.19,4,4,0,0,0-2.62-.24c-1.7.28-2,1.26-1.58,2.83.29,1.11,1,1.35,2.06.85a8.31,8.31,0,0,1,1.85-.66,10.17,10.17,0,0,0,4.95-2.1,1.08,1.08,0,0,1,1.48.07,4.58,4.58,0,0,1,.83,1.08c.52.85,1,1.74,1.52,2.58a3.24,3.24,0,0,0,.79.64l.23-.18Zm42.53,33.11a3.35,3.35,0,0,0,0,.6c.07.32.16.64.25,1a8.88,8.88,0,0,1,.95-.26,5.26,5.26,0,0,1,1.3-.12,2.62,2.62,0,0,1,.92.37.89.89,0,0,0,1.2-.27,39.22,39.22,0,0,0,7.16-10.64,4.43,4.43,0,0,0-.15-4.29c-.61-1.13-.78-1.21-1.86-.46A15,15,0,0,1,111.09,56a42.42,42.42,0,0,0-5,1.37A6.57,6.57,0,0,0,102,64.55c.3,1.19.7,2.35,1,3.52.38,1.34.82,1.54,2,.87C105.68,68.58,106.31,68.21,107.11,67.74Zm.53,4.81a6.14,6.14,0,0,0-5.56-.45,13.26,13.26,0,0,0-3.66,2.33,3.13,3.13,0,0,1-3.61.69c-1.84-.69-3.71-1.3-5.6-1.85-2.92-.86-5.88-1.41-8.91-.54-2.14.62-4,1.63-4.92,3.8a1.39,1.39,0,0,0,1,2.1,35.85,35.85,0,0,0,14.36,1,35.48,35.48,0,0,0,16.14-6.45C107.13,73,107.33,72.8,107.64,72.55Zm10.82-33c.22.45.39.84.58,1.22a1.28,1.28,0,0,1-.11,1.54,4.47,4.47,0,0,0-.8,1.79c-.5,2.77.63,5,2.42,7a2.58,2.58,0,0,0,.55.33c.19-1.3.45-2.5.53-3.71a47.08,47.08,0,0,0,.12-5.51A2.79,2.79,0,0,0,118.46,39.51Zm-66-8.94a1.88,1.88,0,0,0,2.22-.46c1.8-1.54,3.31-3.4,5.45-4.55.64-.35.56-.84-.07-1.23-1.22-.75-4-.27-4.76,1C54.32,27,53.46,28.73,52.49,30.57Zm25.27,30.5.13,0a5.64,5.64,0,0,0,.11,1,2.26,2.26,0,0,0,.4.59c.18-.13.43-.22.52-.39a18.79,18.79,0,0,0,.81-1.82q1-2.53,1.92-5.07a3.67,3.67,0,0,0,.25-1.11c0-.77-.48-1.13-1.21-.84a2.93,2.93,0,0,0-1.91,2.06C78.37,57.34,78.09,59.21,77.76,61.06ZM58.56,22.85c.81-.36,1.64-.72,2.45-1.1a2.82,2.82,0,0,0,1.51-2.56A.94.94,0,0,0,61.68,18a2.47,2.47,0,0,0-2.27.66c-.77.85-1.41,1.81-2.12,2.71a.57.57,0,0,0,.13.92A8.15,8.15,0,0,0,58.56,22.85Zm55.6,30.54c.43-.26,1.05-.45,1.27-.85.13-.23-.35-.85-.64-1.23a2.1,2.1,0,0,0-.75-.52,1.58,1.58,0,0,0-2.12.45c-.49.58-.44,1.1.23,1.43A17.77,17.77,0,0,0,114.17,53.39ZM94.46,49.94l1.39-.77c-.27-.46-.51-.94-.82-1.38a1.71,1.71,0,0,0-.63-.42,1.56,1.56,0,0,0-2.07.39c-.57.62-.52,1.17.23,1.54A15.61,15.61,0,0,0,94.46,49.94Zm18.11-.32c.13-.06.59-.15.74-.41s-.08-.69-.29-.94a6.5,6.5,0,0,0-1.34-1.22,1,1,0,0,0-.9,0,1.09,1.09,0,0,0-.33.84A1.86,1.86,0,0,0,112.56,49.63Z"/></g></g></svg>