<svg xmlns="http://www.w3.org/2000/svg" viewBox="0 0 113.22 95.78"><defs><style>.cls-1{fill:#fcfcfc;}</style></defs><title>UN_14</title><g id="Layer_2" data-name="Layer 2"><g id="Layer_1-2" data-name="Layer 1"><path class="cls-1" d="M112.34,6.64a6.42,6.42,0,0,0,0,1.1A2.61,2.61,0,0,1,111,10.48,16.58,16.58,0,0,1,101.38,14a17.31,17.31,0,0,1-8.58-2.25,25,25,0,0,1-5.4-3.94c-.66-.62-.81-.64-1.49,0a21,21,0,0,1-9.33,5.28,20.16,20.16,0,0,1-13.26-1.47,27.19,27.19,0,0,1-6.5-4,.81.81,0,0,0-1.24,0,26.17,26.17,0,0,1-12.44,5.78A18.63,18.63,0,0,1,28.93,9.84a23.61,23.61,0,0,1-2.45-2c-.65-.61-.85-.6-1.49,0a22,22,0,0,1-10.41,5.82C9.48,14.77,5,13.31,1,10.18A2.19,2.19,0,0,1,0,8.11C.09,7,0,5.8,0,4.65s.34-1.29,1.29-.84A23,23,0,0,0,12.61,6.2,19.69,19.69,0,0,0,24.1,1.67c.54-.43,1-.9,1.56-1.37A.77.77,0,0,1,26.8.24C31.19,3.51,36,5.7,41.57,5.94A18.36,18.36,0,0,0,54.2,1.59c.43-.35.84-.72,1.25-1.09.64-.57.87-.56,1.52,0a19.68,19.68,0,0,0,9,5A20.59,20.59,0,0,0,78.31,4.33,27.86,27.86,0,0,0,85.62.2c.49-.39.82-.16,1.19.19a20.92,20.92,0,0,0,7.49,4.7c5.76,2,11.33,1.26,16.75-1.28,1-.45,1.29-.26,1.3.82C112.34,5.3,112.34,6,112.34,6.64Z"/><path class="cls-1" d="M112.34,23.89a7.32,7.32,0,0,0,0,1.17,2.48,2.48,0,0,1-1.24,2.58,16.6,16.6,0,0,1-9.87,3.63,16.91,16.91,0,0,1-7.83-1.94,24.19,24.19,0,0,1-6-4.21c-.72-.7-.84-.71-1.58,0a20.82,20.82,0,0,1-9.41,5.27A20.32,20.32,0,0,1,63.15,28.8a27,27,0,0,1-6.43-4c-.45-.38-.75-.24-1.13.07a26.71,26.71,0,0,1-11,5.51c-6.39,1.43-12-.2-17-4.33A15.63,15.63,0,0,1,26.39,25c-.47-.48-.85-.46-1.34,0a23.68,23.68,0,0,1-6.54,4.56A16,16,0,0,1,.4,26.92,1.09,1.09,0,0,1,0,26c0-1.41,0-2.81,0-4.22,0-.92.39-1.17,1.21-.78a24.21,24.21,0,0,0,8.11,2.35,19.59,19.59,0,0,0,14.25-4,24.46,24.46,0,0,0,2-1.7.85.85,0,0,1,1.31,0c4.88,3.57,10.2,5.88,16.38,5.61a18.44,18.44,0,0,0,11.18-4.55c.32-.26.63-.54.93-.82.7-.64.9-.64,1.62,0a20.63,20.63,0,0,0,6.8,4.26,19.79,19.79,0,0,0,14-.34,28,28,0,0,0,7.76-4.29c.49-.38.82-.18,1.19.17a21.11,21.11,0,0,0,7.49,4.7,21.13,21.13,0,0,0,15.55-.73c.51-.21,1-.47,1.51-.69s1,0,1,.62C112.36,22.33,112.34,23.11,112.34,23.89Z"/><path class="cls-1" d="M112.76,69.2a75.31,75.31,0,0,0-12.1-12.47,56.65,56.65,0,0,0-18-10.26A39.85,39.85,0,0,0,62.9,44.89a63.26,63.26,0,0,0-17.22,5.93A103.17,103.17,0,0,0,27.16,62.68c-.32.25-.47.33-.69-.09A38.44,38.44,0,0,0,21.06,55,32,32,0,0,0,6.49,45.4a28.65,28.65,0,0,0-5.14-1,.92.92,0,0,0-.93.32c-.26.35-.05.65.12,1l.38.66a60.85,60.85,0,0,1,5.8,13.31A34.41,34.41,0,0,1,8,74.71,52.63,52.63,0,0,1,2.65,90.59C2,91.91,1.24,93.18.51,94.46c-.17.29-.31.57-.11.9a.78.78,0,0,0,.85.3l.48,0a27.28,27.28,0,0,0,10.13-3.22A37.74,37.74,0,0,0,26.36,77.67c.33-.57.48-.56,1-.18A97.39,97.39,0,0,0,52.16,92.11a48.86,48.86,0,0,0,17.94,3.67c.67,0,1.82-.07,3-.17A44,44,0,0,0,88.94,91a70.31,70.31,0,0,0,23.81-20.12C113.38,70.07,113.37,70,112.76,69.2Zm-30,3.52a6.92,6.92,0,0,1-6.91-7,6.93,6.93,0,0,1,13.87.07A6.86,6.86,0,0,1,82.74,72.72Z"/></g></g></svg>