<svg xmlns="http://www.w3.org/2000/svg" width="22.262" height="33.282" viewBox="0 0 22.262 33.282">
  <g id="Group_350" data-name="Group 350" transform="translate(-324.478 -282.973)">
    <path id="Path_442" data-name="Path 442" d="M364.86,316.689a6.813,6.813,0,1,0,6.8,6.949A6.77,6.77,0,0,0,364.86,316.689Z" transform="translate(-29.241 -29.375)" fill="none"/>
    <path id="Path_443" data-name="Path 443" d="M346.6,291.807a10.117,10.117,0,0,0-3.546-6.138A11.192,11.192,0,0,0,336.4,283a11.369,11.369,0,0,0-4.011.414,10.844,10.844,0,0,0-6.724,5.306,9.466,9.466,0,0,0-1.1,5.963,18.469,18.469,0,0,0,1,3.772,59.971,59.971,0,0,0,4.036,8.553c1.5,2.715,3.126,5.35,4.821,7.945.281.43.572.853.872,1.3.056-.067.093-.1.123-.147,1.259-1.726,2.549-3.43,3.768-5.184a61.857,61.857,0,0,0,4.816-8.17,27.542,27.542,0,0,0,2.539-7.248A10.634,10.634,0,0,0,346.6,291.807Zm-11.065,9.132a6.813,6.813,0,1,1,6.884-6.676A6.777,6.777,0,0,1,335.535,300.939Z" fill="#020202"/>
  </g>
</svg>
