
<svg xmlns="http://www.w3.org/2000/svg" viewBox="0 0 513.223 513.223" width="512" height="512"><path d="M409.622 78.763c-3.25-23.759-12.556-42.799-27.659-56.592C368.746 10.1 351.78 2.882 332.901 1.294c-17.826-1.493-36.008 2.246-51.183 10.545-10.71 5.856-19.417 13.763-25.5 22.993-6.083-9.23-14.79-17.137-25.5-22.993-15.175-8.3-33.352-12.039-51.183-10.545-18.879 1.588-35.845 8.807-49.062 20.878-15.104 13.793-24.409 32.833-27.659 56.592-3.598 26.301 2.295 53.001 17.517 79.359 11.917 20.638 29.57 41.104 52.47 60.829 38.633 33.278 78.461 52.809 80.138 53.624a7.5 7.5 0 006.558 0c1.677-.815 41.505-20.346 80.138-53.624 22.899-19.726 40.553-40.191 52.47-60.829 15.222-26.359 21.114-53.059 17.517-79.36z" fill="#fdec01"/><path d="M409.622 78.763c-3.25-23.759-12.556-42.799-27.659-56.592C368.746 10.1 351.78 2.882 332.901 1.294a93.47 93.47 0 00-25.889 1.47c14.73 2.977 27.967 9.586 38.722 19.408 15.103 13.793 24.409 32.833 27.659 56.592 3.598 26.301-2.295 53.001-17.517 79.359-11.917 20.638-29.57 41.104-52.47 60.829-24.72 21.294-49.912 36.947-65.303 45.681 8.662 4.916 14.231 7.649 14.835 7.943a7.5 7.5 0 006.558 0c1.677-.815 41.505-20.346 80.138-53.624 22.899-19.726 40.553-40.191 52.47-60.829 15.223-26.359 21.115-53.059 17.518-79.36z" fill="#c4b701"/><g fill="#464649"><path d="M197.811 125.762c-8.024 0-14.553-6.528-14.553-14.553 0-8.025 6.528-14.554 14.553-14.554 8.025 0 14.554 6.528 14.554 14.554 0 8.025-6.529 14.553-14.554 14.553zM314.625 125.762c-8.025 0-14.554-6.528-14.554-14.553 0-8.025 6.528-14.554 14.554-14.554 8.024 0 14.553 6.528 14.553 14.554 0 8.025-6.528 14.553-14.553 14.553z"/></g><path d="M256.218 160.582c-14.669 0-27.47-9.4-31.852-23.392a7.5 7.5 0 1114.314-4.482c2.412 7.7 9.459 12.874 17.537 12.874s15.125-5.174 17.537-12.874a7.498 7.498 0 019.398-4.916 7.5 7.5 0 014.916 9.398c-4.38 13.991-17.181 23.392-31.85 23.392z" fill="#464649"/><path d="M345.967 324.451l24.875-76.386c3.251-9.988 13.141-16.004 23.501-14.304a21.117 21.117 0 0114.549 9.738 21.115 21.115 0 012.205 17.369l-8.233 26.515a7.503 7.503 0 01-1.922 3.141l-42.602 41.614a7.494 7.494 0 01-9.199 1.006 7.5 7.5 0 01-3.174-8.693z" fill="#db9975"/><path d="M353.096 334.274a7.5 7.5 0 01-7.129-9.822l24.875-76.386c2.655-8.157 9.739-13.66 17.89-14.479l-26.923 95.163-3.47 3.389a7.494 7.494 0 01-5.243 2.135z" fill="#f7b081"/><path d="M388.538 282.936l16.53-53.233c3.254-10.481 14.128-16.545 24.754-13.804a20.63 20.63 0 0112.875 9.996 20.625 20.625 0 011.546 16.225l-11.982 37.049a7.503 7.503 0 01-5.423 4.994 7.506 7.506 0 01-7.078-2.061 7.075 7.075 0 00-5.011-2.145 7.006 7.006 0 00-5.061 2.027l-8.745 8.542a7.493 7.493 0 01-9.155 1.032 7.5 7.5 0 01-3.25-8.622z" fill="#db9975"/><path d="M363.197 363.307l57.043-71.798a7.135 7.135 0 00-.481-9.407 7.5 7.5 0 01-1.771-7.549l21.578-66.715c3.166-9.79 13.192-15.817 23.322-14.011a20.72 20.72 0 0113.999 9.524 20.717 20.717 0 012.208 16.787L467.5 258.921c-10.926 36.547-32.705 68.129-62.981 91.333l-30.888 23.672a7.475 7.475 0 01-4.56 1.547 7.502 7.502 0 01-5.874-12.166z" fill="#db9975"/><path d="M388.538 282.936l16.53-53.233c2.473-7.966 9.352-13.369 17.174-14.305l-22.159 75.838a7.491 7.491 0 01-4.385 1.424 7.5 7.5 0 01-7.16-9.724z" fill="#f7b081"/><path d="M370.134 375.387a7.429 7.429 0 01-1.062.085 7.5 7.5 0 01-5.874-12.165l57.043-71.798a7.135 7.135 0 00-.481-9.407 7.5 7.5 0 01-1.771-7.549l21.578-66.715c2.675-8.27 10.249-13.834 18.642-14.28l-36.943 118.033-51.132 63.796z" fill="#f7b081"/><path d="M275.201 426.078c.144-1.497 3.759-36.991 23.984-65.724 18.005-25.58 43.173-37.267 49.747-39.995l50.274-49.107c8.726-8.524 22.76-8.36 31.284.367.289.296.568.597.836.905 6.53 7.474 6.36 18.701.093 26.397l-62.347 76.551L422.3 322.71a76.886 76.886 0 0019.229-31.578l8.678-27.652-.018.017a167.569 167.569 0 002.941-8.874l15.836-52.969a22.567 22.567 0 0124.99-15.59 22.627 22.627 0 0115.795 10.348 22.63 22.63 0 012.466 18.72l-23.697 76.9c-1.21 3.927-2.413 7.935-3.631 11.992-10.915 36.361-23.288 77.573-53.111 101.926l-55.208 45.083v53.717a7.5 7.5 0 01-7.5 7.5h-86.403a7.5 7.5 0 01-7.5-7.5v-77.954a7.189 7.189 0 01.034-.718z" fill="#ffc89f"/><g fill="#ffb98a"><path d="M431.418 298.922c6.268-7.695 6.438-18.923-.093-26.397a22.098 22.098 0 00-4.145-3.682l-59.922 75.801c-5.601 7.05-4.808 24.728 1.814 30.829l62.346-76.551zM369.072 375.472l.003-.003z"/></g><path d="M509.75 196.413a22.622 22.622 0 00-13.807-9.948l-29.961 97.097c-11.878 38.545-23.077 81.806-54.318 107.317L350.7 438.212v74.038h18.37a7.5 7.5 0 007.5-7.5v-53.717l55.208-45.083c29.823-24.353 42.195-65.565 53.111-101.926 1.218-4.057 2.421-8.064 3.631-11.992l23.697-76.9a22.633 22.633 0 00-2.467-18.719z" fill="#ffb98a"/><g><path d="M167.255 324.451l-24.874-76.386c-3.252-9.988-13.141-16.004-23.501-14.304a21.117 21.117 0 00-14.549 9.738 21.115 21.115 0 00-2.205 17.369l8.233 26.515a7.503 7.503 0 001.922 3.141l42.602 41.614a7.494 7.494 0 009.199 1.006 7.5 7.5 0 003.173-8.693z" fill="#db9975"/><path d="M160.126 334.274a7.5 7.5 0 007.129-9.822l-24.874-76.386c-2.656-8.157-9.739-13.66-17.89-14.479l26.923 95.163 3.47 3.389a7.492 7.492 0 005.242 2.135z" fill="#f7b081"/><path d="M124.685 282.936l-16.53-53.233c-3.254-10.481-14.128-16.545-24.754-13.804a20.63 20.63 0 00-12.875 9.996 20.625 20.625 0 00-1.546 16.225l11.982 37.049a7.503 7.503 0 005.423 4.994 7.506 7.506 0 007.078-2.061 7.075 7.075 0 015.011-2.145 7.006 7.006 0 015.061 2.027l8.745 8.542a7.493 7.493 0 009.155 1.032 7.5 7.5 0 003.25-8.622z" fill="#db9975"/><path d="M150.025 363.307l-57.043-71.798a7.135 7.135 0 01.481-9.407 7.5 7.5 0 001.771-7.549l-21.578-66.715c-3.166-9.79-13.192-15.817-23.322-14.011a20.724 20.724 0 00-14 9.524 20.72 20.72 0 00-2.208 16.787l11.595 38.783c10.926 36.547 32.705 68.129 62.981 91.333l30.888 23.672a7.475 7.475 0 004.56 1.547 7.5 7.5 0 005.875-12.166z" fill="#db9975"/><path d="M124.685 282.936l-16.53-53.233c-2.473-7.966-9.352-13.369-17.174-14.305l22.159 75.838a7.491 7.491 0 004.385 1.424 7.5 7.5 0 007.16-9.724z" fill="#f7b081"/><path d="M143.088 375.387c.353.051.707.085 1.062.085a7.5 7.5 0 005.874-12.165l-57.043-71.798a7.135 7.135 0 01.481-9.407 7.5 7.5 0 001.771-7.549l-21.578-66.715c-2.675-8.27-10.249-13.834-18.642-14.28l36.943 118.033 51.132 63.796z" fill="#f7b081"/></g><path d="M238.022 426.078c-.144-1.497-3.759-36.991-23.984-65.724-18.005-25.58-43.173-37.267-49.747-39.995l-50.274-49.107c-8.726-8.524-22.76-8.36-31.284.367-.289.296-.567.597-.836.905-6.53 7.474-6.36 18.701-.093 26.397l62.347 76.551-53.228-52.762a76.886 76.886 0 01-19.229-31.578l-8.678-27.652.018.017a167.569 167.569 0 01-2.941-8.874l-15.836-52.969a22.567 22.567 0 00-24.99-15.59 22.627 22.627 0 00-15.795 10.348 22.63 22.63 0 00-2.466 18.72l23.697 76.9c1.21 3.927 2.413 7.935 3.631 11.992 10.916 36.361 23.288 77.573 53.111 101.926l55.208 45.083v53.717a7.5 7.5 0 007.5 7.5h86.403a7.5 7.5 0 007.5-7.5v-77.954a7.189 7.189 0 00-.034-.718z" fill="#ffc89f"/><path d="M214.038 360.355c-18.005-25.58-43.173-37.267-49.747-39.995l-50.274-49.107c-8.726-8.524-22.76-8.36-31.284.367-.289.296-.567.598-.836.905l-.008.01 60.458 62.239s28.467 10.458 47.781 37.898c19.314 27.44 22.651 62.125 22.651 62.125V512.251h17.777a7.5 7.5 0 007.5-7.5v-77.954c0-.24-.012-.479-.035-.718-.143-1.498-3.758-36.992-23.983-65.724z" fill="#ffb98a"/></svg>